<svg width="46" height="46" viewBox="0 0 46 46" fill="none" xmlns="http://www.w3.org/2000/svg">
<path d="M26.2957 21.282H19.5391V28.0263H26.2957V21.282Z" fill="white"/>
<path d="M36.2896 21.2942C34.2134 21.285 32.1404 21.2665 30.0642 21.2481C29.8401 21.2481 29.7878 21.3433 29.7878 21.5522C29.7971 23.6498 29.7971 25.7474 29.8001 27.8481C29.8001 27.9065 29.8308 27.9648 29.8462 28.0232H36.6151C36.6274 27.9065 36.6428 27.8328 36.6428 27.756C36.6428 25.7198 36.6428 23.6866 36.6489 21.6504C36.6489 21.3802 36.5414 21.2972 36.2865 21.2942H36.2896Z" fill="white"/>
<path d="M25.875 31.4814C23.8756 31.5029 21.8763 31.5029 19.8769 31.5121C19.7664 31.5121 19.6558 31.5336 19.533 31.549V38.2718H19.9599C21.9224 38.2718 23.8818 38.2596 25.8412 38.2811C26.2435 38.2872 26.3295 38.1613 26.3265 37.7866C26.3142 35.8395 26.3111 33.8954 26.3357 31.9482C26.3418 31.5705 26.2251 31.4753 25.8719 31.4814H25.875Z" fill="white"/>
<path d="M36.1575 31.4814C34.1581 31.5029 32.1588 31.5029 30.1594 31.5121C30.0488 31.5121 29.9383 31.5336 29.8154 31.549V38.2718H30.2423C32.2048 38.2718 34.1643 38.2596 36.1237 38.2811C36.526 38.2872 36.612 38.1613 36.6089 37.7866C36.5966 35.8395 36.5936 33.8954 36.6181 31.9482C36.6243 31.5705 36.5076 31.4753 36.1544 31.4814H36.1575Z" fill="white"/>
<path d="M9.3613 27.0957C9.3613 27.3967 9.3613 27.6977 9.3613 28.0202H16.1241V21.2543C14.008 21.2543 11.9196 21.2666 9.83426 21.2451C9.45036 21.242 9.3398 21.3219 9.34594 21.7181C9.37051 23.5116 9.3613 25.3052 9.3613 27.0957Z" fill="white"/>
<path d="M9.65285 31.4877C9.38258 31.4877 9.34573 31.6105 9.3488 31.8408C9.36416 33.8525 9.36723 35.8611 9.37951 37.8727C9.37951 37.9986 9.40101 38.1215 9.4133 38.2412H16.1423V31.5399C16.0195 31.5214 15.9335 31.4938 15.8444 31.4938C13.7805 31.4938 11.7167 31.4938 9.65285 31.4877Z" fill="white"/>
<path d="M7.95464 10.3515C8.36925 11.0425 9.1432 11.2913 9.87721 11.0732C10.516 10.8828 11.0965 10.1396 11.0996 9.42704C11.1118 7.16356 11.118 4.90008 11.0965 2.6366C11.0873 1.71524 10.2427 0.978154 9.28754 0.987367C8.38154 0.99351 7.71509 1.67225 7.70587 2.63353C7.69359 3.75145 7.7028 4.87244 7.7028 5.99036C7.69666 5.99036 7.69052 5.99036 7.6813 5.99036C7.6813 7.08371 7.6598 8.17706 7.69359 9.2704C7.70587 9.63588 7.77037 10.0474 7.95157 10.3545L7.95464 10.3515Z" fill="white"/>
<path d="M34.9136 9.27354C34.9136 9.75265 34.9781 10.2072 35.3466 10.5727C35.9179 11.1378 36.5812 11.3251 37.22 11.0303C37.9264 10.7047 38.3226 10.1243 38.3288 9.34418C38.3441 7.1452 38.338 4.94622 38.3318 2.74416C38.3318 1.78288 37.5364 0.993576 36.5874 0.990504C35.6077 0.987433 34.9474 1.65081 34.932 2.67967C34.9197 3.76073 34.932 4.8418 34.932 5.92286C34.9259 5.92286 34.9197 5.92286 34.9136 5.92286C34.9136 7.04078 34.9136 8.1587 34.9136 9.27969V9.27354Z" fill="white"/>
<path d="M45.1039 34.5435C45.1039 31.2113 45.1039 27.8821 45.1039 24.5498C45.11 24.5099 45.1131 24.47 45.1131 24.4331C45.1131 20.6525 45.1131 16.8718 45.1039 13.0912C45.1039 12.6397 45.1039 12.1913 45.1039 11.7398V11.746C45.1039 11.6723 45.1039 11.5986 45.1039 11.5248C45.0947 8.92353 42.7851 7.2528 40.0548 7.77183C40.018 8.47514 40.0272 9.18152 39.932 9.86947C39.7416 11.2515 38.9676 12.2005 37.6316 12.6397C36.2864 13.0819 35.1194 12.7042 34.1335 11.7429C33.4333 11.0611 33.2275 10.1735 33.2183 9.22758C33.2122 8.73619 33.2183 8.24173 33.2183 7.72884H12.8255C12.7887 8.44443 12.7887 9.14466 12.7057 9.83261C12.4693 11.7705 10.7709 13.0451 8.85445 12.7625C7.2175 12.5199 6.03201 11.1717 5.98902 9.49171C5.97366 8.92046 5.98902 8.34922 5.98902 7.74419C5.32564 7.74419 4.70833 7.67663 4.11251 7.75955C2.9086 7.92232 2.00567 8.57956 1.36071 9.61149C0.946101 10.2718 0.890819 10.9935 0.890819 11.7398C0.890819 19.3411 0.890819 26.9423 0.890819 34.5435C0.890819 36.8224 0.91846 39.1012 0.881606 41.38C0.844751 43.4899 2.84411 45.0286 4.37971 45.0225C10.1014 45.0071 15.823 45.0071 21.5447 45.0071C21.5969 45.0194 21.6614 45.0225 21.7382 45.0163C21.8456 45.0102 21.9562 45.0071 22.0668 45.0071C22.377 45.0071 22.6902 45.0071 23.0004 45.0071C23.3106 45.0071 23.6239 45.0071 23.9341 45.0071C24.0446 45.0071 24.1521 45.0071 24.2627 45.0163C24.3395 45.0225 24.404 45.0163 24.4562 45.0071C30.1778 45.0071 35.8995 45.0071 41.6211 45.0225C43.1537 45.0255 45.153 43.4899 45.1192 41.38C45.0793 39.1012 45.11 36.8224 45.11 34.5435H45.1039ZM40.6537 41.6319C34.7693 41.6319 28.8818 41.6319 22.9973 41.6319C17.1129 41.6319 11.2254 41.6319 5.34099 41.6319C4.32135 41.6319 4.32135 41.6257 4.32135 40.6245C4.32135 33.4809 4.32135 26.3403 4.32135 19.1967C4.32135 18.7698 4.32135 18.3429 4.32135 17.913H41.701V19.1384L41.6764 19.1936C41.6764 26.3373 41.6764 33.4778 41.6764 40.6214C41.6764 41.6257 41.6764 41.6288 40.6568 41.6288L40.6537 41.6319Z" fill="white"/>
</svg>
