<svg width="114" height="121" viewBox="0 0 114 121" fill="none" xmlns="http://www.w3.org/2000/svg">
<g filter="url(#filter0_d_827_249)">
<rect x="5" y="4.60202" width="98" height="104" rx="22" fill="#0268B2"/>
</g>
<path d="M57.2953 52.8015H50.5386V59.5458H57.2953V52.8015Z" fill="white"/>
<path d="M67.289 52.8137C65.2129 52.8045 63.1398 52.786 61.0637 52.7676C60.8395 52.7676 60.7873 52.8628 60.7873 53.0717C60.7965 55.1693 60.7965 57.2669 60.7996 59.3676C60.7996 59.426 60.8303 59.4843 60.8456 59.5427H67.6146C67.6269 59.426 67.6422 59.3523 67.6422 59.2755C67.6422 57.2393 67.6422 55.2061 67.6484 53.1699C67.6484 52.8997 67.5409 52.8167 67.286 52.8137H67.289Z" fill="white"/>
<path d="M56.8746 63.0009C54.8752 63.0224 52.8759 63.0224 50.8765 63.0316C50.7659 63.0316 50.6554 63.0531 50.5325 63.0685V69.7913H50.9594C52.9219 69.7913 54.8814 69.7791 56.8408 69.8006C57.2431 69.8067 57.3291 69.6808 57.326 69.3061C57.3138 67.359 57.3107 65.4149 57.3352 63.4677C57.3414 63.09 57.2247 62.9948 56.8715 63.0009H56.8746Z" fill="white"/>
<path d="M67.157 63.0009C65.1576 63.0224 63.1583 63.0224 61.1589 63.0316C61.0484 63.0316 60.9378 63.0531 60.8149 63.0685V69.7913H61.2418C63.2043 69.7913 65.1638 69.7791 67.1232 69.8006C67.5255 69.8067 67.6115 69.6808 67.6084 69.3061C67.5962 67.359 67.5931 65.4149 67.6177 63.4677C67.6238 63.09 67.5071 62.9948 67.1539 63.0009H67.157Z" fill="white"/>
<path d="M40.3607 58.6152C40.3607 58.9162 40.3607 59.2172 40.3607 59.5397H47.1235V52.7738C45.0075 52.7738 42.9191 52.7861 40.8337 52.7646C40.4498 52.7615 40.3393 52.8414 40.3454 53.2376C40.37 55.0311 40.3607 56.8247 40.3607 58.6152Z" fill="white"/>
<path d="M40.6525 63.0072C40.3822 63.0072 40.3454 63.13 40.3484 63.3603C40.3638 65.372 40.3669 67.3806 40.3791 69.3922C40.3791 69.5181 40.4006 69.641 40.4129 69.7607H47.1419V63.0594C47.0191 63.0409 46.9331 63.0133 46.844 63.0133C44.7802 63.0133 42.7163 63.0133 40.6525 63.0072Z" fill="white"/>
<path d="M38.9541 41.871C39.3687 42.562 40.1426 42.8108 40.8767 42.5927C41.5155 42.4023 42.0959 41.6591 42.099 40.9465C42.1113 38.6831 42.1174 36.4196 42.0959 34.1561C42.0867 33.2347 41.2421 32.4977 40.287 32.5069C39.381 32.513 38.7145 33.1918 38.7053 34.153C38.693 35.271 38.7023 36.392 38.7023 37.5099C38.6961 37.5099 38.69 37.5099 38.6808 37.5099C38.6808 38.6032 38.6593 39.6966 38.693 40.7899C38.7053 41.1554 38.7698 41.5669 38.951 41.874L38.9541 41.871Z" fill="white"/>
<path d="M65.9131 40.793C65.9131 41.2721 65.9776 41.7267 66.3461 42.0922C66.9174 42.6573 67.5808 42.8446 68.2196 42.5498C68.9259 42.2242 69.3221 41.6438 69.3283 40.8637C69.3436 38.6647 69.3375 36.4657 69.3313 34.2637C69.3313 33.3024 68.5359 32.5131 67.5869 32.51C66.6072 32.5069 65.9469 33.1703 65.9315 34.1992C65.9192 35.2802 65.9315 36.3613 65.9315 37.4424C65.9254 37.4424 65.9192 37.4424 65.9131 37.4424C65.9131 38.5603 65.9131 39.6782 65.9131 40.7992V40.793Z" fill="white"/>
<path d="M76.1034 66.063C76.1034 62.7308 76.1034 59.4016 76.1034 56.0693C76.1095 56.0294 76.1126 55.9895 76.1126 55.9526C76.1126 52.172 76.1126 48.3913 76.1034 44.6107C76.1034 44.1592 76.1034 43.7108 76.1034 43.2593V43.2655C76.1034 43.1918 76.1034 43.1181 76.1034 43.0443C76.0942 40.443 73.7846 38.7723 71.0543 39.2913C71.0175 39.9946 71.0267 40.701 70.9315 41.389C70.7411 42.771 69.9671 43.72 68.6311 44.1592C67.286 44.6014 66.1189 44.2237 65.133 43.2624C64.4328 42.5806 64.227 41.693 64.2178 40.7471C64.2117 40.2557 64.2178 39.7612 64.2178 39.2483H43.825C43.7882 39.9639 43.7882 40.6642 43.7053 41.3521C43.4688 43.29 41.7704 44.5646 39.854 44.282C38.217 44.0394 37.0315 42.6912 36.9885 41.0112C36.9732 40.44 36.9885 39.8687 36.9885 39.2637C36.3251 39.2637 35.7078 39.1961 35.112 39.2791C33.9081 39.4418 33.0052 40.0991 32.3602 41.131C31.9456 41.7913 31.8903 42.513 31.8903 43.2593C31.8903 50.8606 31.8903 58.4618 31.8903 66.063C31.8903 68.3419 31.918 70.6207 31.8811 72.8995C31.8443 75.0094 33.8436 76.5481 35.3792 76.542C41.1009 76.5266 46.8225 76.5266 52.5442 76.5266C52.5964 76.5389 52.6609 76.542 52.7377 76.5358C52.8452 76.5297 52.9557 76.5266 53.0663 76.5266C53.3765 76.5266 53.6897 76.5266 53.9999 76.5266C54.3101 76.5266 54.6234 76.5266 54.9336 76.5266C55.0441 76.5266 55.1516 76.5266 55.2622 76.5358C55.339 76.542 55.4035 76.5358 55.4557 76.5266C61.1773 76.5266 66.899 76.5266 72.6206 76.542C74.1532 76.545 76.1525 75.0094 76.1187 72.8995C76.0788 70.6207 76.1095 68.3419 76.1095 66.063H76.1034ZM71.6532 73.1514C65.7688 73.1514 59.8813 73.1514 53.9969 73.1514C48.1124 73.1514 42.2249 73.1514 36.3405 73.1514C35.3209 73.1514 35.3209 73.1452 35.3209 72.144C35.3209 65.0004 35.3209 57.8598 35.3209 50.7162C35.3209 50.2893 35.3209 49.8624 35.3209 49.4325H72.7005V50.6579L72.6759 50.7131C72.6759 57.8568 72.6759 64.9973 72.6759 72.1409C72.6759 73.1452 72.6759 73.1483 71.6563 73.1483L71.6532 73.1514Z" fill="white"/>
<defs>
<filter id="filter0_d_827_249" x="0" y="0.60202" width="114" height="120" filterUnits="userSpaceOnUse" color-interpolation-filters="sRGB">
<feFlood flood-opacity="0" result="BackgroundImageFix"/>
<feColorMatrix in="SourceAlpha" type="matrix" values="0 0 0 0 0 0 0 0 0 0 0 0 0 0 0 0 0 0 127 0" result="hardAlpha"/>
<feMorphology radius="5" operator="erode" in="SourceAlpha" result="effect1_dropShadow_827_249"/>
<feOffset dx="3" dy="4"/>
<feGaussianBlur stdDeviation="6.5"/>
<feComposite in2="hardAlpha" operator="out"/>
<feColorMatrix type="matrix" values="0 0 0 0 0 0 0 0 0 0 0 0 0 0 0 0 0 0 0.14 0"/>
<feBlend mode="normal" in2="BackgroundImageFix" result="effect1_dropShadow_827_249"/>
<feBlend mode="normal" in="SourceGraphic" in2="effect1_dropShadow_827_249" result="shape"/>
</filter>
</defs>
</svg>
