<svg width="56" height="56" viewBox="0 0 56 56" fill="none" xmlns="http://www.w3.org/2000/svg">
<path d="M5.91085 7.74738C5.91085 8.35241 5.89857 8.92365 5.91085 9.49489C5.95078 11.1748 7.13933 12.5262 8.77628 12.7657C10.6958 13.0483 12.3911 11.7737 12.6276 9.8358C12.7105 9.14785 12.7105 8.44762 12.7473 7.73202H33.134C33.134 8.24492 33.1309 8.73631 33.134 9.23077C33.1432 10.1767 33.349 11.0643 34.0492 11.7461C35.0351 12.7074 36.2021 13.0821 37.5473 12.6429C38.8833 12.2037 39.6572 11.2547 39.8477 9.87265C39.9429 9.1847 39.9336 8.47833 39.9705 7.77502C42.7039 7.25599 45.0103 8.92672 45.0196 11.528C45.0349 15.8308 45.0288 20.1335 45.0318 24.4363C45.0318 24.4977 45.0196 24.5592 45.0103 24.6482H41.6197V17.9161H4.24011C4.24011 18.343 4.24011 18.7699 4.24011 19.1999C4.24011 26.3435 4.24011 33.4841 4.24011 40.6277C4.24011 41.632 4.24012 41.635 5.25976 41.635C11.5312 41.635 17.7995 41.635 24.0709 41.635C24.2214 41.635 24.3719 41.635 24.5438 41.635C24.5531 41.7825 24.5684 41.893 24.5684 42.0036C24.5684 42.882 24.5531 43.7603 24.5746 44.6387C24.5838 44.955 24.4701 45.041 24.1784 45.0226C23.8989 45.0042 23.6194 45.0134 23.3369 45.0134C16.9887 45.0164 10.6436 45.0134 4.2954 45.0318C2.76287 45.0349 0.763514 43.4993 0.797297 41.3894C0.837223 39.1105 0.806511 36.8317 0.806511 34.5528C0.806511 26.9516 0.806511 19.3504 0.806511 11.7492C0.806511 11.0029 0.861792 10.2811 1.2764 9.62081C1.92136 8.59196 2.82429 7.93165 4.0282 7.76888C4.62401 7.68903 5.24133 7.75352 5.90471 7.75352L5.91085 7.74738Z" fill="white"/>
<path d="M55.2005 41.6749C55.2926 49.0489 49.1594 54.8995 42.2369 55.1667C34.175 55.48 28.3029 49.055 28.0357 42.2523C27.7193 34.1689 34.2763 28.4042 40.9347 28.1033C48.9751 27.7409 55.3724 34.3102 55.2005 41.6749ZM41.4415 51.7423C42.8941 51.73 44.313 51.598 45.6306 50.9837C49.1502 49.3437 51.2632 46.6533 51.73 42.7468C51.9481 40.9348 51.7177 39.1719 50.9683 37.5257C49.8044 34.9766 47.8971 33.1769 45.259 32.1511C43.4531 31.4478 41.5919 31.414 39.7277 31.6751C37.7837 31.9484 36.1283 32.879 34.694 34.2119C33.616 35.2162 32.7899 36.4017 32.2094 37.7438C31.7825 38.7266 31.5583 39.7646 31.4846 40.8457C31.3679 42.5809 31.5583 44.2762 32.3292 45.8272C34.1934 49.5741 37.2216 51.598 41.4415 51.7423Z" fill="white"/>
<path d="M24.5406 28.0265H17.7839V21.2821H24.5406V28.0265Z" fill="white"/>
<path d="M34.8632 28.0234H28.0942C28.0789 27.965 28.0482 27.9067 28.0482 27.8483C28.042 25.7507 28.042 23.6531 28.0359 21.5524C28.0359 21.3435 28.0881 21.2483 28.3123 21.2483C30.3884 21.2667 32.4615 21.2852 34.5376 21.2944C34.7925 21.2944 34.9 21.3804 34.9 21.6506C34.8908 23.6868 34.897 25.72 34.8939 27.7562C34.8939 27.8299 34.8785 27.9036 34.8662 28.0234H34.8632Z" fill="white"/>
<path d="M17.7778 38.275V31.5522C17.9007 31.5399 18.0112 31.5184 18.1218 31.5153C20.1212 31.5061 22.1205 31.503 24.1199 31.4846C24.4761 31.4815 24.5898 31.5737 24.5836 31.9514C24.5591 33.8986 24.5591 35.8426 24.5744 37.7898C24.5744 38.1614 24.4915 38.2873 24.0892 38.2842C22.1297 38.2597 20.1672 38.275 18.2078 38.275H17.7809H17.7778Z" fill="white"/>
<path d="M14.369 28.0234H7.60617C7.60617 27.7009 7.60617 27.3999 7.60617 27.0989C7.60617 25.3053 7.61539 23.5118 7.59082 21.7213C7.58467 21.3251 7.69524 21.2452 8.07914 21.2483C10.1645 21.2698 12.2529 21.2575 14.369 21.2575V28.0234Z" fill="white"/>
<path d="M14.3843 31.543V38.2444H7.65531C7.64303 38.1246 7.62461 38.0018 7.62153 37.8759C7.61232 35.8642 7.60618 33.8557 7.59082 31.844C7.59082 31.6137 7.62461 31.4908 7.89487 31.4908C9.95872 31.497 12.0226 31.4939 14.0864 31.497C14.1724 31.497 14.2615 31.5216 14.3843 31.543Z" fill="white"/>
<path d="M7.62771 5.99055C7.62771 4.87263 7.6185 3.75164 7.63078 2.63372C7.64306 1.67551 8.30951 0.996771 9.21245 0.987558C10.1645 0.978344 11.0122 1.71851 11.0214 2.6368C11.0429 4.90027 11.0367 7.16375 11.0245 9.42723C11.0214 10.1397 10.4379 10.883 9.80212 11.0734C9.0681 11.2914 8.29109 11.0427 7.87955 10.3517C7.69527 10.0445 7.63078 9.633 7.62157 9.26753C7.58778 8.17418 7.60928 7.08083 7.60928 5.98748H7.63078L7.62771 5.99055Z" fill="white"/>
<path d="M34.8539 5.91994C34.8539 4.83887 34.8447 3.75781 34.8539 2.67674C34.8662 1.64789 35.5295 0.984511 36.5093 0.987582C37.4583 0.990654 38.2506 1.78303 38.2537 2.74124C38.2598 4.94022 38.266 7.1392 38.2506 9.34126C38.2445 10.1213 37.8483 10.7018 37.1419 11.0273C36.5 11.3253 35.8367 11.1348 35.2685 10.5697C34.8999 10.2073 34.8354 9.74973 34.8354 9.27062C34.8354 8.1527 34.8354 7.03479 34.8354 5.9138C34.8416 5.9138 34.8477 5.9138 34.8539 5.9138V5.91994Z" fill="white"/>
<path d="M35.548 47.3289L35.4558 46.9419C35.4036 46.7269 35.5265 46.5089 35.7353 46.4413C37.0068 46.0297 41.2236 44.3652 43.5178 39.8106L44.8875 40.5016C42.4398 45.3633 38.1524 47.249 36.4417 47.8295C36.0547 47.9615 35.6401 47.7281 35.5449 47.3289H35.548Z" fill="white"/>
<path d="M46.4938 43.6127L43.6928 41.1834L40.0012 41.515L45.7352 34.8659L46.4938 43.6127Z" fill="white"/>
</svg>
