<svg width="114" height="121" viewBox="0 0 114 121" fill="none" xmlns="http://www.w3.org/2000/svg">
<g filter="url(#filter0_d_827_247)">
<rect x="5" y="4.60202" width="98" height="104" rx="22" fill="#0268B2"/>
</g>
<path d="M34.9103 36.2669C34.9103 36.8719 34.898 37.4431 34.9103 38.0144C34.9503 39.6943 36.1388 41.0457 37.7758 41.2852C39.6953 41.5678 41.3906 40.2932 41.6271 38.3553C41.71 37.6673 41.71 36.9671 41.7468 36.2515H62.1335C62.1335 36.7644 62.1304 37.2558 62.1335 37.7503C62.1427 38.6962 62.3485 39.5838 63.0487 40.2656C64.0346 41.2269 65.2016 41.6016 66.5468 41.1624C67.8828 40.7232 68.6567 39.7742 68.8471 38.3922C68.9423 37.7042 68.9331 36.9978 68.97 36.2945C71.7034 35.7755 74.0098 37.4462 74.019 40.0475C74.0344 44.3503 74.0283 48.653 74.0313 52.9558C74.0313 53.0172 74.019 53.0787 74.0098 53.1677H70.6192V46.4356H33.2396C33.2396 46.8625 33.2396 47.2894 33.2396 47.7194C33.2396 54.863 33.2396 62.0036 33.2396 69.1472C33.2396 70.1515 33.2396 70.1545 34.2592 70.1545C40.5306 70.1545 46.799 70.1545 53.0704 70.1545C53.2209 70.1545 53.3713 70.1545 53.5433 70.1545C53.5525 70.302 53.5679 70.4125 53.5679 70.5231C53.5679 71.4015 53.5525 72.2798 53.574 73.1582C53.5833 73.4745 53.4696 73.5605 53.1779 73.5421C52.8984 73.5237 52.6189 73.5329 52.3363 73.5329C45.9882 73.5359 39.6431 73.5329 33.2949 73.5513C31.7623 73.5544 29.763 72.0188 29.7968 69.9089C29.8367 67.63 29.806 65.3512 29.806 63.0723C29.806 55.4711 29.806 47.8699 29.806 40.2687C29.806 39.5224 29.8613 38.8006 30.2759 38.1403C30.9208 37.1115 31.8238 36.4512 33.0277 36.2884C33.6235 36.2085 34.2408 36.273 34.9042 36.273L34.9103 36.2669Z" fill="white"/>
<path d="M84.2001 70.1944C84.2922 77.5684 78.159 83.419 71.2365 83.6862C63.1746 83.9995 57.3025 77.5745 57.0353 70.7718C56.719 62.6884 63.276 56.9237 69.9344 56.6228C77.9748 56.2604 84.3721 62.8297 84.2001 70.1944ZM70.4411 80.2618C71.8938 80.2495 73.3127 80.1175 74.6302 79.5032C78.1498 77.8632 80.2628 75.1728 80.7296 71.2663C80.9477 69.4543 80.7173 67.6914 79.968 66.0452C78.804 63.4961 76.8968 61.6964 74.2586 60.6706C72.4527 59.9673 70.5916 59.9335 68.7274 60.1946C66.7833 60.4679 65.1279 61.3985 63.6937 62.7314C62.6157 63.7357 61.7895 64.9212 61.2091 66.2633C60.7822 67.2461 60.558 68.2841 60.4843 69.3652C60.3675 71.1004 60.558 72.7957 61.3288 74.3467C63.1931 78.0936 66.2213 80.1175 70.4411 80.2618Z" fill="white"/>
<path d="M53.5402 56.546H46.7836V49.8016H53.5402V56.546Z" fill="white"/>
<path d="M63.8626 56.5429H57.0936C57.0783 56.4845 57.0476 56.4262 57.0476 56.3678C57.0414 54.2702 57.0414 52.1726 57.0353 50.0719C57.0353 49.863 57.0875 49.7678 57.3117 49.7678C59.3878 49.7862 61.4609 49.8047 63.537 49.8139C63.7919 49.8139 63.8994 49.8999 63.8994 50.1701C63.8902 52.2063 63.8963 54.2395 63.8933 56.2757C63.8933 56.3494 63.8779 56.4231 63.8656 56.5429H63.8626Z" fill="white"/>
<path d="M46.7774 66.7945V60.0717C46.9003 60.0594 47.0108 60.0379 47.1214 60.0348C49.1208 60.0256 51.1201 60.0225 53.1195 60.0041C53.4757 60.001 53.5894 60.0932 53.5832 60.4709C53.5587 62.4181 53.5587 64.3621 53.574 66.3093C53.574 66.6809 53.4911 66.8068 53.0888 66.8037C51.1293 66.7792 49.1668 66.7945 47.2074 66.7945H46.7805H46.7774Z" fill="white"/>
<path d="M43.3684 56.5429H36.6056C36.6056 56.2204 36.6056 55.9194 36.6056 55.6184C36.6056 53.8248 36.6148 52.0313 36.5903 50.2408C36.5841 49.8446 36.6947 49.7647 37.0786 49.7678C39.1639 49.7893 41.2524 49.777 43.3684 49.777V56.5429Z" fill="white"/>
<path d="M43.3837 60.0626V66.7639H36.6547C36.6424 66.6441 36.624 66.5213 36.621 66.3954C36.6117 64.3837 36.6056 62.3752 36.5902 60.3635C36.5902 60.1332 36.624 60.0103 36.8943 60.0103C38.9581 60.0165 41.022 60.0134 43.0858 60.0165C43.1718 60.0165 43.2609 60.0411 43.3837 60.0626Z" fill="white"/>
<path d="M36.6271 34.5101C36.6271 33.3921 36.6179 32.2711 36.6302 31.1532C36.6425 30.195 37.3089 29.5163 38.2119 29.5071C39.1639 29.4978 40.0116 30.238 40.0208 31.1563C40.0423 33.4198 40.0362 35.6833 40.0239 37.9467C40.0208 38.6592 39.4373 39.4025 38.8015 39.5929C38.0675 39.8109 37.2905 39.5622 36.879 38.8712C36.6947 38.564 36.6302 38.1525 36.621 37.787C36.5872 36.6937 36.6087 35.6003 36.6087 34.507H36.6302L36.6271 34.5101Z" fill="white"/>
<path d="M63.8534 34.4394C63.8534 33.3584 63.8441 32.2773 63.8534 31.1963C63.8656 30.1674 64.529 29.504 65.5087 29.5071C66.4577 29.5102 67.2501 30.3025 67.2532 31.2608C67.2593 33.4597 67.2655 35.6587 67.2501 37.8608C67.244 38.6409 66.8478 39.2213 66.1414 39.5469C65.4995 39.8448 64.8361 39.6543 64.268 39.0892C63.8994 38.7268 63.8349 38.2692 63.8349 37.7901C63.8349 36.6722 63.8349 35.5543 63.8349 34.4333C63.8411 34.4333 63.8472 34.4333 63.8534 34.4333V34.4394Z" fill="white"/>
<path d="M64.5474 75.8484L64.4553 75.4614C64.4031 75.2464 64.5259 75.0284 64.7348 74.9608C66.0062 74.5493 70.223 72.8847 72.5172 68.3301L73.887 69.0211C71.4392 73.8828 67.1518 75.7685 65.4411 76.349C65.0542 76.481 64.6396 76.2476 64.5443 75.8484H64.5474Z" fill="white"/>
<path d="M75.4932 72.1322L72.6923 69.7029L69.0007 70.0345L74.7346 63.3854L75.4932 72.1322Z" fill="white"/>
<defs>
<filter id="filter0_d_827_247" x="0" y="0.60202" width="114" height="120" filterUnits="userSpaceOnUse" color-interpolation-filters="sRGB">
<feFlood flood-opacity="0" result="BackgroundImageFix"/>
<feColorMatrix in="SourceAlpha" type="matrix" values="0 0 0 0 0 0 0 0 0 0 0 0 0 0 0 0 0 0 127 0" result="hardAlpha"/>
<feMorphology radius="5" operator="erode" in="SourceAlpha" result="effect1_dropShadow_827_247"/>
<feOffset dx="3" dy="4"/>
<feGaussianBlur stdDeviation="6.5"/>
<feComposite in2="hardAlpha" operator="out"/>
<feColorMatrix type="matrix" values="0 0 0 0 0 0 0 0 0 0 0 0 0 0 0 0 0 0 0.14 0"/>
<feBlend mode="normal" in2="BackgroundImageFix" result="effect1_dropShadow_827_247"/>
<feBlend mode="normal" in="SourceGraphic" in2="effect1_dropShadow_827_247" result="shape"/>
</filter>
</defs>
</svg>
