<svg width="44" height="45" viewBox="0 0 44 45" fill="none" xmlns="http://www.w3.org/2000/svg">
<g clip-path="url(#clip0_548_1963)">
<path d="M0.00341711 22.4353C0.00341711 16.6716 8.8571e-05 10.9112 0.00341711 5.14749C0.00674566 2.37212 1.89403 0.481934 4.6667 0.481934C13.3176 0.481934 21.9718 0.481934 30.6227 0.481934C32.8262 0.481934 34.5437 1.78975 35.0663 3.88626C35.1661 4.28227 35.1928 4.70157 35.1928 5.11088C35.1994 16.6883 35.1794 28.2656 35.2061 39.8463C35.2127 42.4487 33.2223 44.4886 30.5761 44.4819C21.9119 44.4586 13.2444 44.4719 4.58016 44.4686C2.56307 44.4686 0.972023 43.417 0.293 41.5568C0.0966163 41.021 0.0167313 40.4154 0.0134027 39.8397C-0.00656851 34.0393 8.8571e-05 28.2357 8.8571e-05 22.4353H0.00341711ZM4.38711 26.3322C4.38711 27.1974 4.38378 28.0593 4.38711 28.9245C4.39376 29.7432 4.82647 30.1858 5.6453 30.1891C7.38612 30.1957 9.13028 30.1991 10.8711 30.1891C11.64 30.1891 12.1027 29.7432 12.1093 28.9844C12.1193 27.2174 12.1193 25.447 12.1027 23.6799C12.096 22.8713 11.6999 22.4719 10.8911 22.4653C9.13694 22.4487 7.37947 22.4487 5.62532 22.4586C4.8065 22.462 4.38711 22.9079 4.38378 23.7365C4.38045 24.6017 4.38378 25.4636 4.38378 26.3289L4.38711 26.3322ZM23.1634 9.26063C21.7787 9.26063 20.3974 9.26063 19.0127 9.26063C18.1872 9.26063 17.3618 9.25065 16.5396 9.26729C15.8506 9.28393 15.4013 9.75647 15.4079 10.4021C15.4146 11.021 15.8706 11.4603 16.5463 11.4936C16.6927 11.5002 16.8392 11.4969 16.9856 11.4969C19.7783 11.4969 22.5743 11.4969 25.3669 11.4969C26.7915 11.4969 28.2128 11.5069 29.6374 11.4936C30.596 11.4836 31.1153 10.5884 30.6393 9.79308C30.3963 9.38709 30.0069 9.25731 29.5509 9.25731C27.4206 9.26064 25.2937 9.25731 23.1634 9.25731V9.26063ZM23.0769 15.8996C23.7293 15.8996 24.3817 15.8996 25.0307 15.8996C26.5619 15.8996 28.0897 15.9029 29.6208 15.8996C30.0968 15.8996 30.4596 15.6966 30.6926 15.264C30.9089 14.8646 30.8457 14.4886 30.5994 14.1392C30.3431 13.7731 29.9603 13.6533 29.5243 13.6533C26.8647 13.6566 24.2019 13.6533 21.5424 13.6533C19.9048 13.6533 18.2705 13.6467 16.6328 13.6566C15.8606 13.66 15.368 14.1625 15.4079 14.8646C15.4412 15.4803 15.9505 15.8962 16.6927 15.8962C18.8197 15.8996 20.9499 15.8962 23.0769 15.8962V15.8996ZM23.0669 24.6849C25.2371 24.6849 27.404 24.6982 29.5742 24.6683C29.8871 24.665 30.2565 24.5185 30.4995 24.3189C30.829 24.0427 30.9156 23.6234 30.7392 23.1874C30.5461 22.7115 30.1866 22.4819 29.6907 22.4719C28.7986 22.4586 27.9066 22.462 27.0179 22.462C23.5728 22.462 20.1245 22.462 16.6794 22.4719C16.4231 22.4719 16.1402 22.5285 15.9205 22.6516C15.4778 22.9012 15.3081 23.427 15.4479 23.8962C15.591 24.3821 15.9871 24.6816 16.523 24.6816C18.7065 24.6849 20.8867 24.6816 23.0702 24.6816L23.0669 24.6849ZM23.0769 29.0909C24.0887 29.0909 25.0973 29.0909 26.1092 29.0909C27.2808 29.0909 28.4491 29.0909 29.6208 29.0843C30.0968 29.0843 30.4629 28.8912 30.6959 28.4553C30.9089 28.0526 30.8424 27.6766 30.5994 27.3272C30.3331 26.9378 29.9237 26.8513 29.4777 26.8513C26.2323 26.8513 22.987 26.8513 19.7417 26.8513C18.6899 26.8513 17.6414 26.8447 16.5895 26.858C15.8373 26.868 15.3413 27.4037 15.4112 28.1059C15.4678 28.6949 15.9538 29.0876 16.6561 29.0876C18.7964 29.0909 20.9399 29.0876 23.0802 29.0876L23.0769 29.0909ZM7.69568 13.1675C7.44937 12.9279 7.20971 12.6982 6.97338 12.4653C6.73706 12.2323 6.51072 11.9861 6.26108 11.7665C5.77844 11.3472 5.11939 11.3705 4.7133 11.7997C4.29391 12.2457 4.29058 12.8779 4.71663 13.3505C4.91302 13.5668 5.12604 13.7698 5.33241 13.9761C6.11462 14.7681 6.8935 15.5601 7.68236 16.3588C9.44316 14.5984 11.154 12.8879 12.8682 11.1741C12.9348 11.1076 12.9881 11.031 13.038 10.9545C13.2776 10.5685 13.2477 10.0493 12.9648 9.68326C12.6818 9.31388 12.1925 9.15415 11.7498 9.3405C11.5235 9.43368 11.3138 9.59674 11.1374 9.76979C9.98571 10.8946 8.84403 12.0294 7.69568 13.1641V13.1675Z" fill="white"/>
<path d="M37.4096 20.3089H43.9968V20.7249C43.9968 27.061 43.9968 33.3937 43.9901 39.7299C43.9901 39.9029 43.9469 40.1059 43.847 40.2423C42.8385 41.6134 41.8099 42.9711 40.7881 44.3355C40.7648 44.3655 40.7282 44.3854 40.6782 44.4287C39.7562 43.2007 38.8609 41.9628 37.9155 40.7615C37.5428 40.2856 37.393 39.813 37.3963 39.2074C37.4163 33.0177 37.4096 26.8313 37.4096 20.6417C37.4096 20.5385 37.4096 20.4353 37.4096 20.3089Z" fill="white"/>
<path d="M43.9736 19.1475H37.4796C37.4563 19.1109 37.4297 19.0876 37.4297 19.0676C37.4297 17.5801 37.3764 16.0893 37.4396 14.6017C37.4896 13.427 38.3949 12.635 39.5732 12.6051C40.3188 12.5851 41.0644 12.5918 41.8067 12.6017C42.9517 12.6184 43.8804 13.3538 43.9503 14.4986C44.0435 16.0327 43.9736 17.5734 43.9736 19.1475Z" fill="white"/>
<path d="M6.65063 24.6982H9.85935V27.9328H6.65063V24.6982Z" fill="white"/>
</g>
<defs>
<clipPath id="clip0_548_1963">
<rect width="44" height="44" fill="white" transform="translate(0.000244141 0.481934)"/>
</clipPath>
</defs>
</svg>
