<svg width="114" height="120" viewBox="0 0 114 120" fill="none" xmlns="http://www.w3.org/2000/svg">
<g filter="url(#filter0_d_827_266)">
<rect x="5" y="4.00143" width="98" height="104" rx="22" fill="#0268B2"/>
</g>
<path d="M69.4095 51.8284H75.9967V52.2444C75.9967 58.5805 75.9967 64.9132 75.99 71.2494C75.99 71.4224 75.9467 71.6254 75.8469 71.7618C74.8383 73.1329 73.8098 74.4906 72.788 75.855C72.7647 75.885 72.728 75.9049 72.6781 75.9482C71.7561 74.7202 70.8607 73.4823 69.9154 72.281C69.5426 71.8051 69.3928 71.3325 69.3962 70.7269C69.4161 64.5372 69.4095 58.3509 69.4095 52.1612C69.4095 52.058 69.4095 51.9548 69.4095 51.8284Z" fill="white"/>
<path d="M75.9734 50.667H69.4794C69.4561 50.6304 69.4294 50.6071 69.4294 50.5871C69.4294 49.0996 69.3762 47.6088 69.4394 46.1212C69.4894 44.9465 70.3947 44.1545 71.573 44.1246C72.3186 44.1046 73.0642 44.1113 73.8065 44.1212C74.9515 44.1379 75.8802 44.8733 75.9501 46.0181C76.0433 47.5522 75.9734 49.0929 75.9734 50.667Z" fill="white"/>
<path d="M32.0031 53.9548C32.0031 48.1911 31.9998 42.4307 32.0031 36.667C32.0064 33.8916 33.8937 32.0014 36.6664 32.0014C45.3173 32.0014 53.9715 32.0014 62.6224 32.0014C64.8259 32.0014 66.5434 33.3093 67.066 35.4058C67.1658 35.8018 67.1925 36.2211 67.1925 36.6304C67.1991 48.2078 67.1791 59.7851 67.2058 71.3658C67.2124 73.9682 65.222 76.0081 62.5758 76.0014C53.9116 75.9781 45.2441 75.9914 36.5799 75.9881C34.5628 75.9881 32.9717 74.9365 32.2927 73.0763C32.0963 72.5405 32.0164 71.9349 32.0131 71.3592C31.9931 65.5588 31.9998 59.7552 31.9998 53.9548H32.0031ZM36.3868 57.8517C36.3868 58.7169 36.3835 59.5788 36.3868 60.444C36.3935 61.2627 36.8262 61.7053 37.645 61.7086C39.3858 61.7152 41.13 61.7186 42.8708 61.7086C43.6397 61.7086 44.1024 61.2627 44.109 60.5039C44.119 58.7369 44.119 56.9665 44.1024 55.1994C44.0957 54.3908 43.6996 53.9914 42.8908 53.9848C41.1366 53.9682 39.3792 53.9682 37.625 53.9781C36.8062 53.9815 36.3868 54.4274 36.3835 55.256C36.3801 56.1212 36.3835 56.9831 36.3835 57.8484L36.3868 57.8517ZM55.1631 40.7801C53.7784 40.7801 52.3971 40.7801 51.0124 40.7801C50.1869 40.7801 49.3615 40.7702 48.5393 40.7868C47.8503 40.8034 47.4009 41.276 47.4076 41.9216C47.4143 42.5405 47.8703 42.9798 48.546 43.0131C48.6924 43.0197 48.8389 43.0164 48.9853 43.0164C51.778 43.0164 54.574 43.0164 57.3666 43.0164C58.7912 43.0164 60.2125 43.0264 61.6371 43.0131C62.5957 43.0031 63.115 42.1079 62.639 41.3126C62.396 40.9066 62.0066 40.7768 61.5506 40.7768C59.4203 40.7801 57.2934 40.7768 55.1631 40.7768V40.7801ZM55.0766 47.4191C55.729 47.4191 56.3814 47.4191 57.0304 47.4191C58.5615 47.4191 60.0893 47.4224 61.6205 47.4191C62.0965 47.4191 62.4593 47.2161 62.6923 46.7835C62.9086 46.3841 62.8454 46.0081 62.5991 45.6587C62.3428 45.2926 61.96 45.1728 61.5239 45.1728C58.8644 45.1761 56.2016 45.1728 53.5421 45.1728C51.9045 45.1728 50.2702 45.1662 48.6325 45.1761C47.8603 45.1795 47.3677 45.682 47.4076 46.3841C47.4409 46.9998 47.9502 47.4157 48.6924 47.4157C50.8194 47.4191 52.9496 47.4157 55.0766 47.4157V47.4191ZM55.0666 56.2044C57.2368 56.2044 59.4037 56.2177 61.5739 56.1878C61.8868 56.1845 62.2562 56.038 62.4992 55.8384C62.8287 55.5622 62.9153 55.1429 62.7389 54.7069C62.5458 54.2311 62.1863 54.0014 61.6904 53.9914C60.7983 53.9781 59.9063 53.9815 59.0176 53.9815C55.5725 53.9815 52.1241 53.9815 48.6791 53.9914C48.4228 53.9914 48.1399 54.048 47.9202 54.1711C47.4775 54.4207 47.3077 54.9465 47.4475 55.4157C47.5907 55.9016 47.9868 56.2011 48.5227 56.2011C50.7062 56.2044 52.8864 56.2011 55.0699 56.2011L55.0666 56.2044ZM55.0766 60.6104C56.0884 60.6104 57.097 60.6104 58.1089 60.6104C59.2805 60.6104 60.4488 60.6104 61.6205 60.6038C62.0965 60.6038 62.4626 60.4107 62.6956 59.9748C62.9086 59.5721 62.8421 59.1961 62.5991 58.8467C62.3328 58.4573 61.9234 58.3708 61.4774 58.3708C58.232 58.3708 54.9867 58.3708 51.7414 58.3708C50.6895 58.3708 49.6411 58.3642 48.5892 58.3775C47.837 58.3875 47.341 58.9232 47.4109 59.6254C47.4675 60.2144 47.9535 60.6071 48.6558 60.6071C50.7961 60.6104 52.9396 60.6071 55.0799 60.6071L55.0766 60.6104ZM39.6954 44.687C39.4491 44.4474 39.2094 44.2177 38.9731 43.9848C38.7368 43.7518 38.5104 43.5056 38.2608 43.286C37.7781 42.8667 37.1191 42.89 36.713 43.3192C36.2936 43.7652 36.2903 44.3974 36.7163 44.87C36.9127 45.0863 37.1257 45.2893 37.3321 45.4956C38.1143 46.2876 38.8932 47.0796 39.6821 47.8783C41.4429 46.1179 43.1537 44.4074 44.8679 42.6936C44.9345 42.6271 44.9878 42.5505 45.0377 42.474C45.2773 42.088 45.2474 41.5688 44.9645 41.2028C44.6815 40.8334 44.1922 40.6736 43.7495 40.86C43.5232 40.9532 43.3135 41.1162 43.1371 41.2893C41.9854 42.4141 40.8437 43.5489 39.6954 44.6836V44.687Z" fill="white"/>
<path d="M38.6505 56.2177H41.8592V59.4523H38.6505V56.2177Z" fill="white"/>
<defs>
<filter id="filter0_d_827_266" x="0" y="0.00143433" width="114" height="120" filterUnits="userSpaceOnUse" color-interpolation-filters="sRGB">
<feFlood flood-opacity="0" result="BackgroundImageFix"/>
<feColorMatrix in="SourceAlpha" type="matrix" values="0 0 0 0 0 0 0 0 0 0 0 0 0 0 0 0 0 0 127 0" result="hardAlpha"/>
<feMorphology radius="5" operator="erode" in="SourceAlpha" result="effect1_dropShadow_827_266"/>
<feOffset dx="3" dy="4"/>
<feGaussianBlur stdDeviation="6.5"/>
<feComposite in2="hardAlpha" operator="out"/>
<feColorMatrix type="matrix" values="0 0 0 0 0 0 0 0 0 0 0 0 0 0 0 0 0 0 0.14 0"/>
<feBlend mode="normal" in2="BackgroundImageFix" result="effect1_dropShadow_827_266"/>
<feBlend mode="normal" in="SourceGraphic" in2="effect1_dropShadow_827_266" result="shape"/>
</filter>
</defs>
</svg>
