<svg width="114" height="121" viewBox="0 0 114 121" fill="none" xmlns="http://www.w3.org/2000/svg">
<g filter="url(#filter0_d_827_298)">
<rect x="5" y="4.85852" width="98" height="104" rx="22" fill="#0268B2"/>
</g>
<path d="M77.6006 53.6837C77.712 53.7273 77.7289 53.7374 77.7491 53.7374C79.7979 53.8985 80.2434 54.3818 80.2434 56.4492C80.2434 58.2078 80.2434 59.9665 80.2434 61.7251C80.2434 63.3126 79.5751 64.0006 77.9888 64.061C77.8808 64.0644 77.7761 64.0845 77.604 64.108C77.604 64.3363 77.604 64.5511 77.604 64.7658C77.604 66.8534 77.6074 68.9443 77.604 71.0319C77.5939 74.5727 75.0962 77.0562 71.5488 77.0562C59.624 77.0562 47.7025 77.0562 35.7777 77.0562C32.3079 77.0562 29.7866 74.5525 29.7832 71.0856C29.7765 63.0005 29.8271 54.9188 29.7529 46.8371C29.7259 43.9944 31.3865 41.0174 35.3355 40.5408C39.8516 39.9971 44.3779 39.5105 48.8974 39.0003C54.5914 38.3559 60.2821 37.7149 65.9762 37.0739C67.2014 36.9363 68.4266 36.7718 69.6586 36.6812C72.8415 36.4463 75.4573 38.6412 75.8185 41.7893C75.8488 42.0444 75.9501 42.3297 76.1155 42.521C77.1044 43.6688 77.6074 44.9844 77.604 46.4981C77.5972 48.7165 77.604 50.9316 77.604 53.1501C77.604 53.3313 77.604 53.5092 77.604 53.687L77.6006 53.6837ZM76.3011 53.7542C76.3011 53.4823 76.3011 53.3011 76.3011 53.1199C76.3011 50.9585 76.3045 48.7937 76.3011 46.6323C76.2944 43.8198 74.3671 41.8934 71.542 41.8934C59.6543 41.89 47.7633 41.89 35.8756 41.8934C33.0066 41.8934 31.0827 43.8064 31.0827 46.6525C31.0827 54.7912 31.0827 62.9267 31.0861 71.0654C31.0861 71.4648 31.1097 71.8776 31.2008 72.2636C31.7004 74.4082 33.4893 75.7607 35.8115 75.7607C47.6991 75.7607 59.5902 75.7607 71.4779 75.7607C71.6264 75.7607 71.7715 75.7607 71.92 75.754C74.0262 75.6869 76.0075 74.1934 76.1661 72.1293C76.3686 69.4779 76.2168 66.7963 76.2168 64.0644C76.0379 64.0644 75.8387 64.0644 75.6396 64.0644C74.1848 64.0644 72.7267 64.0879 71.272 64.0577C68.8249 64.004 66.82 62.383 66.28 60.0638C65.7501 57.785 66.793 55.4222 68.9329 54.3818C69.6822 54.016 70.5801 53.8381 71.4239 53.7911C73.017 53.7005 74.6202 53.7642 76.2978 53.7642L76.3011 53.7542ZM74.5899 62.7622C75.7307 62.7622 76.8716 62.7622 78.0124 62.7622C78.7482 62.7622 78.944 62.5743 78.9473 61.8661C78.9507 59.9094 78.9507 57.9494 78.9473 55.9928C78.9473 55.2175 78.782 55.053 78.0124 55.053C75.8218 55.053 73.6313 55.0497 71.4408 55.053C69.1895 55.0564 67.4444 56.7311 67.4444 58.8791C67.4444 61.0573 69.1456 62.7387 71.3867 62.7622C72.4533 62.7756 73.5233 62.7622 74.5899 62.7622ZM45.1441 40.4737C45.1441 40.514 45.1441 40.5576 45.1474 40.5979C45.3972 40.5979 45.647 40.5979 45.8967 40.5979C53.7071 40.5979 61.5208 40.5912 69.3312 40.6046C71.0999 40.6046 72.909 40.3596 74.6776 41.3732C74.5831 41.0375 74.546 40.8429 74.4751 40.665C73.7393 38.7218 71.7648 37.5001 69.6654 37.7116C68.2714 37.8525 66.8841 38.0237 65.4935 38.1814C60.1134 38.7889 54.7332 39.393 49.353 40.0005C47.9489 40.1582 46.5482 40.3193 45.1441 40.4771V40.4737Z" fill="white"/>
<path d="M53.4632 51.81C53.0478 51.0057 52.4743 50.5049 51.7537 50.3112C50.7757 50.048 49.761 49.8798 48.75 49.7811C47.8971 49.697 47.0257 49.7518 46.1618 49.7665C45.6103 49.7774 45.3419 49.5581 45.3566 48.9878C45.375 48.3078 45.375 47.6315 45.3566 46.9516C45.3419 46.4252 45.5625 46.1729 46.0956 46.1729C51.0735 46.1729 56.0551 46.1729 61.0331 46.1729C61.5368 46.1729 61.761 46.4288 61.7537 46.9187C61.7463 47.4195 61.739 47.9167 61.7537 48.4175C61.7721 48.9768 61.5184 49.2218 60.9596 49.2145C59.8566 49.2035 58.75 49.2145 57.6471 49.2145C57.4522 49.2145 57.2537 49.2145 57.0809 49.2145C57.4081 50.0406 57.6985 50.8339 58.0404 51.6053C58.0919 51.7223 58.3603 51.799 58.5294 51.8027C59.3125 51.8246 60.0956 51.8063 60.8787 51.8137C61.6287 51.8173 61.7684 51.9562 61.7757 52.6764C61.7794 53.1151 61.7757 53.5538 61.7757 53.9925C61.7684 54.7126 61.625 54.8479 60.875 54.8552C60.0919 54.8589 59.3088 54.8369 58.5257 54.8735C58.364 54.8808 58.1066 55.0526 58.0735 55.1915C57.239 58.7412 54.7463 60.3863 51.3603 61.0151C51.1875 61.048 51.0184 61.0882 50.7904 61.1357C51.8419 62.3238 52.864 63.4424 53.8493 64.594C55.5772 66.6192 57.2831 68.6591 58.9779 70.71C59.1287 70.8928 59.239 71.2583 59.1544 71.4411C59.0735 71.6239 58.7206 71.7701 58.4816 71.7811C57.3971 71.8176 56.3125 71.8176 55.2316 71.7811C54.989 71.7738 54.6801 71.6312 54.5221 71.4484C51.5404 68.0742 48.5772 64.689 45.614 61.3002C45.5 61.1722 45.375 60.9968 45.3713 60.8432C45.3493 60.0463 45.3419 59.2457 45.3713 58.4488C45.3897 57.9808 45.75 57.9041 46.1471 57.8931C47.3309 57.8638 48.5184 57.8748 49.6949 57.7651C50.8934 57.6518 52.0257 57.268 52.8713 56.3577C53.2353 55.9629 53.4779 55.4584 53.8677 54.8625C53.2537 54.8625 52.8566 54.8625 52.4596 54.8625C50.4118 54.8625 48.364 54.8625 46.3162 54.8625C45.4853 54.8625 45.364 54.7419 45.3603 53.9376C45.3603 53.4989 45.3566 53.0603 45.3603 52.6216C45.3677 51.9745 45.5221 51.8173 46.1912 51.8173C48.3603 51.8137 50.5294 51.8173 52.6949 51.8173C52.9118 51.8173 53.1324 51.8173 53.4559 51.8173L53.4632 51.81Z" fill="white"/>
<path d="M71.353 60.1544C70.6476 60.1645 70.0771 59.6241 70.0636 58.9261C70.0468 58.2313 70.6003 57.6641 71.3024 57.6473C71.9977 57.6306 72.5816 58.1843 72.5951 58.8757C72.6086 59.5671 72.0483 60.141 71.3564 60.1544H71.353Z" fill="white"/>
<defs>
<filter id="filter0_d_827_298" x="0" y="0.858521" width="114" height="120" filterUnits="userSpaceOnUse" color-interpolation-filters="sRGB">
<feFlood flood-opacity="0" result="BackgroundImageFix"/>
<feColorMatrix in="SourceAlpha" type="matrix" values="0 0 0 0 0 0 0 0 0 0 0 0 0 0 0 0 0 0 127 0" result="hardAlpha"/>
<feMorphology radius="5" operator="erode" in="SourceAlpha" result="effect1_dropShadow_827_298"/>
<feOffset dx="3" dy="4"/>
<feGaussianBlur stdDeviation="6.5"/>
<feComposite in2="hardAlpha" operator="out"/>
<feColorMatrix type="matrix" values="0 0 0 0 0 0 0 0 0 0 0 0 0 0 0 0 0 0 0.14 0"/>
<feBlend mode="normal" in2="BackgroundImageFix" result="effect1_dropShadow_827_298"/>
<feBlend mode="normal" in="SourceGraphic" in2="effect1_dropShadow_827_298" result="shape"/>
</filter>
</defs>
</svg>
