<svg width="56" height="45" viewBox="0 0 56 45" fill="none" xmlns="http://www.w3.org/2000/svg">
<path d="M50.6008 19.1642C50.7121 19.2078 50.729 19.2179 50.7493 19.2179C52.7981 19.379 53.2436 19.8623 53.2436 21.9297C53.2436 23.6883 53.2436 25.447 53.2436 27.2056C53.2436 28.7931 52.5753 29.4811 50.9889 29.5415C50.8809 29.5449 50.7763 29.565 50.6041 29.5885C50.6041 29.8167 50.6041 30.0315 50.6041 30.2463C50.6041 32.3339 50.6075 34.4248 50.6041 36.5123C50.594 40.0531 48.0963 42.5367 44.5489 42.5367C32.6241 42.5367 20.7027 42.5367 8.77786 42.5367C5.30808 42.5367 2.78676 40.033 2.78339 36.566C2.77664 28.481 2.82727 20.3992 2.75301 12.3175C2.72601 9.47483 4.38664 6.49788 8.3357 6.0213C12.8518 5.4776 17.378 4.99095 21.8975 4.48081C27.5916 3.83642 33.2823 3.19538 38.9763 2.55435C40.2016 2.41675 41.4268 2.25229 42.6588 2.16168C45.8416 1.92674 48.4575 4.12169 48.8186 7.26981C48.849 7.52488 48.9503 7.81015 49.1156 8.00146C50.1046 9.14928 50.6075 10.4649 50.6041 11.9785C50.5974 14.197 50.6041 16.4121 50.6041 18.6305C50.6041 18.8118 50.6041 18.9896 50.6041 19.1675L50.6008 19.1642ZM49.3013 19.2346C49.3013 18.9628 49.3013 18.7816 49.3013 18.6003C49.3013 16.4389 49.3047 14.2742 49.3013 12.1128C49.2945 9.3003 47.3673 7.37385 44.5422 7.37385C32.6545 7.37049 20.7634 7.37049 8.87574 7.37385C6.00676 7.37385 4.08286 9.28688 4.08286 12.1329C4.08286 20.2717 4.08286 28.4071 4.08624 36.5459C4.08624 36.9453 4.10987 37.3581 4.201 37.7441C4.70054 39.8887 6.48943 41.2412 8.81161 41.2412C20.6993 41.2412 32.5904 41.2412 44.478 41.2412C44.6265 41.2412 44.7717 41.2412 44.9202 41.2345C47.0264 41.1674 49.0076 39.6739 49.1663 37.6098C49.3688 34.9584 49.2169 32.2768 49.2169 29.5449C49.038 29.5449 48.8389 29.5449 48.6397 29.5449C47.185 29.5449 45.7269 29.5684 44.2721 29.5382C41.8251 29.4845 39.8202 27.8634 39.2801 25.5443C38.7502 23.2654 39.7932 20.9027 41.9331 19.8623C42.6824 19.4964 43.5802 19.3185 44.424 19.2716C46.0172 19.1809 47.6204 19.2447 49.2979 19.2447L49.3013 19.2346ZM47.59 28.2427C48.7309 28.2427 49.8717 28.2427 51.0125 28.2427C51.7484 28.2427 51.9441 28.0547 51.9475 27.3466C51.9509 25.3899 51.9509 23.4299 51.9475 21.4732C51.9475 20.6979 51.7821 20.5335 51.0125 20.5335C48.822 20.5335 46.6315 20.5301 44.4409 20.5335C42.1896 20.5368 40.4446 22.2116 40.4446 24.3596C40.4446 26.5377 42.1457 28.2192 44.3869 28.2427C45.4535 28.2561 46.5234 28.2427 47.59 28.2427ZM18.1442 5.95418C18.1442 5.99445 18.1442 6.03808 18.1476 6.07836C18.3974 6.07836 18.6471 6.07836 18.8969 6.07836C26.7073 6.07836 34.521 6.07164 42.3314 6.08507C44.1 6.08507 45.9091 5.84007 47.6778 6.85364C47.5833 6.51802 47.5461 6.32336 47.4753 6.14548C46.7395 4.20224 44.7649 2.98059 42.6655 3.19203C41.2715 3.33299 39.8843 3.50416 38.4937 3.6619C33.1135 4.26937 27.7333 4.87348 22.3532 5.48095C20.9491 5.6387 19.5483 5.79979 18.1442 5.95753V5.95418Z" fill="white"/>
<path d="M26.4634 17.2905C26.0479 16.4862 25.4744 15.9854 24.7538 15.7916C23.7759 15.5284 22.7612 15.3603 21.7501 15.2616C20.8972 15.1775 20.0259 15.2323 19.1619 15.2469C18.6104 15.2579 18.342 15.0386 18.3567 14.4683C18.3751 13.7883 18.3751 13.112 18.3567 12.432C18.342 11.9056 18.5626 11.6534 19.0957 11.6534C24.0737 11.6534 29.0553 11.6534 34.0332 11.6534C34.5369 11.6534 34.7612 11.9093 34.7538 12.3991C34.7464 12.9 34.7391 13.3971 34.7538 13.898C34.7722 14.4573 34.5185 14.7022 33.9597 14.6949C32.8567 14.684 31.7501 14.6949 30.6472 14.6949C30.4523 14.6949 30.2538 14.6949 30.081 14.6949C30.4082 15.5211 30.6987 16.3144 31.0406 17.0858C31.092 17.2027 31.3604 17.2795 31.5295 17.2832C32.3126 17.3051 33.0957 17.2868 33.8788 17.2941C34.6288 17.2978 34.7685 17.4367 34.7759 18.1569C34.7795 18.5956 34.7759 19.0342 34.7759 19.4729C34.7685 20.1931 34.6251 20.3284 33.8751 20.3357C33.092 20.3393 32.3089 20.3174 31.5259 20.3539C31.3641 20.3613 31.1067 20.5331 31.0737 20.672C30.2391 24.2217 27.7464 25.8667 24.3604 26.4955C24.1876 26.5284 24.0185 26.5686 23.7906 26.6162C24.842 27.8043 25.8641 28.9229 26.8494 30.0744C28.5773 32.0997 30.2832 34.1396 31.9781 36.1904C32.1288 36.3732 32.2391 36.7388 32.1545 36.9216C32.0737 37.1044 31.7207 37.2506 31.4817 37.2616C30.3972 37.2981 29.3126 37.2981 28.2317 37.2616C27.9891 37.2542 27.6803 37.1117 27.5222 36.9289C24.5406 33.5547 21.5773 30.1695 18.6141 26.7807C18.5001 26.6527 18.3751 26.4772 18.3714 26.3237C18.3494 25.5268 18.342 24.7262 18.3714 23.9292C18.3898 23.4613 18.7501 23.3845 19.1472 23.3736C20.331 23.3443 21.5185 23.3553 22.695 23.2456C23.8935 23.1323 25.0259 22.7484 25.8714 21.8382C26.2354 21.4433 26.4781 20.9389 26.8678 20.343C26.2538 20.343 25.8567 20.343 25.4597 20.343C23.4119 20.343 21.3641 20.343 19.3163 20.343C18.4854 20.343 18.3641 20.2223 18.3604 19.4181C18.3604 18.9794 18.3567 18.5407 18.3604 18.102C18.3678 17.455 18.5222 17.2978 19.1913 17.2978C21.3604 17.2941 23.5295 17.2978 25.695 17.2978C25.9119 17.2978 26.1325 17.2978 26.456 17.2978L26.4634 17.2905Z" fill="white"/>
<path d="M44.3532 25.6349C43.6478 25.645 43.0774 25.1046 43.0639 24.4065C43.047 23.7118 43.6005 23.1446 44.3026 23.1278C44.9979 23.111 45.5818 23.6648 45.5953 24.3562C45.6088 25.0476 45.0485 25.6215 44.3566 25.6349H44.3532Z" fill="white"/>
</svg>
