<svg width="46" height="46" viewBox="0 0 46 46" fill="none" xmlns="http://www.w3.org/2000/svg">
<g clip-path="url(#clip0_548_1937)">
<path d="M22.9788 0.293854C27.682 0.293854 32.381 0.258154 37.0843 0.302779C41.5896 0.347404 45.3032 3.80139 45.9056 8.42456C45.9615 8.87081 45.996 9.32152 45.996 9.77224C46.0003 15.7475 45.996 21.7229 46.0003 27.6982C46.0003 29.9116 45.4581 31.9554 44.1499 33.7136C42.6654 35.7084 40.6645 36.8552 38.2719 37.2479C37.6824 37.3461 37.0757 37.3774 36.4775 37.3818C34.4981 37.3997 32.5187 37.3952 30.535 37.3818C30.1305 37.3818 29.8594 37.5068 29.5926 37.837C27.88 40.0102 26.12 42.1433 24.4246 44.33C23.4779 45.5571 22.5743 45.6196 21.6061 44.3657C19.8805 42.1344 18.0948 39.9567 16.3477 37.7388C16.1283 37.4621 15.9002 37.3684 15.5645 37.3684C13.1763 37.3684 10.7795 37.4666 8.39991 37.306C3.52021 36.9802 0.516652 33.1558 0.08204 29.0235C0.030403 28.5237 0.00458444 28.0239 0.000281351 27.5197C0.000281351 21.6068 0.0174937 15.6851 0.000281351 9.75885C-0.0126279 4.90809 3.33517 1.28007 7.20795 0.503592C7.90505 0.365254 8.62797 0.298317 9.33798 0.298317C13.882 0.280467 18.4304 0.284929 22.9788 0.284929V0.293854ZM22.9874 41.9113C23.0993 41.7774 23.1853 41.6837 23.2671 41.5855C24.8979 39.564 26.546 37.5559 28.1511 35.512C28.6115 34.9274 29.1322 34.7088 29.8379 34.7132C32.2261 34.74 34.6143 34.7311 37.0068 34.7222C37.9062 34.7222 38.8012 34.5927 39.6188 34.1911C42.149 32.9461 43.4442 30.8621 43.4529 27.9481C43.4615 23.8827 43.4485 19.8129 43.4485 15.7475C43.4485 13.7082 43.4572 11.6688 43.4658 9.62497C43.4744 6.15314 41.1163 3.34621 37.7943 2.95798C36.9122 2.85534 36.0085 2.90889 35.1135 2.90889C26.3223 2.90889 17.5354 2.92674 8.74415 2.92228C5.7492 2.92228 3.5159 5.36327 2.84032 7.50082C2.55631 8.39778 2.55201 9.32152 2.55201 10.2497C2.56062 16.1715 2.5348 22.0932 2.56922 28.015C2.58644 30.8844 3.94191 32.9372 6.39897 34.2045C7.2725 34.6552 8.22778 34.7445 9.19598 34.74C11.5713 34.7266 13.9466 34.7311 16.3262 34.7222C16.8813 34.7222 17.3417 34.8605 17.7118 35.3291C18.9726 36.9266 20.2506 38.5108 21.5243 40.0995C22.002 40.6975 22.4882 41.291 22.9917 41.9113H22.9874Z" fill="white"/>
<path d="M25.5476 14.9757C25.5476 16.3011 25.5777 17.6264 25.539 18.9473C25.5089 20.0362 24.9624 20.8394 23.9942 21.2544C23.0346 21.6695 22.1094 21.5133 21.3091 20.8037C20.7712 20.3262 20.4657 19.706 20.4614 18.9607C20.4571 16.2475 20.4269 13.5343 20.4786 10.8211C20.5173 8.84866 22.4709 7.62593 24.1104 8.50058C25.0398 8.99592 25.5003 9.84826 25.5175 10.9237C25.539 12.2714 25.5218 13.6235 25.5218 14.9757C25.5304 14.9757 25.5347 14.9757 25.5433 14.9757H25.5476Z" fill="white"/>
<path d="M23.0003 24.1328C24.4031 24.1328 25.5305 25.3421 25.5305 26.8505C25.5305 28.2428 24.3902 29.4476 23.0261 29.4164C21.6749 29.3807 20.4787 28.4123 20.4744 26.7746C20.4701 25.3287 21.619 24.1372 23.0003 24.1372V24.1328Z" fill="white"/>
</g>
<defs>
<clipPath id="clip0_548_1937">
<rect width="46" height="45" fill="white" transform="translate(0.000244141 0.28064)"/>
</clipPath>
</defs>
</svg>
