<svg width="46" height="42" viewBox="0 0 46 42" fill="none" xmlns="http://www.w3.org/2000/svg">
<g clip-path="url(#clip0_548_1933)">
<path d="M23.0076 3.97301C29.2472 3.97301 35.4868 3.97301 41.7264 3.96347C42.2193 3.96347 42.3837 4.10181 42.3837 4.60745C42.3547 15.0065 42.3402 25.4056 42.3257 35.8047C42.3257 36.5583 42.3063 37.312 42.3788 38.061C42.4368 38.6716 42.1903 38.7813 41.6394 38.7765C36.724 38.7574 31.8087 38.767 26.8934 38.767C19.3489 38.767 11.8092 38.7574 4.26464 38.7765C3.62183 38.7765 3.67016 38.4474 3.67016 38.0371C3.67016 30.4334 3.675 22.8249 3.67016 15.2212C3.67016 11.6769 3.67016 8.13264 3.646 4.5836C3.646 4.09227 3.77649 3.96347 4.29364 3.96347C10.5332 3.98732 16.7728 3.97778 23.0124 3.97778L23.0076 3.97301ZM25.6561 33.6819C25.6561 33.6819 25.6561 33.6819 25.6513 33.6819C25.6513 32.3558 25.6416 31.0297 25.6561 29.7035C25.6561 29.3649 25.5885 29.2122 25.1922 29.217C23.7519 29.2408 22.3068 29.2408 20.8617 29.217C20.4508 29.2122 20.359 29.3553 20.359 29.7322C20.3687 32.3462 20.3687 34.9556 20.3493 37.5696C20.3493 37.9751 20.4653 38.1373 20.8907 38.1325C22.2923 38.1134 23.6939 38.1087 25.1003 38.1325C25.5643 38.1421 25.6755 37.9656 25.6658 37.541C25.6416 36.2531 25.6561 34.9699 25.6561 33.6819ZM14.7816 19.7052V14.8157H9.61493V19.7052H14.7816ZM36.4147 19.71C36.4147 18.1596 36.4099 16.6809 36.4147 15.1973C36.4147 14.892 36.3084 14.7728 35.9942 14.7728C34.5346 14.7775 33.0702 14.7823 31.6106 14.7632C31.2191 14.7585 31.1998 14.954 31.2046 15.245C31.2143 16.1132 31.2094 16.9862 31.2094 17.8543C31.2094 18.4602 31.2094 19.066 31.2094 19.71H36.4099H36.4147ZM14.8009 7.66993C13.1576 7.66993 11.5772 7.67947 9.99675 7.66516C9.57627 7.66516 9.57143 7.90367 9.57143 8.20896C9.58593 9.55416 9.60527 10.9041 9.58593 12.2493C9.5811 12.6453 9.76476 12.6548 10.0596 12.6548C11.4854 12.65 12.9063 12.6548 14.3321 12.6548C14.4819 12.6548 14.6317 12.6166 14.7961 12.5928V7.6747L14.8009 7.66993ZM31.2046 12.6691C32.8914 12.6691 34.4911 12.6787 36.0861 12.65C36.1972 12.65 36.3954 12.3877 36.4002 12.2446C36.4292 10.8612 36.4341 9.48261 36.4244 8.09925C36.4244 7.96091 36.2504 7.71286 36.1489 7.70809C34.612 7.6747 33.0702 7.66516 31.5284 7.67947C31.4173 7.67947 31.2191 7.88459 31.2191 7.9943C31.1998 9.51123 31.2046 11.0282 31.2046 12.6643V12.6691ZM20.3687 19.7338C22.0458 19.7338 23.6456 19.7433 25.2405 19.7147C25.3565 19.7147 25.5595 19.4047 25.5643 19.2377C25.5885 18.1119 25.574 16.9862 25.5691 15.8604C25.5691 15.5122 25.5691 15.1687 25.5691 14.7632C23.8969 14.7632 22.3213 14.7537 20.7457 14.7775C20.62 14.7775 20.388 14.9874 20.388 15.1019C20.3638 16.6188 20.3735 18.1358 20.3735 19.7338H20.3687ZM9.58593 26.7174H14.7961V21.9186H9.58593V26.7174ZM20.3638 12.6787C22.0458 12.6787 23.6407 12.6882 25.2357 12.6643C25.3517 12.6643 25.5595 12.4258 25.5595 12.297C25.5836 10.8946 25.5836 9.49215 25.5498 8.08494C25.5498 7.9466 25.2792 7.70332 25.1293 7.69855C23.6697 7.66516 22.2053 7.66516 20.7457 7.68901C20.6152 7.68901 20.3735 7.92275 20.3735 8.05154C20.3493 9.54939 20.359 11.052 20.359 12.6739L20.3638 12.6787ZM31.2191 26.746H36.3954V21.9138H31.2191V26.746ZM20.3687 21.9042C20.3687 23.4498 20.359 24.9333 20.388 26.4121C20.388 26.5409 20.6345 26.7746 20.7698 26.7794C22.2294 26.7985 23.6939 26.7794 25.1535 26.7794C25.5112 26.7794 25.5933 26.6125 25.5885 26.3024C25.574 25.272 25.574 24.2464 25.5691 23.2161C25.5691 22.7867 25.5691 22.3574 25.5691 21.8995H20.3735L20.3687 21.9042Z" fill="white"/>
<path d="M0.572065 41.839C0.572065 41.1664 0.538233 40.5558 0.596231 39.95C0.61073 39.8212 0.953884 39.6256 1.14721 39.6256C3.77161 39.6065 6.40084 39.6208 9.02524 39.6208C20.7553 39.6208 32.4853 39.6208 44.2154 39.6208C45.0338 39.6208 45.4446 40.0311 45.4478 40.8516C45.4478 41.5067 45.1256 41.8342 44.4812 41.8342C30.1268 41.8342 15.7675 41.8342 1.41303 41.8342C1.15688 41.8342 0.900719 41.8342 0.572065 41.8342V41.839Z" fill="white"/>
<path d="M23.0026 3.03329C15.864 3.03329 8.72546 3.03329 1.59173 3.03329C1.39358 3.03329 1.16642 3.08099 0.997257 3.00944C0.828097 2.93311 0.600939 2.74231 0.591273 2.58966C0.470444 0.838989 0.48011 0.8533 2.23938 0.8533C16.3957 0.8533 30.5519 0.85807 44.7082 0.838989C45.293 0.838989 45.4525 0.991636 45.4477 1.56406C45.438 3.07622 45.4622 3.04283 43.9349 3.03806C36.9559 3.02375 29.9816 3.03329 23.0026 3.03806V3.03329Z" fill="white"/>
</g>
<defs>
<clipPath id="clip0_548_1933">
<rect width="44.9048" height="41" fill="white" transform="translate(0.547852 0.838989)"/>
</clipPath>
</defs>
</svg>
