<svg width="56" height="56" viewBox="0 0 56 56" fill="none" xmlns="http://www.w3.org/2000/svg">
<path d="M5.91071 7.74727C5.91071 8.3523 5.89843 8.92355 5.91071 9.49479C5.95064 11.1747 7.13919 12.5261 8.77614 12.7656C10.6956 13.0482 12.391 11.7736 12.6274 9.83569C12.7104 9.14774 12.7104 8.44751 12.7472 7.73192H33.1339C33.1339 8.24481 33.1308 8.7362 33.1339 9.23067C33.1431 10.1766 33.3489 11.0642 34.0491 11.746C35.0349 12.7073 36.202 13.082 37.5472 12.6428C38.8832 12.2036 39.6571 11.2546 39.8475 9.87255C39.9427 9.1846 39.9335 8.47822 39.9704 7.77491C42.7037 7.25588 45.0102 8.92662 45.0194 11.5279C45.0348 15.8307 45.0286 20.1334 45.0317 24.4362C45.0317 24.4976 45.0194 24.559 45.0102 24.6481H41.6196V17.916H4.24305C4.24305 18.3429 4.24305 18.7698 4.24305 19.1998C4.24305 26.3434 4.24305 33.484 4.24305 40.6276C4.24305 41.6319 4.24305 41.6349 5.26269 41.6349C11.5341 41.6349 17.8024 41.6349 24.0738 41.6349C24.2243 41.6349 24.3748 41.6349 24.5468 41.6349C24.556 41.7824 24.5713 41.8929 24.5713 42.0035C24.5713 42.8818 24.556 43.7602 24.5775 44.6386C24.5867 44.9549 24.4731 45.0409 24.1813 45.0225C23.9018 45.0041 23.6223 45.0133 23.3398 45.0133C16.9916 45.0163 10.6465 45.0133 4.29833 45.0317C2.7658 45.0348 0.766444 43.4992 0.800227 41.3892C0.840153 39.1104 0.809441 36.8316 0.809441 34.5527C0.809441 26.9515 0.809441 19.3503 0.809441 11.7491C0.809441 11.0028 0.864722 10.281 1.27933 9.62071C1.92429 8.59186 2.82722 7.93155 4.03113 7.76877C4.62695 7.68892 5.24426 7.75342 5.90764 7.75342L5.91071 7.74727Z" fill="white"/>
<path d="M55.1975 41.6748C55.2897 49.0488 49.1565 54.8994 42.234 55.1666C34.1721 55.4799 28.2999 49.0549 28.0327 42.2522C27.7164 34.1688 34.2734 28.4041 40.9318 28.1032C48.9722 27.7408 55.3695 34.3101 55.1975 41.6748ZM41.4385 51.7422C42.8912 51.7299 44.3101 51.5979 45.6277 50.9836C49.1473 49.3436 51.2602 46.6532 51.7271 42.7467C51.9451 40.9346 51.7148 39.1718 50.9654 37.5256C49.8014 34.9765 47.8942 33.1768 45.256 32.151C43.4502 31.4477 41.589 31.4139 39.7248 31.675C37.7807 31.9483 36.1254 32.8789 34.6911 34.2118C33.6131 35.2161 32.787 36.4016 32.2065 37.7437C31.7796 38.7265 31.5554 39.7645 31.4817 40.8456C31.365 42.5808 31.5554 44.2761 32.3263 45.8271C34.1905 49.5739 37.2187 51.5979 41.4385 51.7422Z" fill="white"/>
<path d="M24.5377 28.0264H17.781V21.282H24.5377V28.0264Z" fill="white"/>
<path d="M34.86 28.0202H28.0911C28.0757 27.9618 28.045 27.9035 28.045 27.8451C28.0389 25.7475 28.0389 23.6498 28.0327 21.5491C28.0327 21.3403 28.0849 21.2451 28.3091 21.2451C30.3853 21.2635 32.4583 21.2819 34.5345 21.2912C34.7894 21.2912 34.8969 21.3771 34.8969 21.6474C34.8876 23.6836 34.8938 25.7168 34.8907 27.753C34.8907 27.8267 34.8754 27.9004 34.8631 28.0202H34.86Z" fill="white"/>
<path d="M17.7778 38.2719V31.5491C17.9007 31.5368 18.0112 31.5153 18.1218 31.5122C20.1212 31.503 22.1205 31.4999 24.1199 31.4815C24.4761 31.4784 24.5898 31.5706 24.5836 31.9483C24.5591 33.8955 24.5591 35.8395 24.5744 37.7867C24.5744 38.1583 24.4915 38.2842 24.0892 38.2811C22.1297 38.2566 20.1672 38.2719 18.2078 38.2719H17.7809H17.7778Z" fill="white"/>
<path d="M14.3658 28.0233H7.603C7.603 27.7008 7.603 27.3998 7.603 27.0988C7.603 25.3052 7.61221 23.5117 7.58764 21.7211C7.5815 21.325 7.69206 21.2451 8.07596 21.2482C10.1613 21.2697 12.2497 21.2574 14.3658 21.2574V28.0233Z" fill="white"/>
<path d="M14.3843 31.5428V38.2442H7.65532C7.64303 38.1244 7.6246 38.0016 7.62153 37.8757C7.61232 35.864 7.60618 33.8555 7.59082 31.8438C7.59082 31.6135 7.6246 31.4906 7.89487 31.4906C9.95872 31.4968 12.0226 31.4937 14.0864 31.4968C14.1724 31.4968 14.2615 31.5213 14.3843 31.5428Z" fill="white"/>
<path d="M7.62746 5.99055C7.62746 4.87263 7.61825 3.75164 7.63053 2.63372C7.63975 1.67244 8.3062 0.9937 9.2122 0.987558C10.1643 0.978344 11.0119 1.7185 11.0211 2.63679C11.0426 4.90027 11.0365 7.16375 11.0242 9.42723C11.0211 10.1397 10.4376 10.883 9.80188 11.0734C9.06786 11.2914 8.29084 11.0427 7.8793 10.3517C7.69503 10.0445 7.63054 9.633 7.62132 9.26752C7.58754 8.17417 7.60904 7.08083 7.60904 5.98748H7.63053L7.62746 5.99055Z" fill="white"/>
<path d="M34.8539 5.91686C34.8539 4.8358 34.8447 3.75474 34.8539 2.67367C34.8692 1.64789 35.5295 0.984511 36.5093 0.987582C37.4583 0.990654 38.2506 1.78302 38.2537 2.74124C38.2598 4.94022 38.266 7.1392 38.2506 9.34126C38.2445 10.1213 37.8483 10.7018 37.1419 11.0273C36.5 11.3253 35.8367 11.1348 35.2685 10.5697C34.8999 10.2073 34.8354 9.74973 34.8354 9.27062C34.8354 8.1527 34.8354 7.03478 34.8354 5.91379C34.8416 5.91379 34.8477 5.91379 34.8539 5.91379V5.91686Z" fill="white"/>
<path d="M41.6195 41.6318C43.3609 41.6318 45.0409 41.6318 46.7208 41.6318C47.633 41.6318 48.3731 42.3597 48.4069 43.2903C48.4407 44.1901 47.7466 44.9825 46.8529 45.0286C46.4106 45.0531 45.9622 45.004 45.5169 45.0071C43.6834 45.0071 41.8499 45.0163 40.0164 45.0224C38.9752 45.0255 38.2381 44.3161 38.2351 43.2718C38.2289 41.0206 38.2351 38.7695 38.2474 36.5183C38.2535 35.5693 39.0305 34.8506 40.0072 34.8629C40.861 34.8752 41.6195 35.6706 41.6195 36.5582C41.6195 38.0969 41.6195 39.6355 41.6195 41.1773C41.6195 41.3155 41.6195 41.4506 41.6195 41.6318Z" fill="white"/>
</svg>
