<svg width="115" height="120" viewBox="0 0 115 120" fill="none" xmlns="http://www.w3.org/2000/svg">
<g filter="url(#filter0_d_827_292)">
<rect x="5.89404" y="4.00143" width="98" height="104" rx="22" fill="#0268B2"/>
</g>
<path d="M40.6196 63.767C40.4005 63.9495 40.3391 64.1593 40.337 64.401C40.3326 64.807 40.3304 65.2152 40.2515 65.6143C40.2274 65.7375 40.1967 65.8948 40.0609 65.8857C39.9075 65.8743 39.9491 65.7055 39.9359 65.5892C39.9031 65.2654 40.0061 64.9529 39.9973 64.6314C39.9929 64.4923 39.9842 64.3714 39.8417 64.3007C39.6708 64.2163 39.7146 64.0407 39.7212 63.897C39.7804 62.6792 39.8198 61.459 39.811 60.2389C39.7979 58.4623 39.7847 56.6834 39.7716 54.9068C39.7716 54.8977 39.7716 54.8886 39.7716 54.8795C39.7738 54.7312 39.7606 54.5419 39.6577 54.4781C39.5393 54.4051 39.4517 54.5898 39.3596 54.6719C38.9367 55.046 38.459 55.3447 38.0142 55.6845C37.8805 55.7872 37.7227 55.8396 37.554 55.8328C37.2297 55.8168 37.0413 55.5591 37.1158 55.2352C37.1574 55.046 37.1968 54.8544 37.2429 54.6651C37.2582 54.599 37.2889 54.5283 37.2319 54.4826C37.1727 54.4347 37.1114 54.4895 37.0566 54.5191C37.0237 54.5351 36.9952 54.5602 36.9624 54.5761C36.8901 54.6149 36.8002 54.6651 36.7454 54.5761C36.6994 54.4986 36.7849 54.4347 36.8353 54.3891C37.4708 53.8144 38.069 53.1964 38.7395 52.6604C39.1756 52.3138 39.6248 51.9922 40.1354 51.7756C40.7708 51.5087 41.334 51.6843 41.5838 52.2476C41.7087 52.5327 41.7284 52.8474 41.7328 53.153C41.7459 54.0037 41.7109 54.8567 41.7438 55.7073C41.8205 57.728 41.8643 59.7463 41.8906 61.7669C41.9037 62.6837 41.8971 63.6028 41.8796 64.5196C41.873 64.9233 41.827 65.327 41.7744 65.7284C41.7262 66.0978 41.6035 66.2232 41.3603 66.221C41.0601 66.2187 40.8694 66.0362 40.8278 65.6964C40.7599 65.1263 40.6503 64.5584 40.6481 63.9791C40.6481 63.9175 40.6306 63.856 40.6152 63.7625L40.6196 63.767Z" fill="white"/>
<path d="M60.0146 32.7577C59.9576 32.8991 59.8327 32.9082 59.7122 32.9355C58.5684 33.2001 57.4223 33.4487 56.285 33.7406C55.0974 34.0462 53.9163 34.3906 52.7483 34.7737C51.5475 35.1683 50.3598 35.5925 49.2006 36.1079C48.4753 36.4294 47.739 36.7282 47.0247 37.0749C46.3366 37.4101 45.6726 37.7955 44.9977 38.1604C43.5361 38.9472 42.1907 39.9279 40.8299 40.8744C40.1572 41.3419 39.5655 41.9417 38.9498 42.4982C38.1828 43.1892 37.44 43.9121 36.7607 44.6967C36.2852 45.2486 35.8447 45.837 35.4108 46.4277C34.3831 47.8234 33.5636 49.3468 32.8668 50.9456C32.5534 51.664 32.297 52.4006 32.0428 53.1441C31.8478 53.7165 31.7054 54.3003 31.5695 54.8887C31.4643 55.3403 31.3175 55.7782 31.2606 56.2434C31.197 56.7497 31.1269 57.256 31.048 57.76C30.8091 59.3131 30.8837 60.8776 30.8837 62.4399C30.8837 63.1811 31.0458 63.904 31.1773 64.6292C31.3285 65.4685 31.5739 66.2781 31.8675 67.0718C32.0823 67.6533 32.3255 68.2235 32.6915 68.7275C32.9457 69.0787 33.1297 69.4756 33.4146 69.8131C33.8791 70.365 34.3393 70.9123 34.8871 71.3799C35.5752 71.9637 36.2961 72.4905 37.0806 72.9238C37.7358 73.2865 38.4392 73.5328 39.1273 73.811C39.7102 74.0459 40.3215 74.185 40.9241 74.3561C41.4851 74.5134 42.0636 74.4975 42.618 74.6343C43.2798 74.7985 43.9525 74.7734 44.6186 74.8487C45.7055 74.9718 46.7946 74.9148 47.8771 74.8373C48.5914 74.7871 49.3058 74.648 50.0158 74.591C51.2013 74.4975 52.3429 74.1827 53.5065 73.9798C53.9732 73.8977 54.4159 73.6673 54.8892 73.5807C55.5685 73.4552 56.2127 73.2021 56.8701 72.9945C57.5735 72.771 58.2725 72.5339 58.9584 72.2625C59.6947 71.9705 60.4112 71.6193 61.1431 71.3137C62.1314 70.9009 63.0627 70.3627 64.0071 69.861C64.7171 69.4847 65.3898 69.0331 66.0779 68.6135C66.8602 68.1368 67.5789 67.5667 68.3086 67.0125C68.8411 66.6088 69.3889 66.228 69.8951 65.7878C70.4298 65.3226 70.9601 64.8527 71.4378 64.3236C71.7884 63.9337 72.2266 63.6395 72.5532 63.2153C73.0791 62.5356 73.6904 61.9336 74.1988 61.2357C74.7861 60.4306 75.2813 59.564 75.7809 58.6996C76.0724 58.1979 76.3748 57.6871 76.5457 57.1488C76.9007 56.029 77.3981 54.9549 77.5471 53.7576C77.683 52.656 77.8473 51.5659 77.7969 50.4507C77.7662 49.7414 77.6895 49.0367 77.5734 48.3365C77.4967 47.8759 77.5142 47.3992 77.3784 46.9476C77.1833 46.2999 76.9971 45.65 76.778 45.0091C76.5325 44.293 76.2214 43.6179 75.8269 42.9862C74.9482 41.5791 73.8329 40.4274 72.4414 39.5584C71.9155 39.23 71.372 38.9381 70.822 38.669C70.3334 38.4295 69.8272 38.2038 69.2903 38.0783C68.9047 37.9871 68.5299 37.8503 68.1443 37.7682C67.3006 37.5926 66.4592 37.4055 65.5936 37.3485C64.9034 37.3029 64.2153 37.198 63.5207 37.1912C62.8501 37.1843 62.184 37.271 61.5156 37.2938C60.3499 37.3348 59.206 37.5652 58.0512 37.7066C57.7072 37.7499 57.3632 37.8548 57.0367 37.9803C56.857 38.051 56.6817 38.019 56.5064 38.0624C54.8782 38.4729 53.2852 39.0043 51.7535 39.7044C50.156 40.4319 48.6265 41.2917 47.2569 42.4434C46.444 43.1276 45.688 43.8597 45.0218 44.6967C44.9123 44.8335 44.7698 45.0661 44.5836 44.943C44.4039 44.8244 44.5639 44.6032 44.6164 44.4367C44.9539 43.3785 45.688 42.619 46.4199 41.8573C47.1277 41.1207 47.9735 40.5756 48.7843 39.9804C49.3781 39.5448 50.0749 39.303 50.7104 38.945C51.256 38.6371 51.8192 38.3748 52.3977 38.1627C52.7965 38.0168 53.1603 37.759 53.5678 37.6792C54.1617 37.5629 54.6854 37.2277 55.2924 37.1615C55.5071 37.1387 55.7131 36.9973 55.9191 36.9015C56.2916 36.7259 56.6992 36.7419 57.0892 36.6735C57.2733 36.6415 57.442 36.5777 57.6042 36.5001C58.1608 36.2356 58.7612 36.2835 59.3419 36.2265C59.7407 36.1877 60.1286 36.101 60.5186 36.0235C60.7881 35.9688 61.0752 36.0121 61.3338 35.8365C61.1322 35.8365 60.9284 35.8137 60.7312 35.841C60.0453 35.9391 59.3485 35.8114 58.6648 35.9391C58.1827 36.0281 57.7203 36.2128 57.2295 36.2447C56.6094 36.2858 56.033 36.5161 55.437 36.6484C54.7621 36.7989 54.1266 37.0703 53.4561 37.2208C53.2896 37.2573 53.1274 37.3189 52.9937 37.4489C52.9368 37.5036 52.8535 37.5515 52.779 37.5606C52.3692 37.6108 52.0077 37.7864 51.6329 37.9575C51.2319 38.1399 50.8222 38.3132 50.4168 38.4911C49.869 38.7329 49.3584 39.0453 48.8303 39.319C48.2299 39.6291 47.6579 39.9986 47.1101 40.3909C46.6215 40.7421 46.1219 41.0865 45.6946 41.5243C45.6332 41.5882 45.585 41.6817 45.4732 41.6635C45.4206 41.5814 45.4886 41.5426 45.528 41.4993C46.1306 40.8538 46.8209 40.3247 47.5352 39.8162C48.1115 39.4056 48.7076 39.0407 49.3211 38.7032C49.6257 38.5367 49.9413 38.3816 50.2568 38.2471C50.774 38.0304 51.2714 37.7659 51.7863 37.5469C52.3999 37.2824 53.0419 37.1364 53.6599 36.9038C54.3655 36.6393 55.0623 36.3245 55.8358 36.2584C56.3311 36.2151 56.8131 36.0075 57.2974 35.8593C57.4223 35.8205 57.5472 35.7453 57.648 35.6563C57.8628 35.4625 58.1323 35.4305 58.3865 35.3781C58.9168 35.2686 59.4536 35.1865 59.9883 35.1021C60.6194 35.0018 61.2615 34.947 61.9057 34.9539C62.8523 34.9653 63.7968 34.9607 64.7434 34.9653C65.4731 34.9676 66.1875 35.1021 66.9084 35.2207C67.4913 35.3165 68.072 35.426 68.6461 35.556C69.7593 35.8091 70.8177 36.231 71.8585 36.7122C72.7109 37.1068 73.5239 37.5743 74.2799 38.1399C74.8781 38.5869 75.4369 39.0886 75.9518 39.6405C76.5742 40.3065 77.1592 41.0066 77.6128 41.8094C78.0905 42.6555 78.5025 43.5358 78.8465 44.4526C79.1796 45.3421 79.3681 46.2703 79.5653 47.1939C79.688 47.7755 79.7143 48.3753 79.7669 48.9705C79.8392 49.7688 79.9312 50.567 79.8677 51.3652C79.8107 52.111 79.8063 52.859 79.6792 53.6093C79.5477 54.3916 79.379 55.1624 79.184 55.9241C79.0109 56.5992 78.7238 57.2423 78.4674 57.8923C77.7355 59.7533 76.675 61.3976 75.4917 62.9712C74.8233 63.8584 74.0805 64.6703 73.307 65.4503C72.2858 66.4788 71.2625 67.5119 70.0836 68.3535C69.6234 68.6819 69.161 69.0057 68.7074 69.3456C66.411 71.0743 63.8976 72.3902 61.2965 73.5373C60.2819 73.9843 59.252 74.3994 58.2046 74.7575C57.2163 75.095 56.2325 75.453 55.2179 75.6971C54.1288 75.9593 53.0463 76.2558 51.9375 76.4337C50.9536 76.5911 49.9698 76.7553 48.9749 76.8419C47.9472 76.9332 46.9173 77.0084 45.8852 76.9947C45.0153 76.9833 44.1431 76.9719 43.2798 76.8784C41.7239 76.7097 40.1879 76.42 38.7044 75.875C38.0207 75.6241 37.3238 75.3915 36.6862 75.0425C35.5577 74.4222 34.4467 73.7585 33.4825 72.8691C32.7506 72.194 32.0998 71.4483 31.5082 70.6409C31.0502 70.0161 30.7215 69.3159 30.3599 68.6317C30.0356 68.0205 29.799 67.3705 29.6105 66.7137C29.4002 65.9748 29.2424 65.2154 29.1153 64.4468C28.8611 62.937 28.8589 61.4204 28.9268 59.9084C28.986 58.6244 29.0101 57.3244 29.3059 56.0633C29.4725 55.3471 29.5667 54.6173 29.7464 53.9081C29.8757 53.3995 30.0838 52.9137 30.2131 52.4052C30.3643 51.8053 30.5834 51.2261 30.8091 50.6628C30.9866 50.2226 31.1532 49.7596 31.4096 49.3514C31.6922 48.8998 31.8544 48.3867 32.1305 47.9329C32.3913 47.5041 32.6235 47.0594 32.8887 46.6306C33.1911 46.1403 33.5 45.65 33.8397 45.1938C34.3305 44.5325 34.7995 43.846 35.3867 43.2622C35.9872 42.6669 36.5109 41.9919 37.1485 41.4331C37.7095 40.9428 38.2705 40.4547 38.8402 39.9758C39.3091 39.5813 39.7606 39.1571 40.2667 38.8218C40.8102 38.4638 41.3602 38.1057 41.9124 37.759C42.355 37.4808 42.7823 37.157 43.2403 36.897C43.913 36.5161 44.5945 36.1466 45.2826 35.7954C45.7406 35.5628 46.2051 35.3233 46.6609 35.0884C47.1211 34.8513 47.6251 34.6848 48.0984 34.4681C48.8719 34.1146 49.6652 33.8113 50.4672 33.5467C51.2122 33.3004 51.9507 33.0222 52.7067 32.8033C53.1449 32.6756 53.5898 32.5684 54.0258 32.427C54.497 32.2742 54.9878 32.1966 55.4677 32.0712C55.7285 32.0028 55.9805 31.8887 56.2456 31.834C56.6751 31.7451 57.1221 31.7291 57.5428 31.6059C58.3142 31.3802 59.1162 31.3779 59.8897 31.1909C60.1395 31.1316 60.3915 31.1863 60.6457 31.127C61.1037 31.0175 61.5704 30.9811 62.0416 30.9993C62.2782 31.0084 62.493 31.1361 62.7318 31.1179C62.8041 31.111 62.837 31.1749 62.8458 31.2502C62.8611 31.3779 62.7932 31.4417 62.6902 31.4805C62.3045 31.6242 61.9123 31.7337 61.5069 31.8021C60.8846 31.907 60.2929 32.1693 59.6574 32.208C59.2214 32.2354 58.8072 32.3814 58.404 32.5136C58.049 32.6299 57.7094 32.8192 57.3456 32.931C57.293 32.9469 57.2295 32.9812 57.2492 33.0473C57.2755 33.1317 57.3522 33.1294 57.4311 33.1203C57.8343 33.0769 58.2178 32.9424 58.61 32.858C59.0724 32.7577 59.5413 32.744 60.0124 32.7554V32.7508L60.0146 32.7577Z" fill="white"/>
<path d="M47.6054 50.4254C47.3096 50.2954 47.0554 50.5121 46.7684 50.4254C47.0291 50.04 47.4389 50.0286 47.7939 49.9305C48.0919 49.8462 48.4009 49.7983 48.7033 49.7162C49.0254 49.6295 49.3672 49.6956 49.6959 49.7641C49.9808 49.8233 50.2766 49.8598 50.5461 49.9647C51.0085 50.1449 51.4117 50.4346 51.7535 50.8177C52.0844 51.1872 52.3233 51.6159 52.503 52.0698C52.7352 52.6559 52.8448 53.2808 52.9281 53.9102C52.9872 54.3663 53.0223 54.8247 53.0332 55.2831C53.0508 56.0221 52.9368 56.7405 52.7221 57.4429C52.6016 57.8329 52.5599 58.2388 52.3978 58.6265C51.85 59.9424 51.1203 61.101 50.0641 62.0429C49.0867 62.9164 47.9933 63.5002 46.7289 63.767C45.5018 64.027 44.0796 63.2927 43.4727 62.1569C42.9424 61.1626 42.9796 60.1112 43.0234 59.053C43.0563 58.2388 43.1549 57.4246 43.385 56.6401C43.5077 56.2205 43.6984 55.8214 43.8123 55.3995C43.981 54.7768 44.3119 54.2341 44.5924 53.6707C44.8313 53.1918 45.2082 52.7927 45.5084 52.348C45.9159 51.7391 46.5054 51.3787 47.051 50.95C47.2526 50.7926 47.3644 50.5463 47.6032 50.4254H47.6054ZM45.9159 54.136C46.1154 54.0014 46.3367 53.9056 46.4857 53.7141C46.7421 53.3811 47.0291 53.0778 47.3381 52.7996C47.5353 52.6217 47.7654 52.4825 47.9933 52.3434C48.0722 52.2955 48.2058 52.2659 48.2584 52.3845C48.3132 52.5099 48.1949 52.5738 48.105 52.608C47.956 52.6627 47.8443 52.7653 47.7216 52.8611C47.4937 53.0367 47.3293 53.2785 47.1102 53.4609C46.9524 53.5932 46.8516 53.7209 46.9459 53.9399C46.9809 54.022 46.9612 54.12 46.902 54.1793C46.7223 54.3709 46.6106 54.6035 46.4747 54.827C46.1482 55.363 45.8918 55.9308 45.6837 56.5215C45.5128 57.0073 45.3221 57.4976 45.2476 58.0039C45.1227 58.8386 45.0701 59.687 45.1249 60.5354C45.1512 60.9345 45.3068 61.2515 45.6442 61.4636C46.0606 61.7259 46.5076 61.6734 46.9305 61.5411C47.6975 61.2994 48.368 60.8638 48.9377 60.28C49.6105 59.5912 50.1386 58.8135 50.5133 57.8922C50.82 57.1327 50.9274 56.3505 51.0085 55.5591C51.0918 54.7632 51.0129 53.9558 50.831 53.1827C50.6995 52.6217 50.4212 52.1085 49.8625 51.8485C49.4812 51.6706 49.0824 51.7208 48.677 51.7071C47.9758 51.6843 47.4718 51.9831 46.9853 52.4529C46.4923 52.9273 46.1723 53.502 45.9159 54.1406V54.136Z" fill="white"/>
<path d="M58.288 48.1289C58.0162 48.0741 57.7862 48.2292 57.5429 48.2908C57.4465 48.3159 57.3567 48.366 57.2602 48.3843C57.1857 48.398 57.074 48.4322 57.0499 48.325C57.028 48.2315 57.131 48.1836 57.2055 48.1562C57.7292 47.9601 58.2463 47.7275 58.8073 47.6682C59.2959 47.618 59.7999 47.5541 60.2755 47.6682C61.3054 47.9122 62.1468 48.4413 62.6486 49.4767C63.0255 50.2567 63.1855 51.0731 63.2468 51.9284C63.2753 52.3275 63.3542 52.7243 63.3476 53.128C63.3389 53.746 63.2468 54.3527 63.1395 54.9616C62.8305 56.7131 62.0438 58.2092 60.8671 59.4749C59.8153 60.6061 58.5509 61.402 57.0389 61.6506C56.0463 61.8148 55.15 61.5161 54.3853 60.7954C53.6096 60.061 53.3444 59.1146 53.3269 58.086C53.3137 57.3289 53.34 56.574 53.4912 55.8145C53.6315 55.1212 53.7849 54.4416 53.9733 53.762C54.1201 53.2306 54.3787 52.7676 54.5628 52.2636C54.8652 51.4449 55.4196 50.7949 55.9323 50.1244C56.1515 49.8393 56.4911 49.666 56.6883 49.333C56.7804 49.1779 56.9557 49.0479 57.1529 49.0069C57.326 48.9704 57.4246 48.8222 57.5232 48.699C57.7051 48.4732 57.9132 48.3067 58.1893 48.2383C58.2266 48.2292 58.2792 48.2132 58.2836 48.1334L58.288 48.1289ZM56.1339 52.0971C56.1558 52.1154 56.1777 52.1336 56.1997 52.1519C56.4385 51.8964 56.7256 51.7003 56.9578 51.4312C57.3347 50.9887 57.6919 50.5167 58.2507 50.2954C58.3625 50.2521 58.4983 50.1814 58.5575 50.3342C58.6123 50.4802 58.4545 50.5235 58.3647 50.5554C57.8563 50.731 57.532 51.1484 57.1748 51.5224C57.109 51.5908 57.0849 51.6661 57.1178 51.7527C57.2011 51.9626 57.131 52.1405 57.0214 52.3115C56.9162 52.4757 56.7825 52.6262 56.7037 52.8041C56.3005 53.705 55.8556 54.5898 55.6628 55.5773C55.608 55.8579 55.5576 56.1429 55.505 56.4235C55.3867 57.0597 55.3363 57.7074 55.4261 58.3437C55.5247 59.0507 55.803 59.5707 56.673 59.5068C57.6481 59.4339 58.4304 58.9412 59.136 58.2776C59.8766 57.5797 60.4376 56.7564 60.8233 55.7894C61.1235 55.0368 61.3382 54.266 61.3821 53.4564C61.4237 52.6969 61.4018 51.9306 61.2089 51.194C61.0183 50.471 60.7203 49.8028 59.9227 49.593C59.4384 49.4653 58.9453 49.479 58.4654 49.5907C58.1324 49.6683 57.8081 49.8233 57.5583 50.0583C57.2581 50.3388 56.9973 50.6717 56.7606 51.0138C56.5262 51.3536 56.3421 51.7322 56.1383 52.0948L56.1339 52.0971Z" fill="white"/>
<path d="M70.9865 46.6784C70.993 47.0752 70.8155 47.3124 70.6863 47.5678C70.6819 47.5747 70.6709 47.5792 70.6665 47.5861C70.5679 47.7161 70.4606 47.8917 70.6008 48.0034C70.7191 48.0969 70.8747 47.9646 70.9602 47.8324C71.0895 47.634 71.2735 47.4926 71.4291 47.3215C71.4992 47.2463 71.5978 47.2052 71.668 47.2805C71.7425 47.358 71.6526 47.4355 71.6022 47.4948C71.4247 47.7092 71.2144 47.9053 71.3634 48.2383C71.3787 48.2748 71.348 48.3569 71.313 48.3888C70.6928 48.975 70.3751 49.8005 69.8207 50.4437C69.5249 50.788 69.3277 51.2236 69.0779 51.6136C68.2495 52.9067 67.4234 54.2021 66.5842 55.4861C66.2796 55.9536 65.9728 56.4234 65.5915 56.8317C65.46 56.9731 65.3001 57.1122 65.127 57.0461C64.9122 56.9617 64.7062 56.8134 64.6624 56.5352C64.6493 56.4508 64.6317 56.3664 64.6252 56.282C64.6098 56.0859 64.5222 56.0061 64.3359 56.0814C64.2461 56.1178 64.1475 56.1292 64.0883 56.0403C64.0379 55.9628 64.0861 55.8784 64.1343 55.8054C64.5923 55.1189 64.9319 54.3572 65.3768 53.6685C65.9202 52.8269 66.3782 51.9329 66.9304 51.0982C67.235 50.6352 67.5768 50.1905 67.831 49.7025C68.1707 49.0479 68.6111 48.4732 68.9946 47.8552C69.3233 47.3284 69.687 46.8243 70.1056 46.3659C70.3006 46.1516 70.5 46.163 70.741 46.2747C70.9624 46.3773 70.9755 46.5621 70.9887 46.6738L70.9865 46.6784Z" fill="white"/>
<path d="M65.8326 50.4277C65.1839 50.3958 64.6778 50.0811 64.2943 49.5497C63.8056 48.8746 63.8144 47.8255 64.2702 47.1208C64.6054 46.5986 65.0503 46.334 65.6441 46.2017C66.6543 45.976 67.8748 46.7559 68.0348 47.8096C68.0436 47.8643 68.0742 47.9396 68.0523 47.976C67.6908 48.5622 67.693 49.3353 67.2021 49.8462C66.834 50.2293 66.376 50.4437 65.8348 50.43L65.8326 50.4277ZM66.5119 48.138C66.4921 48.3911 66.6696 48.3866 66.7989 48.4299C67.0334 48.5074 67.2876 48.5553 67.2788 48.902C67.2788 48.9362 67.2854 48.9886 67.3358 48.9795C67.3665 48.975 67.4015 48.9476 67.4169 48.9179C67.522 48.7287 67.4475 48.4185 67.2635 48.3136C67.1167 48.2292 67.0137 48.0992 66.8931 47.9852C66.8121 47.9076 66.7178 47.7982 66.617 47.8415C66.5053 47.8917 66.5272 48.049 66.5119 48.138Z" fill="white"/>
<path d="M70.7476 51.787C71.6811 51.7117 72.5335 52.5099 72.6913 53.1759C72.7417 53.3834 72.711 53.5864 72.7285 53.7916C72.7351 53.8555 72.6978 53.8942 72.6562 53.9353C72.4853 54.0972 71.9199 54.0265 71.8148 53.8213C71.7665 53.7255 71.7052 53.6434 71.6219 53.5886C71.5036 53.5111 71.3918 53.2922 71.2735 53.3743C71.1333 53.4723 71.2385 53.705 71.2209 53.8783C71.21 53.9832 71.2954 53.9992 71.3699 53.9923C71.5562 53.9763 71.7096 54.0721 71.8432 54.177C71.9988 54.3002 72.1062 54.4462 72.3319 54.2774C72.4415 54.1953 72.4634 54.3504 72.4568 54.4462C72.4064 55.0824 71.8717 55.7461 71.2494 55.9468C70.3137 56.2478 69.4679 55.9126 68.9135 55.014C68.5585 54.4393 68.5629 53.153 69.1655 52.5578C69.6213 52.1085 70.0815 51.7277 70.7454 51.7892L70.7476 51.787Z" fill="white"/>
<path d="M60.0169 32.7591C60.0169 32.7591 60.0392 32.7368 60.0503 32.7279C60.0525 32.739 60.057 32.7502 60.0592 32.7613C60.0436 32.7613 60.0303 32.7591 60.0147 32.7569L60.0169 32.7613V32.7591Z" fill="white"/>
<defs>
<filter id="filter0_d_827_292" x="0.894043" y="0.00143433" width="114" height="120" filterUnits="userSpaceOnUse" color-interpolation-filters="sRGB">
<feFlood flood-opacity="0" result="BackgroundImageFix"/>
<feColorMatrix in="SourceAlpha" type="matrix" values="0 0 0 0 0 0 0 0 0 0 0 0 0 0 0 0 0 0 127 0" result="hardAlpha"/>
<feMorphology radius="5" operator="erode" in="SourceAlpha" result="effect1_dropShadow_827_292"/>
<feOffset dx="3" dy="4"/>
<feGaussianBlur stdDeviation="6.5"/>
<feComposite in2="hardAlpha" operator="out"/>
<feColorMatrix type="matrix" values="0 0 0 0 0 0 0 0 0 0 0 0 0 0 0 0 0 0 0.14 0"/>
<feBlend mode="normal" in2="BackgroundImageFix" result="effect1_dropShadow_827_292"/>
<feBlend mode="normal" in="SourceGraphic" in2="effect1_dropShadow_827_292" result="shape"/>
</filter>
</defs>
</svg>
