<svg width="54" height="44" viewBox="0 0 54 44" fill="none" xmlns="http://www.w3.org/2000/svg">
<g clip-path="url(#clip0_548_1951)">
<path d="M0.000244141 39.3234C0.0054037 39.334 0.0105633 39.3445 0.014003 39.3568C0.014003 39.3586 0.0054037 39.3639 0.000244141 39.3674C0.000244141 39.3533 0.000244141 39.3375 0.000244141 39.3234Z" fill="black"/>
<path d="M6.68181 27.5256C6.70416 27.4359 6.70244 27.3269 6.75232 27.2601C7.0361 26.889 7.18744 26.4545 7.34051 26.0201C7.45918 25.686 7.57097 25.35 7.69308 25.0176C7.7206 24.9438 7.76875 24.8787 7.81003 24.8101C7.83239 24.7732 7.87539 24.7362 7.87367 24.7011C7.84615 24.1857 8.05081 23.7126 8.1196 23.2149C8.17292 22.8209 8.26751 22.4076 8.197 22.0312C8.15056 21.7868 8.24171 21.5916 8.22108 21.377C8.1798 20.9566 8.15572 20.5328 8.08177 20.1177C8.00609 19.6939 7.88226 19.277 7.77391 18.8602C7.67932 18.4979 7.58129 18.1373 7.47122 17.7803C7.4265 17.6379 7.34051 17.5095 7.28032 17.3705C7.16165 17.0997 7.05157 16.8236 6.92775 16.5545C6.88647 16.4648 6.81252 16.3909 6.75748 16.3082C6.68353 16.1992 6.5597 16.106 6.63709 15.9442C6.70244 15.9389 6.76952 15.9354 6.83487 15.9301C6.86927 15.9301 6.90539 15.9266 6.93978 15.9248C8.3965 15.9248 9.85494 15.9248 11.3117 15.9248C23.115 15.9248 34.9167 15.9231 46.72 15.9248C47.0932 15.9248 47.4785 15.9389 47.8379 16.0286C48.3694 16.1605 48.8905 16.3452 49.403 16.5439C49.9877 16.7708 50.4727 17.1648 50.9337 17.5886C51.4187 18.0353 51.7231 18.614 52.0585 19.1697C52.0757 19.1996 52.0843 19.2348 52.0963 19.27C52.129 19.3702 52.1634 19.4705 52.1926 19.5725C52.2528 19.7836 52.3096 19.9964 52.368 20.2092C52.356 20.3587 52.3336 20.5099 52.5142 20.5803C52.5245 20.7175 52.5349 20.8546 52.5469 20.9918C52.5469 21.4403 52.5469 21.887 52.5469 22.3355C52.5503 22.3936 52.5538 22.4498 52.5555 22.5079C52.54 22.5219 52.5142 22.5325 52.5108 22.5483C52.4093 22.9704 52.3096 23.3925 52.2132 23.8146C52.2064 23.8428 52.2236 23.878 52.2287 23.9078C51.9535 24.6465 51.5064 25.2674 50.9749 25.8302C50.8666 25.9463 50.7565 26.0641 50.6293 26.1573C50.5312 26.2294 50.3919 26.2452 50.2956 26.3191C50.1081 26.4633 49.9499 26.6462 49.7607 26.7887C49.5543 26.9435 49.3411 27.1106 49.1055 27.2003C48.8234 27.3075 48.5138 27.3462 48.2146 27.399C47.9016 27.4535 47.5868 27.5045 47.2704 27.5256C46.9711 27.5467 46.6701 27.5274 46.3709 27.5274C34.7653 27.5274 23.1597 27.5274 11.5542 27.5274C9.93233 27.5274 8.31051 27.5256 6.68697 27.5239L6.68181 27.5256ZM40.6833 26.6902C40.7624 26.6427 40.8398 26.6128 40.8983 26.5601C41.0049 26.4651 41.0961 26.3525 41.2027 26.2593C41.4521 26.043 41.7118 25.839 41.956 25.6191C42.1848 25.4134 42.3757 25.1548 42.6268 24.9877C43.0275 24.7204 43.3783 24.4109 43.6759 24.031C43.8461 23.8146 43.8909 23.7988 44.1144 23.9624C44.3225 24.1154 44.5117 24.2948 44.7078 24.4636C45.3287 24.9983 45.9495 25.5329 46.5687 26.0729C46.6719 26.1626 46.7527 26.2787 46.8593 26.3613C46.9109 26.4018 46.9986 26.393 47.0709 26.4053C47.076 26.342 47.0881 26.2769 47.0846 26.2136C47.0812 26.1573 47.0451 26.1028 47.0468 26.0465C47.052 25.7018 47.0606 25.3571 47.0709 25.0124C47.0778 24.7907 47.1036 24.5674 47.0984 24.3458C47.0915 24.0222 47.0502 23.6986 47.0502 23.3749C47.0502 22.7787 47.076 22.1825 47.076 21.5845C47.076 21.0674 47.0537 20.5486 47.0451 20.0315C47.0416 19.8381 47.0485 19.6428 47.0502 19.4494C47.052 19.1381 47.0244 18.8215 47.064 18.5155C47.1208 18.0793 47.0571 17.9703 46.634 17.9632C46.5773 17.9632 46.5205 17.9632 46.462 17.9632C44.6132 17.9527 42.7644 17.9421 40.9155 17.9351C40.7865 17.9351 40.6472 17.9281 40.6489 18.1461C40.661 19.3878 40.6593 20.6278 40.6644 21.8694C40.6679 22.8614 40.6782 23.8551 40.6816 24.847C40.6851 25.445 40.6816 26.043 40.6816 26.6902H40.6833Z" fill="white" fill-opacity="0.3"/>
<path d="M53.1059 1.73864C52.6742 2.43863 52.3251 3.18258 52.1015 3.97754C51.8367 4.91321 51.577 5.85414 51.5821 6.84433C51.5821 7.09759 51.5305 7.35437 51.5512 7.60411C51.5959 8.11591 51.675 8.62244 51.7403 9.13248C51.7438 9.16062 51.7627 9.20459 51.7524 9.21514C51.5288 9.42619 51.7782 9.57393 51.816 9.74981C51.8762 10.0382 51.9209 10.332 51.9828 10.6204C52.0035 10.7206 52.0516 10.8156 52.0929 10.9088C52.1394 11.0108 52.2013 11.1076 52.2443 11.2113C52.3801 11.5314 52.5005 11.8586 52.6467 12.1734C52.8101 12.5287 52.9941 12.8751 53.1695 13.2251C53.0767 13.2304 52.9838 13.2392 52.8909 13.2392C41.6964 13.2392 30.5019 13.2392 19.3073 13.2392C17.2555 13.2392 15.2055 13.2234 13.1537 13.248C12.3763 13.2568 11.6368 13.109 10.8972 12.9085C10.727 12.8628 10.5292 12.8558 10.3916 12.759C9.85328 12.3792 9.30636 12.0028 8.81277 11.5666C8.04055 10.886 7.53319 10.0119 7.25974 9.00937C7.16171 8.65234 7.09807 8.2742 7.09119 7.9031C7.07915 7.32095 7.07399 6.73001 7.16858 6.16017C7.24598 5.6941 7.46956 5.25265 7.63467 4.8024C7.68454 4.66698 7.74474 4.53155 7.82385 4.41196C8.20394 3.8386 8.70269 3.37605 9.20317 2.92053C9.47319 2.6743 9.77073 2.44214 10.0923 2.27858C10.9007 1.86527 11.7692 1.64894 12.6738 1.64894C24.6406 1.64542 36.6056 1.64718 48.5724 1.64894C48.8991 1.64894 49.2276 1.67181 49.5544 1.67005C50.6328 1.66477 51.7094 1.65246 52.7877 1.6507C52.8926 1.6507 52.9993 1.70874 53.1042 1.7404L53.1059 1.73864ZM19.1285 3.98634C18.9926 4.00217 18.9083 4.02151 18.8258 4.02151C16.9528 4.02151 15.0816 4.02151 13.2087 4.02151C12.734 4.02151 12.7323 4.02151 12.734 4.52276C12.7358 6.0054 12.7409 7.48979 12.7409 8.97243C12.7409 10.1701 12.7409 11.3696 12.7409 12.5673C12.7409 12.6588 12.7667 12.7503 12.7805 12.8523C13.1262 12.5603 13.4478 12.3088 13.747 12.0327C14.4212 11.4136 15.0816 10.7787 15.7558 10.1596C16.031 9.90633 16.0757 9.91865 16.3406 10.1754C16.387 10.2212 16.4334 10.2669 16.4833 10.3073C16.9391 10.6802 17.4052 11.0425 17.8489 11.4294C18.2341 11.7653 18.597 12.1277 18.9702 12.4776C19.0081 12.5128 19.0545 12.5374 19.125 12.5867V3.98634H19.1285Z" fill="white" fill-opacity="0.3"/>
<path d="M53.1058 1.73865C53.0009 1.70699 52.8943 1.64895 52.7894 1.64895C51.711 1.64895 50.6344 1.66302 49.5561 1.6683C49.2293 1.6683 48.9008 1.64719 48.574 1.64719C36.6073 1.64719 24.6422 1.64543 12.6755 1.64719C11.7691 1.64719 10.9023 1.86352 10.094 2.27683C9.77237 2.44039 9.47483 2.67431 9.20482 2.91878C8.70434 3.3743 8.20558 3.83685 7.82549 4.41021C7.74638 4.5298 7.68619 4.66523 7.63631 4.80065C7.4712 5.2509 7.2459 5.69234 7.17023 6.15842C7.07564 6.72826 7.0808 7.32096 7.09284 7.90135C7.09971 8.27245 7.16335 8.65058 7.26138 9.00761C7.53484 10.0101 8.04391 10.8842 8.81441 11.5649C9.30801 12.001 9.85492 12.3774 10.3932 12.7573C10.5308 12.854 10.7286 12.8611 10.8989 12.9068C11.6384 13.1073 12.3797 13.2568 13.1553 13.2462C15.2054 13.2216 17.2572 13.2374 19.309 13.2374C30.5035 13.2374 41.698 13.2374 52.8926 13.2374C52.9854 13.2374 53.0783 13.2286 53.1712 13.2234C53.3844 13.2269 53.5994 13.2269 53.8127 13.2357C53.9486 13.241 54.0242 13.2796 53.9984 13.4643C53.9658 13.7158 53.9898 13.9744 53.9881 14.2294C53.9881 14.5864 53.9881 14.5899 53.6287 14.5917C52.9579 14.5917 52.2889 14.5864 51.6182 14.5882C50.6636 14.5882 49.7091 14.5899 48.7529 14.5952C48.6686 14.5952 48.5843 14.6198 48.5018 14.6321C48.1956 14.6216 47.8895 14.6005 47.5817 14.6005C37.4087 14.6005 27.2375 14.6022 17.0646 14.597C15.2793 14.597 13.4941 14.56 11.7089 14.5389C10.9642 14.4422 10.2677 14.1819 9.60382 13.8407C9.25125 13.6578 8.9348 13.3992 8.60803 13.1671C8.37069 12.9982 8.12303 12.8382 7.91493 12.6359C7.68962 12.4196 7.49872 12.1628 7.30438 11.9148C6.8469 11.3327 6.47197 10.696 6.19335 10.0083C6.04888 9.64956 5.98525 9.2556 5.88722 8.87747C5.68599 8.1124 5.74963 7.32975 5.75823 6.55238C5.75995 6.36947 5.84938 6.19007 5.87518 6.00716C6.01105 5.07326 6.40833 4.2484 6.90537 3.47103C7.35081 2.77456 7.87365 2.16251 8.55815 1.67885C9.34412 1.12308 10.192 0.732634 11.1018 0.474096C11.4286 0.380881 11.7777 0.370329 12.1165 0.322842H12.1131C12.7271 0.319324 13.3411 0.314048 13.9568 0.312289C16.1582 0.310531 18.3596 0.310531 20.561 0.308772H20.5645C22.8295 0.308772 25.0963 0.310531 27.3613 0.310531C31.5285 0.310531 35.694 0.310531 39.8612 0.310531C39.9593 0.310531 40.059 0.294702 40.157 0.285908C40.188 0.285908 40.219 0.285908 40.2499 0.285908C40.3772 0.285908 40.5045 0.284149 40.6317 0.284149C40.6764 0.284149 40.7194 0.284149 40.7642 0.284149C40.8914 0.292943 41.0187 0.301737 41.146 0.310531H41.1494C44.1282 0.310531 47.107 0.312289 50.0858 0.312289C51.3069 0.312289 52.528 0.307013 53.7508 0.305254C53.8196 0.305254 53.8884 0.314048 53.9468 0.317566C53.9468 0.6957 53.952 1.05097 53.9451 1.40448C53.94 1.67005 53.8075 1.78437 53.5719 1.68412C53.3879 1.60674 53.2572 1.67005 53.1093 1.7404L53.1058 1.73865Z" fill="white"/>
<path d="M11.7073 14.5372C13.4925 14.5565 15.2777 14.5935 17.0629 14.5952C27.2359 14.6005 37.4071 14.597 47.58 14.5987C47.8862 14.5987 48.194 14.6198 48.5002 14.6304C48.6068 14.6919 48.7065 14.7816 48.82 14.8098C49.6232 15.0085 50.3507 15.355 51.0197 15.858C51.4875 16.2098 51.9295 16.5879 52.2976 17.0434C52.7912 17.6555 53.1764 18.3414 53.486 19.0713C53.6563 19.474 53.7492 19.8891 53.842 20.3182C54.0089 21.1009 54.0175 21.8765 53.9383 22.6539C53.8713 23.3134 53.7096 23.9641 53.4138 24.5604C53.1902 25.0124 52.9288 25.4468 52.6605 25.8724C52.2718 26.4897 51.7438 26.9681 51.1763 27.4148C50.5193 27.9319 49.7814 28.2749 49.0127 28.5475C48.5242 28.7198 47.9997 28.7884 47.4906 28.9027C47.3324 28.9027 47.1759 28.8992 47.0194 28.8992C35.8455 28.8992 24.6716 28.8992 13.4977 28.901C13.1847 28.901 12.8716 28.9239 12.5586 28.9291C12.3333 28.9326 12.108 28.9239 11.8845 28.9203C11.7193 28.894 11.5542 28.8465 11.3891 28.8465C9.60736 28.8412 7.82388 28.8429 6.04211 28.8412C5.75489 28.8412 5.73769 28.8183 5.74285 28.5334C5.74801 28.2573 5.75145 27.9794 5.73941 27.7033C5.73425 27.5731 5.77897 27.5344 5.8942 27.5344C6.15734 27.5344 6.42047 27.5292 6.68361 27.5256C8.30543 27.5256 9.92726 27.5292 11.5491 27.5292C23.1547 27.5292 34.7602 27.5292 46.3658 27.5292C46.6668 27.5292 46.9678 27.5485 47.2653 27.5274C47.5818 27.5045 47.8965 27.4553 48.2095 27.4008C48.5088 27.348 48.8183 27.3093 49.1004 27.202C49.336 27.1123 49.5493 26.9452 49.7556 26.7905C49.9448 26.648 50.1031 26.4669 50.2905 26.3209C50.3868 26.247 50.5261 26.2312 50.6242 26.1591C50.7514 26.0659 50.8598 25.948 50.9699 25.8319C51.5013 25.2691 51.9502 24.6483 52.2236 23.9096C52.2512 23.8832 52.2924 23.8621 52.3045 23.8305C52.4627 23.4049 52.6106 22.9775 52.5521 22.5096C52.5487 22.4516 52.5453 22.3953 52.5435 22.3373C52.5883 22.2845 52.657 22.237 52.6691 22.1772C52.6932 22.0664 52.7052 21.9451 52.6863 21.8325C52.6398 21.5529 52.7895 21.2363 52.5435 20.9936C52.5332 20.8564 52.5229 20.7192 52.5126 20.582C52.5453 20.4255 52.5659 20.2725 52.3664 20.2109C52.3079 19.9981 52.2512 19.7853 52.191 19.5743C52.1617 19.4723 52.1273 19.372 52.0947 19.2718C52.0843 19.2383 52.0757 19.2014 52.0568 19.1715C51.7214 18.6157 51.417 18.0371 50.932 17.5904C50.4694 17.1665 49.9844 16.7726 49.4014 16.5457C48.8888 16.3469 48.3677 16.1623 47.8363 16.0304C47.4768 15.9407 47.0916 15.9284 46.7184 15.9266C34.915 15.9231 23.1134 15.9248 11.31 15.9266C9.8533 15.9266 8.39487 15.9266 6.93815 15.9266C6.90375 15.9266 6.86764 15.9301 6.83152 15.9319C6.76616 15.9371 6.69909 15.9407 6.63374 15.9459C6.51679 15.9196 6.39812 15.8703 6.28117 15.8686C5.75833 15.8598 5.75833 15.8633 5.74629 15.3444C5.74113 15.1404 5.74973 14.9364 5.74113 14.7324C5.73597 14.597 5.79101 14.5495 5.91656 14.5512C6.07306 14.5548 6.22957 14.5477 6.3878 14.546C7.62953 14.546 8.86955 14.5424 10.1113 14.5477C10.4553 14.5495 10.7975 14.5935 11.1415 14.5987C11.3307 14.6005 11.5198 14.5618 11.709 14.5407L11.7073 14.5372Z" fill="white"/>
<path d="M52.5521 22.5079C52.6123 22.9757 52.4644 23.4031 52.3045 23.8287C52.2924 23.8604 52.2511 23.8832 52.2236 23.9079C52.2185 23.8762 52.2013 23.8428 52.2081 23.8129C52.3045 23.3908 52.4042 22.9687 52.5057 22.5466C52.5091 22.5308 52.5349 22.5202 52.5504 22.5061L52.5521 22.5079Z" fill="black"/>
<path d="M52.5435 20.9918C52.7911 21.2345 52.6415 21.5511 52.6862 21.8308C52.7051 21.9416 52.6931 22.0647 52.669 22.1755C52.6552 22.2353 52.5865 22.2828 52.5435 22.3355C52.5435 21.887 52.5435 21.4403 52.5435 20.9918Z" fill="black"/>
<path d="M52.3663 20.2092C52.5658 20.2708 52.5451 20.4238 52.5125 20.5803C52.3319 20.5099 52.3542 20.3569 52.3663 20.2092Z" fill="black"/>
<path d="M6.83154 15.9283C6.86766 15.9283 6.90206 15.9248 6.93817 15.9231C6.90206 15.9231 6.86766 15.9266 6.83154 15.9283Z" fill="black"/>
<path d="M53.1059 30.3871C52.6742 31.0871 52.3251 31.8311 52.1015 32.626C51.8367 33.5617 51.577 34.5026 51.5821 35.4928C51.5821 35.7461 51.5305 36.0029 51.5512 36.2526C51.5959 36.7644 51.675 37.2709 51.7403 37.781C51.7438 37.8091 51.7627 37.8531 51.7524 37.8636C51.5288 38.0747 51.7782 38.2224 51.816 38.3983C51.8762 38.6867 51.9209 38.9805 51.9828 39.2689C52.0035 39.3691 52.0516 39.4641 52.0929 39.5573C52.1394 39.6593 52.2013 39.7561 52.2443 39.8598C52.3801 40.1799 52.5005 40.5071 52.6467 40.8219C52.8101 41.1771 52.9941 41.5236 53.1695 41.8736C53.0767 41.8789 52.9838 41.8877 52.8909 41.8877C41.6964 41.8877 30.5019 41.8877 19.3073 41.8877C17.2555 41.8877 15.2055 41.8719 13.1537 41.8965C12.3763 41.9053 11.6368 41.7575 10.8972 41.557C10.727 41.5113 10.5292 41.5043 10.3916 41.4075C9.85328 41.0277 9.30636 40.6513 8.81277 40.2151C8.04055 39.5345 7.53319 38.6604 7.25974 37.6579C7.16171 37.3008 7.09807 36.9227 7.09119 36.5516C7.07915 35.9695 7.07399 35.3785 7.16858 34.8087C7.24598 34.3426 7.46956 33.9011 7.63467 33.4509C7.68454 33.3155 7.74474 33.1801 7.82385 33.0605C8.20394 32.4871 8.70269 32.0245 9.20317 31.569C9.47319 31.3228 9.77073 31.0906 10.0923 30.9271C10.9007 30.5138 11.7692 30.2974 12.6738 30.2974C24.6406 30.2939 36.6056 30.2957 48.5724 30.2974C48.8991 30.2974 49.2276 30.3203 49.5544 30.3185C50.6328 30.3133 51.7094 30.301 52.7877 30.2992C52.8926 30.2992 52.9993 30.3572 53.1042 30.3889L53.1059 30.3871ZM19.1285 32.6348C18.9926 32.6507 18.9083 32.67 18.8258 32.67C16.9528 32.67 15.0816 32.67 13.2087 32.67C12.734 32.67 12.7323 32.67 12.734 33.1713C12.7358 34.6539 12.7409 36.1383 12.7409 37.6209C12.7409 38.8186 12.7409 40.0181 12.7409 41.2158C12.7409 41.3073 12.7667 41.3988 12.7805 41.5008C13.1262 41.2088 13.4478 40.9573 13.747 40.6812C14.4212 40.0621 15.0816 39.4272 15.7558 38.8081C16.031 38.5548 16.0757 38.5671 16.3406 38.8239C16.387 38.8697 16.4334 38.9154 16.4833 38.9558C16.9391 39.3287 17.4052 39.691 17.8489 40.0779C18.2341 40.4138 18.597 40.7762 18.9702 41.1261C19.0081 41.1613 19.0545 41.1859 19.125 41.2352V32.6313L19.1285 32.6348Z" fill="white" fill-opacity="0.3"/>
<path d="M53.1058 30.3871C53.0009 30.3555 52.8943 30.2974 52.7894 30.2974C51.711 30.2974 50.6344 30.3115 49.5561 30.3168C49.2293 30.3168 48.9008 30.2957 48.574 30.2957C36.6073 30.2957 24.6422 30.2939 12.6755 30.2957C11.7691 30.2957 10.9023 30.512 10.094 30.9253C9.77237 31.0889 9.47483 31.3228 9.20482 31.5673C8.70434 32.0228 8.20558 32.4853 7.82549 33.0587C7.74638 33.1783 7.68619 33.3137 7.63631 33.4491C7.4712 33.8994 7.2459 34.3408 7.17023 34.8069C7.07564 35.3768 7.0808 35.9695 7.09284 36.5498C7.09971 36.9209 7.16335 37.2991 7.26138 37.6561C7.53484 38.6586 8.04391 39.5327 8.81441 40.2134C9.30801 40.6495 9.85492 41.0259 10.3932 41.4058C10.5308 41.5025 10.7286 41.5096 10.8989 41.5553C11.6384 41.7558 12.3797 41.9053 13.1553 41.8947C15.2054 41.8701 17.2572 41.8859 19.309 41.8859C30.5035 41.8859 41.698 41.8859 52.8926 41.8859C52.9854 41.8859 53.0783 41.8771 53.1712 41.8719C53.3844 41.8754 53.5994 41.8754 53.8127 41.8842C53.9486 41.8895 54.0242 41.9281 53.9984 42.1128C53.9658 42.3643 53.9898 42.6229 53.9881 42.8779C53.9881 43.2349 53.9881 43.2384 53.6287 43.2402C52.9579 43.2402 52.2889 43.2349 51.6182 43.2367C50.6636 43.2367 49.7091 43.2384 48.7529 43.2437C48.6686 43.2437 48.5843 43.2683 48.5018 43.2806C48.1956 43.2701 47.8895 43.249 47.5817 43.249C37.4087 43.249 27.2375 43.2507 17.0646 43.2455C15.2793 43.2455 13.4941 43.2085 11.7089 43.1874C10.9642 43.0907 10.2677 42.8304 9.60382 42.4892C9.25125 42.3063 8.9348 42.0477 8.60803 41.8156C8.37069 41.6467 8.12303 41.4867 7.91493 41.2844C7.68962 41.0681 7.49872 40.8113 7.30438 40.5633C6.8469 39.9812 6.47197 39.3445 6.19335 38.6568C6.04888 38.2981 5.98525 37.9041 5.88722 37.526C5.68599 36.7609 5.74963 35.9783 5.75823 35.2009C5.75995 35.018 5.84938 34.8386 5.87518 34.6557C6.01105 33.7218 6.40833 32.8969 6.90537 32.1195C7.35081 31.4231 7.87365 30.811 8.55815 30.3273C9.34412 29.7716 10.192 29.3811 11.1018 29.1226C11.4286 29.0294 11.7777 29.0188 12.1165 28.9713H12.1131C12.7271 28.9678 13.3411 28.9625 13.9568 28.9608C16.1582 28.959 18.3596 28.959 20.561 28.9573H20.5645C22.8295 28.9573 25.0963 28.959 27.3613 28.959C31.5285 28.959 35.694 28.959 39.8612 28.959C39.9593 28.959 40.059 28.9432 40.157 28.9344C40.188 28.9344 40.219 28.9344 40.2499 28.9344C40.3772 28.9344 40.5045 28.9326 40.6317 28.9326C40.6764 28.9326 40.7194 28.9326 40.7642 28.9326C40.8914 28.9414 41.0187 28.9502 41.146 28.959H41.1494C44.1282 28.959 47.107 28.9608 50.0858 28.9608C51.3069 28.9608 52.528 28.9555 53.7508 28.9538C53.8196 28.9538 53.8884 28.9625 53.9468 28.9661C53.9468 29.3442 53.952 29.6995 53.9451 30.053C53.94 30.3186 53.8075 30.4329 53.5719 30.3326C53.3879 30.2552 53.2572 30.3186 53.1093 30.3889L53.1058 30.3871Z" fill="white"/>
</g>
<defs>
<clipPath id="clip0_548_1951">
<rect width="54" height="43" fill="white" transform="translate(0.000244141 0.28064)"/>
</clipPath>
</defs>
</svg>
