<svg width="114" height="121" viewBox="0 0 114 121" fill="none" xmlns="http://www.w3.org/2000/svg">
<g filter="url(#filter0_d_827_318)">
<rect x="5" y="4.30005" width="98" height="104" rx="22" fill="#0268B2"/>
</g>
<path d="M29.449 62.0452C29.4713 61.9555 29.4696 61.8464 29.5195 61.7796C29.8032 61.4085 29.9546 60.9741 30.1077 60.5397C30.2263 60.2055 30.3381 59.8696 30.4602 59.5372C30.4877 59.4633 30.5359 59.3982 30.5772 59.3297C30.5995 59.2927 30.6425 59.2558 30.6408 59.2206C30.6133 58.7053 30.818 58.2322 30.8868 57.7345C30.9401 57.3405 31.0347 56.9272 30.9641 56.5508C30.9177 56.3063 31.0089 56.1111 30.9882 55.8966C30.947 55.4762 30.9229 55.0523 30.8489 54.6373C30.7732 54.2134 30.6494 53.7966 30.5411 53.3798C30.4465 53.0175 30.3484 52.6569 30.2384 52.2999C30.1937 52.1574 30.1077 52.029 30.0475 51.8901C29.9288 51.6192 29.8187 51.3431 29.6949 51.074C29.6536 50.9843 29.5797 50.9105 29.5246 50.8278C29.4507 50.7188 29.3268 50.6255 29.4042 50.4637C29.4696 50.4585 29.5367 50.4549 29.602 50.4497C29.6364 50.4497 29.6725 50.4461 29.7069 50.4444C31.1637 50.4444 32.6221 50.4444 34.0788 50.4444C45.8822 50.4444 57.6838 50.4426 69.4872 50.4444C69.8604 50.4444 70.2456 50.4585 70.6051 50.5482C71.1365 50.6801 71.6576 50.8647 72.1701 51.0635C72.7549 51.2904 73.2399 51.6843 73.7008 52.1082C74.1858 52.5549 74.4902 53.1335 74.8256 53.6893C74.8428 53.7192 74.8514 53.7544 74.8634 53.7896C74.8961 53.8898 74.9305 53.9901 74.9598 54.0921C75.02 54.3031 75.0767 54.5159 75.1352 54.7287C75.1231 54.8782 75.1008 55.0295 75.2814 55.0998C75.2917 55.237 75.302 55.3742 75.314 55.5114C75.314 55.9599 75.314 56.4066 75.314 56.8551C75.3175 56.9131 75.3209 56.9694 75.3226 57.0274C75.3072 57.0415 75.2814 57.0521 75.2779 57.0679C75.1765 57.49 75.0767 57.9121 74.9804 58.3342C74.9735 58.3623 74.9907 58.3975 74.9959 58.4274C74.7207 59.1661 74.2735 59.7869 73.7421 60.3497C73.6338 60.4658 73.5237 60.5837 73.3964 60.6769C73.2984 60.749 73.1591 60.7648 73.0628 60.8387C72.8753 60.9829 72.7171 61.1658 72.5279 61.3083C72.3215 61.463 72.1082 61.6301 71.8726 61.7198C71.5906 61.8271 71.281 61.8658 70.9817 61.9186C70.6687 61.9731 70.354 62.0241 70.0375 62.0452C69.7383 62.0663 69.4373 62.0469 69.138 62.0469C57.5325 62.0469 45.9269 62.0469 34.3213 62.0469C32.6995 62.0469 31.0777 62.0452 29.4541 62.0434L29.449 62.0452ZM63.4505 61.2098C63.5296 61.1623 63.607 61.1324 63.6655 61.0796C63.7721 60.9847 63.8633 60.8721 63.9699 60.7789C64.2193 60.5626 64.479 60.3585 64.7232 60.1387C64.9519 59.9329 65.1428 59.6744 65.3939 59.5073C65.7946 59.24 66.1455 58.9304 66.443 58.5505C66.6133 58.3342 66.658 58.3184 66.8816 58.4819C67.0897 58.6349 67.2789 58.8143 67.4749 58.9832C68.0958 59.5178 68.7167 60.0525 69.3358 60.5924C69.439 60.6821 69.5199 60.7982 69.6265 60.8809C69.6781 60.9213 69.7658 60.9125 69.838 60.9249C69.8432 60.8615 69.8552 60.7965 69.8518 60.7331C69.8483 60.6769 69.8122 60.6223 69.8139 60.5661C69.8191 60.2214 69.8277 59.8766 69.838 59.5319C69.8449 59.3103 69.8707 59.0869 69.8655 58.8653C69.8587 58.5417 69.8174 58.2181 69.8174 57.8945C69.8174 57.2983 69.8432 56.7021 69.8432 56.1041C69.8432 55.587 69.8208 55.0682 69.8122 54.5511C69.8088 54.3576 69.8157 54.1624 69.8174 53.9689C69.8191 53.6576 69.7916 53.3411 69.8311 53.035C69.8879 52.5989 69.8243 52.4898 69.4012 52.4828C69.3444 52.4828 69.2877 52.4828 69.2292 52.4828C67.3804 52.4722 65.5315 52.4617 63.6827 52.4547C63.5537 52.4547 63.4144 52.4476 63.4161 52.6657C63.4281 53.9074 63.4264 55.1473 63.4316 56.389C63.435 57.3809 63.4453 58.3746 63.4488 59.3666C63.4522 59.9646 63.4488 60.5626 63.4488 61.2098H63.4505Z" fill="#86C5EC"/>
<path d="M75.873 36.2582C75.4413 36.9582 75.0922 37.7021 74.8686 38.4971C74.6037 39.4327 74.344 40.3737 74.3492 41.3639C74.3492 41.6171 74.2976 41.8739 74.3182 42.1236C74.363 42.6354 74.4421 43.142 74.5074 43.652C74.5109 43.6802 74.5298 43.7241 74.5195 43.7347C74.2959 43.9457 74.5453 44.0935 74.5831 44.2693C74.6433 44.5578 74.688 44.8515 74.7499 45.1399C74.7706 45.2402 74.8187 45.3351 74.86 45.4284C74.9064 45.5304 74.9684 45.6271 75.0113 45.7309C75.1472 46.051 75.2676 46.3781 75.4138 46.6929C75.5772 47.0482 75.7612 47.3947 75.9366 47.7447C75.8438 47.7499 75.7509 47.7587 75.658 47.7587C64.4635 47.7587 53.2689 47.7587 42.0744 47.7587C40.0226 47.7587 37.9726 47.7429 35.9208 47.7675C35.1434 47.7763 34.4039 47.6286 33.6643 47.4281C33.4941 47.3823 33.2963 47.3753 33.1587 47.2786C32.6204 46.8987 32.0735 46.5223 31.5799 46.0861C30.8076 45.4055 30.3003 44.5314 30.0268 43.5289C29.9288 43.1719 29.8652 42.7937 29.8583 42.4226C29.8462 41.8405 29.8411 41.2495 29.9357 40.6797C30.0131 40.2136 30.2366 39.7722 30.4018 39.3219C30.4516 39.1865 30.5118 39.0511 30.5909 38.9315C30.971 38.3581 31.4698 37.8956 31.9703 37.4401C32.2403 37.1938 32.5378 36.9617 32.8594 36.7981C33.6678 36.3848 34.5363 36.1685 35.4409 36.1685C47.4077 36.165 59.3727 36.1667 71.3395 36.1685C71.6662 36.1685 71.9947 36.1913 72.3215 36.1896C73.3998 36.1843 74.4765 36.172 75.5548 36.1702C75.6597 36.1702 75.7664 36.2283 75.8713 36.2599L75.873 36.2582ZM41.8955 38.5059C41.7597 38.5217 41.6754 38.541 41.5929 38.541C39.7199 38.541 37.8487 38.541 35.9758 38.541C35.5011 38.541 35.4994 38.541 35.5011 39.0423C35.5028 40.5249 35.508 42.0093 35.508 43.492C35.508 44.6897 35.508 45.8892 35.508 47.0869C35.508 47.1783 35.5338 47.2698 35.5476 47.3718C35.8933 47.0798 36.2149 46.8283 36.5141 46.5522C37.1883 45.9331 37.8487 45.2982 38.5229 44.6791C38.7981 44.4259 38.8428 44.4382 39.1077 44.695C39.1541 44.7407 39.2005 44.7864 39.2504 44.8269C39.7062 45.1997 40.1722 45.562 40.616 45.949C41.0012 46.2849 41.3641 46.6472 41.7373 46.9972C41.7752 47.0324 41.8216 47.057 41.8921 47.1062V38.5059H41.8955Z" fill="#86C5EC"/>
<path d="M75.873 36.2582C75.7681 36.2265 75.6615 36.1685 75.5566 36.1685C74.4782 36.1685 73.4016 36.1826 72.3232 36.1878C71.9965 36.1878 71.668 36.1667 71.3412 36.1667C59.3744 36.1667 47.4094 36.165 35.4427 36.1667C34.5363 36.1667 33.6695 36.383 32.8612 36.7964C32.5395 36.9599 32.242 37.1938 31.972 37.4383C31.4715 37.8938 30.9728 38.3564 30.5927 38.9297C30.5136 39.0493 30.4534 39.1848 30.4035 39.3202C30.2384 39.7704 30.0131 40.2119 29.9374 40.6779C29.8428 41.2478 29.848 41.8405 29.86 42.4209C29.8669 42.792 29.9305 43.1701 30.0286 43.5271C30.302 44.5296 30.8111 45.4037 31.5816 46.0844C32.0752 46.5206 32.6221 46.8969 33.1604 47.2768C33.298 47.3736 33.4958 47.3806 33.6661 47.4263C34.4056 47.6268 35.1468 47.7763 35.9225 47.7658C37.9726 47.7411 40.0244 47.757 42.0761 47.757C53.2707 47.757 64.4652 47.757 75.6598 47.757C75.7526 47.757 75.8455 47.7482 75.9384 47.7429C76.1516 47.7464 76.3666 47.7464 76.5799 47.7552C76.7157 47.7605 76.7914 47.7992 76.7656 47.9838C76.7329 48.2354 76.757 48.4939 76.7553 48.7489C76.7553 49.1059 76.7553 49.1095 76.3958 49.1112C75.7251 49.1112 75.0561 49.1059 74.3853 49.1077C73.4308 49.1077 72.4763 49.1095 71.5201 49.1147C71.4358 49.1147 71.3515 49.1394 71.269 49.1517C70.9628 49.1411 70.6567 49.12 70.3488 49.12C60.1759 49.12 50.0047 49.1218 39.8317 49.1165C38.0465 49.1165 36.2613 49.0796 34.4761 49.0585C33.7314 48.9617 33.0349 48.7014 32.371 48.3602C32.0184 48.1773 31.702 47.9188 31.3752 47.6866C31.1379 47.5178 30.8902 47.3577 30.6821 47.1555C30.4568 46.9391 30.2659 46.6824 30.0716 46.4344C29.6141 45.8522 29.2391 45.2156 28.9605 44.5279C28.8161 44.1691 28.7524 43.7751 28.6544 43.397C28.4532 42.6319 28.5168 41.8493 28.5254 41.0719C28.5271 40.889 28.6166 40.7096 28.6424 40.5267C28.7782 39.5928 29.1755 38.7679 29.6726 37.9906C30.118 37.2941 30.6408 36.682 31.3253 36.1984C32.1113 35.6426 32.9592 35.2522 33.869 34.9936C34.1958 34.9004 34.5449 34.8899 34.8837 34.8424H34.8803C35.4943 34.8389 36.1082 34.8336 36.724 34.8318C38.9254 34.8301 41.1268 34.8301 43.3282 34.8283H43.3316C45.5967 34.8283 47.8635 34.8301 50.1285 34.8301C54.2957 34.8301 58.4612 34.8301 62.6284 34.8301C62.7264 34.8301 62.8262 34.8142 62.9242 34.8054C62.9552 34.8054 62.9861 34.8054 63.0171 34.8054C63.1444 34.8054 63.2716 34.8037 63.3989 34.8037C63.4436 34.8037 63.4866 34.8037 63.5313 34.8037C63.6586 34.8125 63.7859 34.8213 63.9131 34.8301H63.9166C66.8954 34.8301 69.8742 34.8318 72.8529 34.8318C74.074 34.8318 75.2951 34.8265 76.518 34.8248C76.5868 34.8248 76.6555 34.8336 76.714 34.8371C76.714 35.2152 76.7192 35.5705 76.7123 35.924C76.7071 36.1896 76.5747 36.3039 76.3391 36.2037C76.1551 36.1263 76.0244 36.1896 75.8764 36.2599L75.873 36.2582Z" fill="white"/>
<path d="M34.4744 49.0567C36.2596 49.076 38.0448 49.113 39.83 49.1147C50.003 49.12 60.1742 49.1165 70.3471 49.1183C70.6533 49.1183 70.9611 49.1394 71.2672 49.1499C71.3739 49.2115 71.4736 49.3012 71.5871 49.3293C72.3903 49.5281 73.1178 49.8745 73.7868 50.3775C74.2546 50.7293 74.6966 51.1074 75.0647 51.5629C75.5583 52.175 75.9435 52.8609 76.2531 53.5908C76.4234 53.9935 76.5162 54.4086 76.6091 54.8378C76.7759 55.6204 76.7845 56.396 76.7054 57.1734C76.6384 57.8329 76.4767 58.4837 76.1809 59.0799C75.9573 59.5319 75.6959 59.9663 75.4276 60.3919C75.0389 61.0093 74.5109 61.4876 73.9433 61.9344C73.2864 62.4514 72.5485 62.7944 71.7798 63.067C71.2913 63.2394 70.7668 63.308 70.2577 63.4223C70.0995 63.4223 69.943 63.4188 69.7865 63.4188C58.6126 63.4188 47.4387 63.4188 36.2648 63.4205C35.9518 63.4205 35.6387 63.4434 35.3257 63.4487C35.1004 63.4522 34.8751 63.4434 34.6515 63.4399C34.4864 63.4135 34.3213 63.366 34.1562 63.366C32.3745 63.3607 30.591 63.3625 28.8092 63.3607C28.522 63.3607 28.5048 63.3379 28.5099 63.0529C28.5151 62.7768 28.5185 62.4989 28.5065 62.2228C28.5013 62.0927 28.5461 62.054 28.6613 62.054C28.9244 62.054 29.1876 62.0487 29.4507 62.0452C31.0725 62.0452 32.6943 62.0487 34.3162 62.0487C45.9218 62.0487 57.5273 62.0487 69.1329 62.0487C69.4339 62.0487 69.7349 62.068 70.0324 62.0469C70.3488 62.0241 70.6636 61.9748 70.9766 61.9203C71.2758 61.8675 71.5854 61.8288 71.8675 61.7216C72.1031 61.6319 72.3164 61.4648 72.5227 61.31C72.7119 61.1675 72.8702 60.9864 73.0576 60.8404C73.1539 60.7665 73.2932 60.7507 73.3913 60.6786C73.5185 60.5854 73.6269 60.4676 73.737 60.3515C74.2684 59.7887 74.7173 59.1678 74.9907 58.4292C75.0183 58.4028 75.0595 58.3817 75.0716 58.35C75.2298 57.9244 75.3777 57.497 75.3192 57.0292C75.3158 56.9711 75.3123 56.9149 75.3106 56.8568C75.3553 56.8041 75.4241 56.7566 75.4362 56.6968C75.4603 56.586 75.4723 56.4646 75.4534 56.3521C75.4069 56.0724 75.5566 55.7558 75.3106 55.5131C75.3003 55.3759 75.29 55.2388 75.2797 55.1016C75.3123 54.945 75.333 54.792 75.1335 54.7305C75.075 54.5177 75.0183 54.3049 74.9581 54.0938C74.9288 53.9918 74.8944 53.8915 74.8617 53.7913C74.8514 53.7579 74.8428 53.7209 74.8239 53.691C74.4885 53.1353 74.1841 52.5566 73.6991 52.1099C73.2365 51.6861 72.7515 51.2921 72.1684 51.0652C71.6559 50.8665 71.1348 50.6818 70.6034 50.5499C70.2439 50.4602 69.8587 50.4479 69.4855 50.4461C57.6821 50.4426 45.8805 50.4444 34.0771 50.4461C32.6204 50.4461 31.162 50.4461 29.7052 50.4461C29.6708 50.4461 29.6347 50.4496 29.5986 50.4514C29.5333 50.4567 29.4662 50.4602 29.4008 50.4655C29.2839 50.4391 29.1652 50.3898 29.0483 50.3881C28.5254 50.3793 28.5254 50.3828 28.5134 49.864C28.5082 49.66 28.5168 49.4559 28.5082 49.2519C28.5031 49.1165 28.5581 49.069 28.6836 49.0708C28.8402 49.0743 28.9967 49.0673 29.1549 49.0655C30.3966 49.0655 31.6366 49.062 32.8784 49.0673C33.2223 49.069 33.5646 49.113 33.9086 49.1183C34.0977 49.12 34.2869 49.0813 34.4761 49.0602L34.4744 49.0567Z" fill="white"/>
<path d="M75.3192 57.0274C75.3794 57.4952 75.2315 57.9226 75.0715 58.3482C75.0595 58.3799 75.0182 58.4027 74.9907 58.4274C74.9856 58.3957 74.9684 58.3623 74.9752 58.3324C75.0715 57.9103 75.1713 57.4882 75.2728 57.0661C75.2762 57.0503 75.302 57.0397 75.3175 57.0256L75.3192 57.0274Z" fill="#53C1EB"/>
<path d="M75.3106 55.5114C75.5583 55.7541 75.4086 56.0706 75.4534 56.3503C75.4723 56.4611 75.4602 56.5842 75.4362 56.695C75.4224 56.7548 75.3536 56.8023 75.3106 56.855C75.3106 56.4066 75.3106 55.9598 75.3106 55.5114Z" fill="#53C1EB"/>
<path d="M75.1335 54.7287C75.333 54.7903 75.3123 54.9433 75.2796 55.0998C75.0991 55.0294 75.1214 54.8764 75.1335 54.7287Z" fill="#53C1EB"/>
<path d="M75.873 64.9067C75.4413 65.6067 75.0922 66.3506 74.8686 67.1456C74.6037 68.0812 74.344 69.0222 74.3492 70.0124C74.3492 70.2656 74.2976 70.5224 74.3182 70.7721C74.363 71.2839 74.4421 71.7905 74.5074 72.3005C74.5109 72.3286 74.5298 72.3726 74.5195 72.3832C74.2959 72.5942 74.5453 72.742 74.5831 72.9178C74.6433 73.2063 74.688 73.5 74.7499 73.7884C74.7706 73.8887 74.8187 73.9836 74.86 74.0769C74.9064 74.1789 74.9684 74.2756 75.0113 74.3794C75.1472 74.6995 75.2676 75.0266 75.4138 75.3414C75.5772 75.6967 75.7612 76.0432 75.9366 76.3932C75.8438 76.3984 75.7509 76.4072 75.658 76.4072C64.4635 76.4072 53.2689 76.4072 42.0744 76.4072C40.0226 76.4072 37.9726 76.3914 35.9208 76.416C35.1434 76.4248 34.4039 76.2771 33.6643 76.0766C33.4941 76.0308 33.2963 76.0238 33.1587 75.9271C32.6204 75.5472 32.0735 75.1708 31.5799 74.7346C30.8076 74.054 30.3003 73.1799 30.0268 72.1774C29.9288 71.8204 29.8652 71.4422 29.8583 71.0711C29.8462 70.489 29.8411 69.898 29.9357 69.3282C30.0131 68.8621 30.2366 68.4207 30.4018 67.9704C30.4516 67.835 30.5118 67.6996 30.5909 67.58C30.971 67.0066 31.4698 66.5441 31.9703 66.0886C32.2403 65.8423 32.5378 65.6102 32.8594 65.4466C33.6678 65.0333 34.5363 64.817 35.4409 64.817C47.4077 64.8135 59.3727 64.8152 71.3395 64.817C71.6662 64.817 71.9947 64.8398 72.3215 64.8381C73.3998 64.8328 74.4765 64.8205 75.5548 64.8187C75.6597 64.8187 75.7664 64.8768 75.8713 64.9084L75.873 64.9067ZM41.8955 67.1544C41.7597 67.1702 41.6754 67.1895 41.5929 67.1895C39.7199 67.1895 37.8487 67.1895 35.9758 67.1895C35.5011 67.1895 35.4994 67.1895 35.5011 67.6908C35.5028 69.1734 35.508 70.6578 35.508 72.1405C35.508 73.3382 35.508 74.5377 35.508 75.7354C35.508 75.8268 35.5338 75.9183 35.5476 76.0203C35.8933 75.7283 36.2149 75.4768 36.5141 75.2007C37.1883 74.5816 37.8487 73.9467 38.5229 73.3276C38.7981 73.0744 38.8428 73.0867 39.1077 73.3435C39.1541 73.3892 39.2005 73.4349 39.2504 73.4754C39.7062 73.8482 40.1722 74.2105 40.616 74.5975C41.0012 74.9334 41.3641 75.2957 41.7373 75.6457C41.7752 75.6809 41.8216 75.7055 41.8921 75.7547V67.1509L41.8955 67.1544Z" fill="#86C5EC"/>
<path d="M75.873 64.9067C75.7681 64.875 75.6615 64.817 75.5566 64.817C74.4782 64.817 73.4016 64.8311 72.3232 64.8364C71.9965 64.8364 71.668 64.8153 71.3412 64.8153C59.3744 64.8153 47.4094 64.8135 35.4427 64.8153C34.5363 64.8153 33.6695 65.0316 32.8612 65.4449C32.5395 65.6085 32.242 65.8424 31.972 66.0868C31.4715 66.5424 30.9728 67.0049 30.5927 67.5783C30.5136 67.6979 30.4534 67.8333 30.4035 67.9687C30.2384 68.419 30.0131 68.8604 29.9374 69.3265C29.8428 69.8963 29.848 70.489 29.86 71.0694C29.8669 71.4405 29.9305 71.8186 30.0286 72.1757C30.302 73.1782 30.8111 74.0523 31.5816 74.7329C32.0752 75.1691 32.6221 75.5455 33.1604 75.9254C33.298 76.0221 33.4958 76.0291 33.6661 76.0748C34.4056 76.2753 35.1468 76.4248 35.9225 76.4143C37.9726 76.3897 40.0244 76.4055 42.0761 76.4055C53.2707 76.4055 64.4652 76.4055 75.6598 76.4055C75.7526 76.4055 75.8455 76.3967 75.9384 76.3914C76.1516 76.3949 76.3666 76.3949 76.5799 76.4037C76.7157 76.409 76.7914 76.4477 76.7656 76.6324C76.7329 76.8839 76.757 77.1424 76.7553 77.3974C76.7553 77.7545 76.7553 77.758 76.3958 77.7597C75.7251 77.7597 75.0561 77.7545 74.3853 77.7562C73.4308 77.7562 72.4763 77.758 71.5201 77.7633C71.4358 77.7633 71.3515 77.7879 71.269 77.8002C70.9628 77.7896 70.6567 77.7685 70.3488 77.7685C60.1759 77.7685 50.0047 77.7703 39.8317 77.765C38.0465 77.765 36.2613 77.7281 34.4761 77.707C33.7314 77.6103 33.0349 77.35 32.371 77.0088C32.0184 76.8258 31.702 76.5673 31.3752 76.3351C31.1379 76.1663 30.8902 76.0063 30.6821 75.804C30.4568 75.5877 30.2659 75.3309 30.0716 75.0829C29.6141 74.5008 29.2391 73.8641 28.9605 73.1764C28.8161 72.8176 28.7524 72.4237 28.6544 72.0455C28.4532 71.2805 28.5168 70.4978 28.5254 69.7204C28.5271 69.5375 28.6166 69.3581 28.6424 69.1752C28.7782 68.2413 29.1755 67.4165 29.6726 66.6391C30.118 65.9426 30.6408 65.3306 31.3253 64.8469C32.1113 64.2911 32.9592 63.9007 33.869 63.6422C34.1958 63.5489 34.5449 63.5384 34.8837 63.4909H34.8803C35.4943 63.4874 36.1082 63.4821 36.724 63.4804C38.9254 63.4786 41.1268 63.4786 43.3282 63.4768H43.3316C45.5967 63.4768 47.8635 63.4786 50.1285 63.4786C54.2957 63.4786 58.4612 63.4786 62.6284 63.4786C62.7264 63.4786 62.8262 63.4628 62.9242 63.454C62.9552 63.454 62.9861 63.454 63.0171 63.454C63.1444 63.454 63.2716 63.4522 63.3989 63.4522C63.4436 63.4522 63.4866 63.4522 63.5313 63.4522C63.6586 63.461 63.7859 63.4698 63.9131 63.4786H63.9166C66.8954 63.4786 69.8742 63.4804 72.8529 63.4804C74.074 63.4804 75.2951 63.4751 76.518 63.4733C76.5868 63.4733 76.6555 63.4821 76.714 63.4856C76.714 63.8638 76.7192 64.219 76.7123 64.5725C76.7071 64.8381 76.5747 64.9524 76.3391 64.8522C76.1551 64.7748 76.0244 64.8381 75.8764 64.9085L75.873 64.9067Z" fill="white"/>
<defs>
<filter id="filter0_d_827_318" x="0" y="0.300049" width="114" height="120" filterUnits="userSpaceOnUse" color-interpolation-filters="sRGB">
<feFlood flood-opacity="0" result="BackgroundImageFix"/>
<feColorMatrix in="SourceAlpha" type="matrix" values="0 0 0 0 0 0 0 0 0 0 0 0 0 0 0 0 0 0 127 0" result="hardAlpha"/>
<feMorphology radius="5" operator="erode" in="SourceAlpha" result="effect1_dropShadow_827_318"/>
<feOffset dx="3" dy="4"/>
<feGaussianBlur stdDeviation="6.5"/>
<feComposite in2="hardAlpha" operator="out"/>
<feColorMatrix type="matrix" values="0 0 0 0 0 0 0 0 0 0 0 0 0 0 0 0 0 0 0.14 0"/>
<feBlend mode="normal" in2="BackgroundImageFix" result="effect1_dropShadow_827_318"/>
<feBlend mode="normal" in="SourceGraphic" in2="effect1_dropShadow_827_318" result="shape"/>
</filter>
</defs>
</svg>
