<svg width="114" height="121" viewBox="0 0 114 121" fill="none" xmlns="http://www.w3.org/2000/svg">
<g filter="url(#filter0_d_827_250)">
<rect x="5" y="4.85852" width="98" height="104" rx="22" fill="#0268B2"/>
</g>
<g clip-path="url(#clip0_827_250)">
<path d="M53.9821 72.1309C48.1967 72.1309 42.4113 72.1309 36.6259 72.1309C35.3321 72.1309 34.0341 72.1226 32.7403 72.1185C31.9296 72.1185 31.5775 71.7948 31.5529 70.9648C31.5242 69.9978 31.5365 69.0308 31.5406 68.0638C31.5406 67.2919 31.5693 66.5158 31.5693 65.7439C31.5734 60.4482 31.5775 55.1568 31.5775 49.8612C31.5775 46.815 31.5693 43.7729 31.5447 40.7267C31.5406 40.1 31.8805 39.6061 32.6011 39.6186C33.6165 39.6352 34.6319 39.6186 35.6432 39.6186C35.7456 39.6186 35.8439 39.6103 35.9462 39.6144C36.1837 39.6227 36.2738 39.5231 36.2697 39.2658C36.2533 38.5146 36.286 37.7593 36.2615 37.0081C36.2205 35.8627 37.2605 34.8293 38.4397 34.8584C40.2781 34.904 42.1165 34.8791 43.9549 34.8791C52.2829 34.8791 60.6109 34.8708 68.9349 34.8708C69.1846 34.8708 69.4385 34.8791 69.6883 34.8791C70.7569 34.8791 71.543 35.7382 71.6781 36.4064C71.7232 36.6346 71.7396 36.8712 71.7436 37.1036C71.7559 37.8382 71.7682 38.5686 71.7518 39.3032C71.7477 39.5356 71.8133 39.6061 72.0344 39.6061C73.017 39.602 74.0038 39.6061 74.9864 39.6061C75.1789 39.6061 75.3672 39.6144 75.5596 39.6227C76.1165 39.6559 76.4481 40.0212 76.4481 40.598C76.4522 49.9234 76.4604 59.2489 76.4645 68.5784C76.4645 69.4416 76.4768 70.309 76.4277 71.1723C76.3908 71.8321 76.051 72.106 75.4 72.1143C74.143 72.1268 72.8901 72.1393 71.6331 72.1393C68.681 72.1393 65.729 72.131 62.7728 72.1268C59.8412 72.1268 56.9055 72.1268 53.9739 72.1268L53.9821 72.1309ZM33.4732 56.9663V67.4952C33.6943 67.4952 33.854 67.4952 34.0096 67.4952C36.2779 67.4952 38.5462 67.5035 40.8145 67.5035C48.0165 67.5035 55.2186 67.5035 62.4207 67.5035C64.3287 67.5035 66.2367 67.5243 68.1447 67.5243C70.1141 67.5243 72.0794 67.4994 74.0488 67.5118C74.536 67.5118 74.5156 67.5409 74.5197 67.0346C74.5278 65.3247 74.5524 63.6148 74.5197 61.905C74.4582 59.004 74.6343 56.1113 74.5688 53.2104C74.5033 50.2389 74.5483 47.2632 74.5442 44.2917C74.5442 43.5197 74.5442 42.7437 74.5442 41.9717C74.5442 41.8016 74.5238 41.6729 74.3067 41.6771C73.5452 41.6854 72.7795 41.6771 72.018 41.6771C71.8501 41.6771 71.7764 41.7518 71.7805 41.9136C71.7805 42.0257 71.7805 42.1377 71.7805 42.2498C71.7805 44.6527 71.7846 57.8419 71.7805 60.2449C71.7805 60.386 71.7396 60.5271 71.7232 60.6226H70.5481C70.5399 60.5396 70.5235 60.4524 70.5276 60.3611C70.5317 56.2192 70.5399 41.287 70.5358 37.1409C70.5358 36.8255 70.63 36.589 70.8511 36.3898C71.0107 36.2487 71.1704 36.1076 71.3301 35.9664C71.3014 35.9332 71.2687 35.9 71.24 35.8668C71.0517 36.037 70.8674 36.2155 70.6668 36.369C70.5972 36.423 70.4293 36.4562 70.3884 36.4147C70.1714 36.1947 69.9053 36.1325 69.6186 36.1325C69.1765 36.1325 68.7343 36.1325 68.2921 36.1325C63.0389 36.1408 57.7858 36.1615 52.5327 36.1615C48.1639 36.1615 43.7952 36.1366 39.4265 36.1242C39.017 36.1242 38.5994 36.1159 38.194 36.1657C37.6659 36.2279 37.5185 36.4064 37.5144 36.9459C37.5062 37.585 37.5348 38.2283 37.5348 38.8716C37.5348 41.6812 37.5348 44.4909 37.5307 47.3005C37.5307 48.0351 37.5103 55.7959 37.5144 56.5263C37.5144 56.7961 37.453 56.9289 37.15 56.8667C36.9657 56.8293 36.7692 56.8293 36.5808 56.8501C36.3516 56.875 36.2738 56.792 36.2779 56.5678C36.286 55.9785 36.286 48.3588 36.286 47.7695C36.2901 45.8355 36.2942 43.9016 36.3065 41.9676C36.3065 41.7227 36.196 41.6729 35.9953 41.6729C35.2829 41.6729 34.5705 41.6895 33.8581 41.6729C33.5755 41.6646 33.4978 41.7518 33.5018 42.0298C33.5141 43.7522 33.51 45.4703 33.51 47.1926C33.51 47.9646 33.51 48.7406 33.4978 49.5126V56.958L33.4732 56.9663ZM72.2514 71.94C72.2514 71.94 72.2882 71.9027 72.3087 71.8819C71.0517 70.6161 69.7947 69.3503 68.5377 68.0845C68.5336 68.0887 68.5254 68.097 68.5213 68.1011C69.766 69.3794 71.0107 70.6576 72.2554 71.9359L72.2514 71.94ZM35.7579 71.8155C35.9872 71.6039 36.2287 71.3839 36.4703 71.164C36.4539 71.1474 36.4334 71.1308 36.4171 71.11C36.1919 71.3507 35.9708 71.5873 35.7579 71.8155Z" fill="white"/>
<path d="M53.9857 78.8502C50.8616 78.8502 47.7417 78.8502 44.6176 78.8502C44.3269 78.8502 44.0321 78.8419 43.7496 78.7879C43.3156 78.7091 43.0577 78.3895 43.0331 77.9372C43.0167 77.6425 43.0454 77.3437 43.0208 77.0532C42.9635 76.3726 43.4999 76.0115 44.0076 75.9866C44.548 75.9575 45.0926 75.9617 45.6331 75.9575C46.0138 75.9575 46.3946 75.9575 46.7795 75.9575C47.8686 75.9575 48.5524 75.3184 48.6425 74.2228C48.667 73.9198 48.708 73.6127 48.7121 73.3097C48.7121 73.0566 48.8103 72.9902 49.0519 72.9902C51.4512 72.9943 53.8505 72.9902 56.2499 72.9902C57.1629 72.9902 58.076 72.9985 58.989 72.9902C59.2265 72.9902 59.2879 73.069 59.3043 73.3056C59.3411 73.8036 59.3985 74.2975 59.4967 74.7872C59.6237 75.4346 60.3647 75.9617 61.114 75.97C61.9165 75.9783 62.719 75.97 63.5256 75.97C63.6567 75.97 63.7877 75.97 63.9187 75.9783C64.6884 76.0281 65.0201 76.3809 65.0283 77.1569C65.0283 77.3603 65.0283 77.5637 65.0201 77.767C64.9955 78.431 64.627 78.817 63.9637 78.846C63.542 78.8668 63.1203 78.8585 62.6986 78.8627C59.7956 78.8627 56.8968 78.8627 53.9938 78.8627V78.8544L53.9857 78.8502Z" fill="white"/>
<path d="M71.7145 57.0785C71.7268 57.1864 71.7513 57.2943 71.7513 57.4063C71.7554 59.5769 71.7718 61.7432 71.7513 63.9138C71.7431 65.0177 70.912 65.8643 69.8147 65.8892C68.6314 65.9183 67.444 65.8892 66.2607 65.8892C64.9955 65.8892 63.7304 65.9142 62.4652 65.9142C56.1967 65.9142 49.9281 65.9142 43.6596 65.9142C42.1446 65.9142 40.6297 65.9266 39.1107 65.9308C38.779 65.9308 38.4474 65.9141 38.1198 65.8892C37.0717 65.8062 36.2896 64.9928 36.2732 63.9221C36.2487 62.3865 36.2651 60.8468 36.261 59.3112C36.261 58.0081 36.2528 56.7049 36.261 55.4018C36.261 54.9826 36.2814 54.9785 36.6868 54.9577C37.4934 54.9204 37.4975 54.9204 37.4975 55.7338C37.4975 58.2986 37.4975 60.8676 37.4975 63.4324C37.4975 63.4614 37.4975 63.4946 37.4975 63.5237C37.4893 64.3827 37.649 64.6235 38.6234 64.665C39.0452 64.6816 39.4669 64.665 39.8886 64.665C45.3137 64.665 50.7388 64.6567 56.1598 64.6525C60.1191 64.6525 64.0743 64.6525 68.0336 64.6525C68.5167 64.6525 68.9999 64.6774 69.4789 64.665C70.2691 64.6442 70.5107 64.3744 70.5107 63.5735C70.5107 61.5067 70.5066 59.4399 70.4984 57.3731C70.4984 57.1366 70.5353 57.0162 70.8219 57.066C71.0921 57.1117 71.3787 57.0743 71.7063 57.0743L71.7145 57.0785Z" fill="white"/>
<path d="M51.0172 41.5486C50.9639 41.9262 50.9107 42.2997 50.8657 42.6774C50.7347 43.7357 50.6077 44.7981 50.4849 45.8564C50.4603 46.0764 50.358 46.1552 50.1492 46.1511C49.6169 46.1469 49.0846 46.1511 48.5523 46.1511C48.1879 46.1511 48.1634 46.1262 48.2207 45.7651C48.3967 44.5906 48.581 43.4161 48.7571 42.2375C48.9454 40.9717 49.1256 39.7017 49.3016 38.4359C49.3712 37.9296 49.3548 37.9255 49.8585 37.9296C50.3784 37.9296 50.9025 37.9296 51.4225 37.9504C51.5167 37.9504 51.6559 38.0292 51.6928 38.1122C52.0981 39.0502 52.4912 39.9964 52.8883 40.9426C53.0398 41.3078 53.1913 41.6731 53.3428 42.0383C53.3837 42.1379 53.437 42.2292 53.5148 42.3827C53.5885 42.2541 53.6417 42.1835 53.6744 42.1088C54.2272 40.8098 54.7799 39.515 55.3204 38.2118C55.4105 38.0002 55.5415 37.9213 55.7585 37.9255C56.2908 37.9338 56.823 37.9421 57.3553 37.9213C57.6133 37.9089 57.687 38.0209 57.7197 38.245C57.8548 39.212 57.99 40.179 58.1292 41.1418C58.3503 42.6525 58.5796 44.159 58.8006 45.6697C58.8129 45.761 58.8252 45.8523 58.8334 45.9436C58.8457 46.093 58.7802 46.1594 58.6205 46.1594C58.0596 46.1594 57.4945 46.1677 56.9336 46.176C56.7207 46.176 56.606 46.1054 56.5815 45.8647C56.4341 44.5948 56.2703 43.3207 56.1106 42.0507C56.0901 41.9013 56.0533 41.7561 56.0083 41.5154C55.9141 41.6357 55.8527 41.6897 55.824 41.7519C55.2139 43.1132 54.6039 44.4703 54.0061 45.8357C53.8996 46.0805 53.7359 46.1552 53.4943 46.1718C53.2486 46.1843 53.1381 46.0556 53.048 45.8481C52.4789 44.5574 51.9057 43.2709 51.3324 41.9802C51.2628 41.8266 51.1809 41.6814 51.1032 41.532C51.0745 41.532 51.0458 41.5403 51.0172 41.5444V41.5486Z" fill="white"/>
<path d="M59.8202 43.5282C60.549 43.5282 61.241 43.5199 61.9288 43.5406C62.0066 43.5406 62.1172 43.69 62.154 43.7896C62.2891 44.1466 62.5594 44.3582 62.9893 44.3707C63.3578 44.379 63.714 44.3458 63.9187 43.9515C64.0415 43.7149 64.0292 43.4825 63.8245 43.3539C63.5338 43.1713 63.2063 43.0426 62.8828 42.9181C62.24 42.6691 61.5726 42.4782 60.9462 42.1918C60.3484 41.9221 60.07 41.3535 59.9922 40.7268C59.7956 39.1124 60.6718 37.9836 62.2727 37.8217C62.8255 37.7636 63.3987 37.7968 63.9474 37.8757C65.0242 38.0292 65.9209 38.8551 66.0396 39.9964C66.0846 40.4156 66.0642 40.4488 65.6424 40.4363C65.1798 40.4239 64.7171 40.4073 64.2585 40.4239C64.0047 40.4322 63.8573 40.3782 63.7631 40.1126C63.6239 39.7183 63.2718 39.6768 62.9197 39.6768C62.6412 39.6768 62.4079 39.7432 62.2686 40.0213C62.1499 40.262 62.1663 40.4861 62.4079 40.594C62.9033 40.8057 63.4192 40.9717 63.9228 41.1626C64.3896 41.341 64.8809 41.4821 65.3067 41.7312C66.1051 42.196 66.3508 42.9513 66.2935 43.8643C66.2034 45.2588 65.2166 45.9975 64.2094 46.2175C63.2063 46.4374 62.2195 46.4208 61.2737 45.9394C60.3115 45.4539 59.898 44.628 59.8243 43.5282H59.8202Z" fill="white"/>
<path d="M47.238 46.1511C46.9883 46.1511 46.7795 46.1511 46.5706 46.1511C45.2359 46.1511 43.9011 46.1594 42.5663 46.1552C42.1036 46.1552 42.1159 46.1428 42.1159 45.6738C42.1159 43.4037 42.1159 41.1377 42.1077 38.8676C42.1077 38.6352 42.1077 38.3986 42.1036 38.1662C42.1036 38.0002 42.1732 37.9213 42.337 37.9255C42.988 37.9255 43.639 37.9255 44.3433 37.9255C44.3433 38.0707 44.3433 38.1994 44.3433 38.3239C44.3433 40.1334 44.3433 41.947 44.3351 43.7565C44.3351 44.0304 44.417 44.1009 44.679 44.0926C45.4529 44.0719 46.2226 44.0885 46.9965 44.0802C47.152 44.0802 47.2421 44.1092 47.238 44.296C47.2298 44.8936 47.238 45.4954 47.238 46.1469V46.1511Z" fill="white"/>
<path d="M67.1 49.1932H40.6952C40.4261 49.1932 40.2079 49.4143 40.2079 49.687V51.5795C40.2079 51.8523 40.4261 52.0734 40.6952 52.0734H67.1C67.3691 52.0734 67.5873 51.8523 67.5873 51.5795V49.687C67.5873 49.4143 67.3691 49.1932 67.1 49.1932Z" fill="white"/>
<path d="M67.1 54.0987H40.6952C40.4261 54.0987 40.2079 54.3198 40.2079 54.5925V56.485C40.2079 56.7578 40.4261 56.9789 40.6952 56.9789H67.1C67.3691 56.9789 67.5873 56.7578 67.5873 56.485V54.5925C67.5873 54.3198 67.3691 54.0987 67.1 54.0987Z" fill="white"/>
<path d="M67.1 59H40.6952C40.4261 59 40.2079 59.2211 40.2079 59.4939V61.3863C40.2079 61.6591 40.4261 61.8802 40.6952 61.8802H67.1C67.3691 61.8802 67.5873 61.6591 67.5873 61.3863V59.4939C67.5873 59.2211 67.3691 59 67.1 59Z" fill="white"/>
</g>
<defs>
<filter id="filter0_d_827_250" x="0" y="0.858521" width="114" height="120" filterUnits="userSpaceOnUse" color-interpolation-filters="sRGB">
<feFlood flood-opacity="0" result="BackgroundImageFix"/>
<feColorMatrix in="SourceAlpha" type="matrix" values="0 0 0 0 0 0 0 0 0 0 0 0 0 0 0 0 0 0 127 0" result="hardAlpha"/>
<feMorphology radius="5" operator="erode" in="SourceAlpha" result="effect1_dropShadow_827_250"/>
<feOffset dx="3" dy="4"/>
<feGaussianBlur stdDeviation="6.5"/>
<feComposite in2="hardAlpha" operator="out"/>
<feColorMatrix type="matrix" values="0 0 0 0 0 0 0 0 0 0 0 0 0 0 0 0 0 0 0.14 0"/>
<feBlend mode="normal" in2="BackgroundImageFix" result="effect1_dropShadow_827_250"/>
<feBlend mode="normal" in="SourceGraphic" in2="effect1_dropShadow_827_250" result="shape"/>
</filter>
<clipPath id="clip0_827_250">
<rect width="44.9362" height="44" fill="white" transform="translate(31.5319 34.8585)"/>
</clipPath>
</defs>
</svg>
