<svg width="46" height="45" viewBox="0 0 46 45" fill="none" xmlns="http://www.w3.org/2000/svg">
<g clip-path="url(#clip0_548_1918)">
<path d="M22.9825 37.6114C17.1971 37.6114 11.4117 37.6114 5.62631 37.6114C4.33248 37.6114 3.03455 37.6031 1.74072 37.599C0.930023 37.599 0.577903 37.2753 0.553337 36.4452C0.524676 35.4782 0.536959 34.5112 0.541054 33.5443C0.541054 32.7723 0.569715 31.9963 0.569715 31.2243C0.573809 25.9287 0.577903 20.6373 0.577903 15.3417C0.577903 12.2954 0.569715 9.25337 0.545148 6.20715C0.541054 5.58048 0.88089 5.08661 1.60151 5.09906C2.61692 5.11566 3.63233 5.09906 4.64365 5.09906C4.74601 5.09906 4.84428 5.09076 4.94664 5.09491C5.18412 5.10321 5.27419 5.0036 5.2701 4.74629C5.25372 3.99512 5.28648 3.23979 5.26191 2.48861C5.22097 1.34316 6.26095 0.309773 7.44014 0.338825C9.27853 0.384476 11.1169 0.359575 12.9553 0.359575C21.2833 0.359575 29.6114 0.351275 37.9353 0.351275C38.1851 0.351275 38.4389 0.359575 38.6887 0.359575C39.7573 0.359575 40.5434 1.21866 40.6786 1.88683C40.7236 2.11509 40.74 2.35165 40.7441 2.58406C40.7564 3.31864 40.7686 4.04907 40.7523 4.78365C40.7482 5.01606 40.8137 5.08661 41.0348 5.08661C42.0174 5.08246 43.0042 5.08661 43.9868 5.08661C44.1793 5.08661 44.3676 5.09491 44.5601 5.10321C45.1169 5.13641 45.4486 5.50162 45.4486 6.0785C45.4526 15.4039 45.4608 24.7293 45.4649 34.0589C45.4649 34.9221 45.4772 35.7895 45.4281 36.6527C45.3912 37.3126 45.0514 37.5865 44.4004 37.5948C43.1434 37.6073 41.8905 37.6197 40.6335 37.6197C37.6815 37.6197 34.7294 37.6114 31.7732 37.6073C28.8416 37.6073 25.9059 37.6073 22.9743 37.6073L22.9825 37.6114ZM2.47362 22.4467V32.9757C2.69471 32.9757 2.8544 32.9757 3.00998 32.9757C5.27829 32.9757 7.54659 32.984 9.81489 32.984C17.017 32.984 24.219 32.984 31.4211 32.984C33.3291 32.984 35.2371 33.0047 37.1451 33.0047C39.1145 33.0047 41.0798 32.9798 43.0492 32.9923C43.5365 32.9923 43.516 33.0213 43.5201 32.515C43.5283 30.8052 43.5528 29.0953 43.5201 27.3854C43.4587 24.4845 43.6347 21.5918 43.5692 18.6908C43.5037 15.7193 43.5487 12.7437 43.5447 9.77214C43.5447 9.00021 43.5447 8.22413 43.5447 7.4522C43.5447 7.28204 43.5242 7.15339 43.3072 7.15754C42.5456 7.16584 41.78 7.15754 41.0184 7.15754C40.8505 7.15754 40.7768 7.23224 40.7809 7.3941C40.7809 7.50615 40.7809 7.61821 40.7809 7.73026C40.7809 10.1332 40.785 23.3224 40.7809 25.7254C40.7809 25.8665 40.74 26.0076 40.7236 26.103H39.5485C39.5403 26.02 39.5239 25.9329 39.528 25.8416C39.5321 21.6997 39.5403 6.76742 39.5362 2.62141C39.5362 2.306 39.6304 2.06944 39.8515 1.87023C40.0112 1.72913 40.1709 1.58802 40.3305 1.44692C40.3019 1.41372 40.2691 1.38051 40.2405 1.34731C40.0521 1.51747 39.8679 1.69593 39.6672 1.84948C39.5976 1.90344 39.4298 1.93664 39.3888 1.89513C39.1718 1.67518 38.9057 1.61292 38.6191 1.61292C38.1769 1.61292 37.7347 1.61292 37.2925 1.61292C32.0394 1.62122 26.7862 1.64198 21.5331 1.64198C17.1644 1.64198 12.7956 1.61707 8.42689 1.60462C8.01745 1.60462 7.59982 1.59632 7.19447 1.64613C6.66629 1.70838 6.51889 1.88683 6.5148 2.42636C6.50661 3.06548 6.53527 3.70876 6.53527 4.35203C6.53527 7.16169 6.53527 9.97135 6.53118 12.781C6.53118 13.5156 6.5107 21.2764 6.5148 22.0068C6.5148 22.2766 6.45338 22.4094 6.1504 22.3471C5.96615 22.3098 5.76962 22.3098 5.58127 22.3305C5.35199 22.3554 5.27419 22.2724 5.27829 22.0483C5.28648 21.459 5.28648 13.8393 5.28648 13.25C5.29057 11.316 5.29466 9.38202 5.30695 7.44805C5.30695 7.20319 5.1964 7.15339 4.99577 7.15339C4.28334 7.15339 3.57092 7.16999 2.85849 7.15339C2.57598 7.14509 2.49818 7.23224 2.50228 7.5103C2.51456 9.23262 2.51047 10.9508 2.51047 12.6731C2.51047 13.445 2.51047 14.2211 2.49818 14.993V22.4384L2.47362 22.4467ZM41.2518 37.4205C41.2518 37.4205 41.2886 37.3832 41.3091 37.3624C40.0521 36.0966 38.7951 34.8308 37.5382 33.565C37.5341 33.5692 37.5259 33.5775 37.5218 33.5816C38.7665 34.8599 40.0112 36.1381 41.2559 37.4164L41.2518 37.4205ZM4.7583 37.296C4.98758 37.0844 5.22915 36.8644 5.47072 36.6444C5.45435 36.6278 5.43387 36.6112 5.4175 36.5905C5.1923 36.8312 4.97121 37.0677 4.7583 37.296Z" fill="white"/>
<path d="M22.9861 44.3307C19.8621 44.3307 16.7422 44.3307 13.6181 44.3307C13.3274 44.3307 13.0326 44.3224 12.7501 44.2684C12.3161 44.1896 12.0582 43.87 12.0336 43.4176C12.0172 43.123 12.0459 42.8242 12.0213 42.5336C11.964 41.853 12.5004 41.492 13.0081 41.4671C13.5485 41.438 14.0931 41.4422 14.6335 41.438C15.0143 41.438 15.3951 41.438 15.78 41.438C16.8691 41.438 17.5529 40.7989 17.6429 39.7032C17.6675 39.4003 17.7084 39.0932 17.7125 38.7902C17.7125 38.537 17.8108 38.4706 18.0524 38.4706C20.4517 38.4748 22.851 38.4706 25.2504 38.4706C26.1634 38.4706 27.0765 38.4789 27.9895 38.4706C28.227 38.4706 28.2884 38.5495 28.3048 38.7861C28.3416 39.2841 28.399 39.7779 28.4972 40.2677C28.6241 40.9151 29.3652 41.4422 30.1145 41.4505C30.917 41.4588 31.7195 41.4505 32.5261 41.4505C32.6571 41.4505 32.7882 41.4505 32.9192 41.4588C33.6889 41.5086 34.0206 41.8613 34.0288 42.6374C34.0288 42.8408 34.0288 43.0441 34.0206 43.2475C33.996 43.9115 33.6275 44.2975 32.9642 44.3265C32.5425 44.3473 32.1208 44.339 31.6991 44.3431C28.7961 44.3431 25.8973 44.3431 22.9943 44.3431V44.3348L22.9861 44.3307Z" fill="white"/>
<path d="M40.715 22.5589C40.7272 22.6668 40.7518 22.7747 40.7518 22.8868C40.7559 25.0573 40.7723 27.2237 40.7518 29.3942C40.7436 30.4982 39.9125 31.3448 38.8152 31.3697C37.6319 31.3988 36.4445 31.3697 35.2612 31.3697C33.996 31.3697 32.7309 31.3946 31.4657 31.3946C25.1971 31.3946 18.9286 31.3946 12.6601 31.3946C11.1451 31.3946 9.63019 31.4071 8.11116 31.4112C7.77952 31.4112 7.44787 31.3946 7.12031 31.3697C6.07215 31.2867 5.29011 30.4733 5.27374 29.4025C5.24917 27.867 5.26555 26.3273 5.26145 24.7917C5.26145 23.4886 5.25326 22.1854 5.26145 20.8823C5.26145 20.4631 5.28192 20.4589 5.68727 20.4382C6.49387 20.4008 6.49796 20.4008 6.49796 21.2143C6.49796 23.7791 6.49796 26.348 6.49796 28.9128C6.49796 28.9419 6.49796 28.9751 6.49796 29.0041C6.48978 29.8632 6.64946 30.1039 7.62393 30.1454C8.04565 30.162 8.46738 30.1454 8.8891 30.1454C14.3142 30.1454 19.7393 30.1371 25.1603 30.133C29.1196 30.133 33.0748 30.133 37.0341 30.133C37.5172 30.133 38.0004 30.1579 38.4794 30.1454C39.2696 30.1247 39.5112 29.8549 39.5112 29.0539C39.5112 26.9872 39.5071 24.9204 39.4989 22.8536C39.4989 22.617 39.5358 22.4967 39.8224 22.5465C40.0926 22.5921 40.3792 22.5548 40.7068 22.5548L40.715 22.5589Z" fill="white"/>
<path d="M20.0176 7.02902C19.9644 7.40669 19.9111 7.7802 19.8661 8.15787C19.7351 9.21616 19.6082 10.2786 19.4853 11.3369C19.4608 11.5568 19.3584 11.6357 19.1496 11.6316C18.6173 11.6274 18.085 11.6316 17.5528 11.6316C17.1884 11.6316 17.1638 11.6067 17.2211 11.2456C17.3972 10.0711 17.5814 8.8966 17.7575 7.71795C17.9458 6.45215 18.126 5.1822 18.302 3.9164C18.3716 3.41008 18.3553 3.40593 18.8589 3.41008C19.3789 3.41008 19.903 3.41008 20.4229 3.43083C20.5171 3.43083 20.6563 3.50969 20.6932 3.59269C21.0985 4.53063 21.4916 5.47686 21.8887 6.4231C22.0402 6.78831 22.1917 7.15353 22.3432 7.51874C22.3842 7.61835 22.4374 7.70965 22.5152 7.86321C22.5889 7.73455 22.6421 7.664 22.6749 7.58929C23.2276 6.29029 23.7804 4.99545 24.3208 3.69229C24.4109 3.48064 24.5419 3.40178 24.7589 3.40593C25.2912 3.41423 25.8235 3.42253 26.3557 3.40178C26.6137 3.38933 26.6874 3.50139 26.7202 3.7255C26.8553 4.69248 26.9904 5.65947 27.1296 6.62231C27.3507 8.13297 27.58 9.63947 27.8011 11.1501C27.8134 11.2414 27.8256 11.3327 27.8338 11.424C27.8461 11.5734 27.7806 11.6399 27.6209 11.6399C27.06 11.6399 26.495 11.6482 25.934 11.6565C25.7211 11.6565 25.6065 11.5859 25.5819 11.3452C25.4345 10.0752 25.2707 8.80114 25.111 7.53119C25.0906 7.38179 25.0537 7.23653 25.0087 6.99582C24.9145 7.11618 24.8531 7.17013 24.8244 7.23238C24.2144 8.59363 23.6043 9.95074 23.0065 11.3161C22.9001 11.561 22.7363 11.6357 22.4947 11.6523C22.2491 11.6648 22.1385 11.5361 22.0484 11.3286C21.4793 10.0379 20.9061 8.75134 20.3329 7.46064C20.2633 7.30708 20.1814 7.16183 20.1036 7.01242C20.0749 7.01242 20.0463 7.02072 20.0176 7.02487V7.02902Z" fill="white"/>
<path d="M28.8206 9.00865C29.5494 9.00865 30.2413 9.00035 30.9292 9.0211C31.007 9.0211 31.1175 9.1705 31.1544 9.27011C31.2895 9.62702 31.5597 9.83868 31.9896 9.85113C32.3581 9.85943 32.7143 9.82623 32.9191 9.43196C33.0419 9.1954 33.0296 8.963 32.8249 8.83434C32.5342 8.65173 32.2066 8.52308 31.8832 8.39857C31.2404 8.14956 30.573 7.95866 29.9465 7.6723C29.3487 7.40254 29.0703 6.83396 28.9925 6.20729C28.796 4.59288 29.6722 3.46403 31.2731 3.30218C31.8259 3.24407 32.3991 3.27728 32.9477 3.35613C34.0246 3.50969 34.9212 4.33557 35.04 5.47686C35.085 5.89603 35.0645 5.92923 34.6428 5.91678C34.1801 5.90433 33.7175 5.88773 33.2589 5.90433C33.005 5.91263 32.8576 5.85868 32.7635 5.59307C32.6243 5.1988 32.2721 5.1573 31.92 5.1573C31.6416 5.1573 31.4082 5.2237 31.269 5.50176C31.1503 5.74247 31.1667 5.96658 31.4082 6.07448C31.9037 6.28614 32.4195 6.45215 32.9232 6.64306C33.3899 6.82151 33.8812 6.96262 34.3071 7.21163C35.1055 7.67645 35.3511 8.43178 35.2938 9.34481C35.2037 10.7393 34.217 11.478 33.2098 11.698C32.2066 11.9179 31.2199 11.9013 30.2741 11.4199C29.3119 10.9343 28.8984 10.1084 28.8247 9.00865H28.8206Z" fill="white"/>
<path d="M16.2384 11.6316C15.9886 11.6316 15.7798 11.6316 15.571 11.6316C14.2362 11.6316 12.9015 11.6399 11.5667 11.6357C11.104 11.6357 11.1163 11.6233 11.1163 11.1543C11.1163 8.88416 11.1163 6.61817 11.1081 4.34803C11.1081 4.11563 11.1081 3.87907 11.104 3.64666C11.104 3.48065 11.1736 3.4018 11.3374 3.40595C11.9884 3.40595 12.6394 3.40595 13.3436 3.40595C13.3436 3.5512 13.3436 3.67986 13.3436 3.80436C13.3436 5.61383 13.3436 7.42745 13.3355 9.23692C13.3355 9.51083 13.4173 9.58139 13.6794 9.57309C14.4532 9.55234 15.223 9.56894 15.9968 9.56064C16.1524 9.56064 16.2425 9.58969 16.2384 9.77644C16.2302 10.3741 16.2384 10.9758 16.2384 11.6274V11.6316Z" fill="white"/>
<path d="M36.1003 14.6736H9.69549C9.42639 14.6736 9.20825 14.8948 9.20825 15.1675V17.06C9.20825 17.3327 9.42639 17.5539 9.69549 17.5539H36.1003C36.3694 17.5539 36.5876 17.3327 36.5876 17.06V15.1675C36.5876 14.8948 36.3694 14.6736 36.1003 14.6736Z" fill="white"/>
<path d="M36.1003 19.5791H9.69549C9.42639 19.5791 9.20825 19.8002 9.20825 20.073V21.9655C9.20825 22.2382 9.42639 22.4593 9.69549 22.4593H36.1003C36.3694 22.4593 36.5876 22.2382 36.5876 21.9655V20.073C36.5876 19.8002 36.3694 19.5791 36.1003 19.5791Z" fill="white"/>
<path d="M36.1003 24.4805H9.69549C9.42639 24.4805 9.20825 24.7016 9.20825 24.9743V26.8668C9.20825 27.1396 9.42639 27.3607 9.69549 27.3607H36.1003C36.3694 27.3607 36.5876 27.1396 36.5876 26.8668V24.9743C36.5876 24.7016 36.3694 24.4805 36.1003 24.4805Z" fill="white"/>
</g>
<defs>
<clipPath id="clip0_548_1918">
<rect width="44.9362" height="44" fill="white" transform="translate(0.532227 0.338989)"/>
</clipPath>
</defs>
</svg>
