<svg width="40" height="36" viewBox="0 0 40 36" fill="none" xmlns="http://www.w3.org/2000/svg">
<path fill-rule="evenodd" clip-rule="evenodd" d="M2.28473 2.49298C3.34743 1.43027 4.78877 0.833252 6.29166 0.833252H20C21.5029 0.833252 22.9442 1.43027 24.0069 2.49298C25.0696 3.55568 25.6667 4.99702 25.6667 6.49992V10.4166C25.6667 11.3831 24.8831 12.1666 23.9167 12.1666C22.9502 12.1666 22.1667 11.3831 22.1667 10.4166V6.49992C22.1667 5.92528 21.9384 5.37418 21.532 4.96785C21.1257 4.56152 20.5746 4.33325 20 4.33325H6.29166C5.71703 4.33325 5.16593 4.56152 4.7596 4.96785C4.35327 5.37418 4.125 5.92528 4.125 6.49992V29.9999C4.125 30.5745 4.35327 31.1256 4.7596 31.532C5.16593 31.9383 5.71703 32.1666 6.29166 32.1666H20C20.5746 32.1666 21.1257 31.9383 21.532 31.532C21.9384 31.1256 22.1667 30.5745 22.1667 29.9999V26.0832C22.1667 25.1167 22.9502 24.3332 23.9167 24.3332C24.8831 24.3332 25.6667 25.1167 25.6667 26.0832V29.9999C25.6667 31.5028 25.0696 32.9441 24.0069 34.0068C22.9442 35.0695 21.5029 35.6666 20 35.6666H6.29166C4.78877 35.6666 3.34743 35.0695 2.28473 34.0068C1.22202 32.9441 0.625 31.5028 0.625 29.9999V6.49992C0.625 4.99702 1.22202 3.55568 2.28473 2.49298ZM30.5125 11.1376C31.1959 10.4541 32.3039 10.4541 32.9873 11.1376L38.8623 17.0126C39.5457 17.696 39.5457 18.804 38.8623 19.4874L32.9873 25.3624C32.3039 26.0458 31.1959 26.0458 30.5125 25.3624C29.829 24.679 29.829 23.571 30.5125 22.8876L33.4 20H10.2083C9.24175 20 8.45825 19.2165 8.45825 18.25C8.45825 17.2835 9.24175 16.5 10.2083 16.5H33.4L30.5125 13.6124C29.829 12.929 29.829 11.821 30.5125 11.1376Z" fill="#0D9488"/>
</svg>
