<svg width="343" height="296" viewBox="0 0 343 296" fill="none" xmlns="http://www.w3.org/2000/svg">
<g clip-path="url(#clip0_29_5)">
<path d="M254.14 255C250 255 246.64 251.64 246.64 247.5V140.36L171.04 93.54C167.52 91.36 166.43 86.74 168.61 83.21C170.79 79.69 175.41 78.6 178.94 80.78L258.09 129.8C260.3 131.17 261.64 133.58 261.64 136.18V247.5C261.64 251.64 258.28 255 254.14 255Z" fill="white"/>
<path d="M174.99 190.66C173.63 190.66 172.26 190.29 171.06 189.55L3.56999 86.4C1.19999 84.94 -0.170013 82.28 0.0199868 79.5C0.209987 76.72 1.92999 74.27 4.47999 73.15L168.9 0.640015C170.76 -0.179985 172.88 -0.209985 174.76 0.560015L337.65 66.94C340.16 67.96 341.92 70.26 342.26 72.94C342.6 75.62 341.47 78.29 339.29 79.9L281.59 122.79C278.26 125.26 273.57 124.57 271.1 121.25C268.63 117.93 269.32 113.23 272.64 110.76L319.66 75.81L172.04 15.65L23.59 81.11L174.85 174.26L220.39 144.21C223.84 141.93 228.5 142.88 230.78 146.34C233.06 149.8 232.11 154.45 228.65 156.73L179.12 189.41C177.87 190.24 176.43 190.65 174.99 190.65V190.66Z" fill="white"/>
<path d="M44.95 138.73V187.07C44.95 187.07 41.21 194.39 55.33 199.33C69.45 204.27 129.03 222.82 159.16 246.14C165.12 251.42 171.93 258.23 179.76 248.86C187.59 239.49 221.63 213.8 225.72 215.16C204.95 204.78 194.57 202.73 188.61 205.97C182.65 209.21 176.18 212.44 172.44 212.44C168.7 212.44 151.5 201.04 147.76 198.48C144.02 195.92 52.1 141.12 44.95 138.74V138.73Z" fill="white"/>
<path d="M276.35 194.65C276.35 194.65 274.05 167.08 287.84 145.88C301.63 124.69 310.56 119.58 310.56 119.58V172.43C310.56 172.43 312.86 183.41 302.65 184.94C292.44 186.47 289.37 183.66 276.35 194.64V194.65Z" fill="white"/>
<path d="M233.84 295.5H277.24C277.24 295.5 274.56 246.1 254.13 246.1C233.7 246.1 233.83 295.5 233.83 295.5H233.84Z" fill="white"/>
</g>
<defs>
<clipPath id="clip0_29_5">
<rect width="342.32" height="295.5" fill="white"/>
</clipPath>
</defs>
</svg>
