<svg width="114" height="120" viewBox="0 0 114 120" fill="none" xmlns="http://www.w3.org/2000/svg">
<g filter="url(#filter0_d_827_280)">
<rect x="5" y="4.00143" width="98" height="104" rx="22" fill="#0268B2"/>
</g>
<path d="M50.0626 77.9886C48.0462 77.4193 46.07 76.8629 44.0984 76.3021C39.4039 74.9581 34.7183 73.5927 30.0194 72.2786C29.2638 72.0646 29 71.7778 29 70.9774C29.0358 59.9597 29.0224 48.9378 29.0224 37.9201C29.0224 37.6419 29.0224 37.3594 29.0224 36.9485C29.9925 37.2224 30.8778 37.4707 31.7586 37.7232C37.6557 39.4182 43.5484 41.1261 49.4501 42.7954C49.9732 42.9453 50.1073 43.1507 50.1073 43.6387C50.0984 54.8618 50.1028 66.0892 50.1028 77.3123C50.1028 77.5135 50.0805 77.7147 50.0626 77.9886Z" fill="white"/>
<path d="M80 37.0084V71.9704C73.0521 73.9651 66.0641 75.9683 59 77.9972C58.9821 77.6804 58.9597 77.4364 58.9597 77.1924C58.9597 66.0464 58.9687 54.896 58.9508 43.75C58.9508 43.155 59.1341 42.9196 59.7288 42.7526C66.3234 40.8821 72.9135 38.9816 79.4992 37.0897C79.6468 37.0469 79.8033 37.0384 80 37.0084Z" fill="white"/>
<path d="M57.9627 77.9758H51.0999V43.0523H57.9627V77.9758Z" fill="white"/>
<path d="M50.389 42.2647C47.9389 41.3316 45.4843 40.407 43.0343 39.4696C40.2533 38.4081 37.4903 37.2995 34.6915 36.2893C33.8062 35.9725 33.2384 35.5231 33.0194 34.6542C32.9389 34.3417 32.7913 34.0464 32.5901 33.5199C38.684 36.4605 44.5633 39.2941 50.4426 42.132C50.4247 42.1748 50.4068 42.2219 50.389 42.2647Z" fill="white"/>
<path d="M58.6066 42.1363C64.4859 39.2984 70.3651 36.4605 76.2668 33.6141C76.2399 34.9067 75.6006 35.797 74.4247 36.2465C69.2832 38.2069 64.1461 40.1673 59.0045 42.1277C58.8882 42.1705 58.772 42.2133 58.6602 42.2518C58.6423 42.2133 58.6245 42.1748 58.6066 42.1363Z" fill="white"/>
<path d="M57.547 41.6911C62.2236 38.1726 66.9002 34.6499 71.7467 31.003C71.5678 31.8976 71.456 32.5782 71.2817 33.2417C71.2325 33.4343 71.0268 33.6269 70.8391 33.7382C66.538 36.3792 62.2325 39.0116 57.9225 41.644C57.8242 41.704 57.7079 41.7425 57.6006 41.7896C57.5827 41.7553 57.5648 41.7211 57.5425 41.6868L57.547 41.6911Z" fill="white"/>
<path d="M37.3428 31.0202C42.1937 34.6713 46.8525 38.1812 51.5156 41.6911C51.4933 41.7254 51.4709 41.7596 51.4486 41.7938C51.2295 41.6783 51.006 41.5713 50.7958 41.4428C46.8033 39.003 42.8286 36.5418 38.8182 34.1363C38.1073 33.7082 37.6513 33.2288 37.5708 32.4241C37.5306 32.0218 37.4411 31.6237 37.3428 31.0202Z" fill="white"/>
<path d="M42.6677 30.0014C46.1997 33.9693 49.6423 37.8345 53.0849 41.6997C53.0581 41.7254 53.0268 41.751 53 41.781C52.468 41.293 51.9314 40.8094 51.3994 40.3171C48.766 37.873 46.1908 35.369 43.4814 33.0105C42.4843 32.1416 42.3815 31.2684 42.6632 30.0014H42.6677Z" fill="white"/>
<path d="M55.9777 41.6954C59.4203 37.8302 62.8584 33.9693 66.3234 30.0785C66.7884 31.2427 66.6274 31.9747 65.778 32.7623C62.7243 35.6002 59.6751 38.438 56.6215 41.2759C56.4382 41.4471 56.2414 41.6055 56.0492 41.7682C56.0268 41.7468 56.0045 41.7211 55.9821 41.6997L55.9777 41.6954Z" fill="white"/>
<defs>
<filter id="filter0_d_827_280" x="0" y="0.00143433" width="114" height="120" filterUnits="userSpaceOnUse" color-interpolation-filters="sRGB">
<feFlood flood-opacity="0" result="BackgroundImageFix"/>
<feColorMatrix in="SourceAlpha" type="matrix" values="0 0 0 0 0 0 0 0 0 0 0 0 0 0 0 0 0 0 127 0" result="hardAlpha"/>
<feMorphology radius="5" operator="erode" in="SourceAlpha" result="effect1_dropShadow_827_280"/>
<feOffset dx="3" dy="4"/>
<feGaussianBlur stdDeviation="6.5"/>
<feComposite in2="hardAlpha" operator="out"/>
<feColorMatrix type="matrix" values="0 0 0 0 0 0 0 0 0 0 0 0 0 0 0 0 0 0 0.14 0"/>
<feBlend mode="normal" in2="BackgroundImageFix" result="effect1_dropShadow_827_280"/>
<feBlend mode="normal" in="SourceGraphic" in2="effect1_dropShadow_827_280" result="shape"/>
</filter>
</defs>
</svg>
