<svg width="51" height="49" viewBox="0 0 51 49" fill="none" xmlns="http://www.w3.org/2000/svg">
<g clip-path="url(#clip0_548_1941)">
<path d="M21.0628 48.4691C19.0464 47.8998 17.0703 47.3434 15.0986 46.7826C10.4041 45.4386 5.71858 44.0732 1.01962 42.7591C0.26403 42.5451 0.000244141 42.2583 0.000244141 41.4579C0.0360117 30.4402 0.0225988 19.4183 0.0225988 8.40061C0.0225988 8.12238 0.0225988 7.83988 0.0225988 7.42896C0.992793 7.70291 1.87804 7.95117 2.75881 8.20371C8.65598 9.89873 14.5487 11.6066 20.4503 13.2759C20.9734 13.4258 21.1075 13.6312 21.1075 14.1192C21.0986 25.3423 21.1031 36.5697 21.1031 47.7928C21.1031 47.994 21.0807 48.1952 21.0628 48.4691Z" fill="white"/>
<path d="M51.0004 7.48889V42.4509C44.0525 44.4456 37.0644 46.4488 30.0004 48.4777C29.9825 48.1609 29.9601 47.9169 29.9601 47.6729C29.9601 36.5269 29.9691 25.3765 29.9512 14.2305C29.9512 13.6355 30.1345 13.4001 30.7291 13.2331C37.3238 11.3626 43.9139 9.46214 50.4996 7.57022C50.6471 7.52741 50.8036 7.51885 51.0004 7.48889Z" fill="white"/>
<path d="M28.963 48.4563H22.1001V13.5328H28.963V48.4563Z" fill="white"/>
<path d="M21.3891 12.7452C18.9391 11.8121 16.4845 10.8875 14.0344 9.9501C11.2535 8.88857 8.49048 7.77995 5.69167 6.76979C4.80643 6.45304 4.23862 6.0036 4.01954 5.13469C3.93907 4.82222 3.79152 4.52688 3.59033 4.00039C9.68422 6.941 15.5635 9.7746 21.4428 12.6125C21.4249 12.6553 21.407 12.7024 21.3891 12.7452Z" fill="white"/>
<path d="M29.6067 12.6168C35.486 9.77888 41.3653 6.941 47.2669 4.09456C47.2401 5.38723 46.6007 6.27754 45.4249 6.72698C40.2833 8.68739 35.1462 10.6478 30.0046 12.6082C29.8884 12.651 29.7721 12.6938 29.6603 12.7323C29.6425 12.6938 29.6246 12.6553 29.6067 12.6168Z" fill="white"/>
<path d="M28.5472 12.1716C33.2238 8.65315 37.9004 5.13041 42.7469 1.48354C42.5681 2.37814 42.4563 3.05871 42.2819 3.72217C42.2327 3.91479 42.0271 4.1074 41.8393 4.21869C37.5383 6.85968 33.2327 9.4921 28.9228 12.1245C28.8244 12.1844 28.7081 12.223 28.6008 12.2701C28.583 12.2358 28.5651 12.2016 28.5427 12.1673L28.5472 12.1716Z" fill="white"/>
<path d="M8.34302 1.50066C13.194 5.15181 17.8527 8.66171 22.5159 12.1716C22.4935 12.2059 22.4712 12.2401 22.4488 12.2743C22.2298 12.1588 22.0062 12.0518 21.7961 11.9233C17.8035 9.48354 13.8289 7.02233 9.81843 4.61676C9.10755 4.18873 8.65151 3.70933 8.57104 2.90462C8.5308 2.50226 8.44138 2.10419 8.34302 1.50066Z" fill="white"/>
<path d="M13.668 0.481934C17.2001 4.44983 20.6427 8.315 24.0853 12.1802C24.0585 12.2058 24.0272 12.2315 24.0004 12.2615C23.4683 11.7735 22.9318 11.2899 22.3998 10.7976C19.7664 8.35352 17.1911 5.84951 14.4817 3.49103C13.4847 2.62212 13.3819 1.74892 13.6635 0.481934L13.668 0.481934Z" fill="white"/>
<path d="M26.9778 12.1759C30.4204 8.31072 33.8586 4.44983 37.3235 0.558979C37.7885 1.72324 37.6276 2.45518 36.7781 3.24277C33.7244 6.08065 30.6752 8.91853 27.6216 11.7564C27.4383 11.9276 27.2416 12.086 27.0493 12.2487C27.027 12.2273 27.0046 12.2016 26.9823 12.1802L26.9778 12.1759Z" fill="white"/>
</g>
<defs>
<clipPath id="clip0_548_1941">
<rect width="51" height="48" fill="white" transform="translate(0.000244141 0.481934)"/>
</clipPath>
</defs>
</svg>
