<svg width="114" height="121" viewBox="0 0 114 121" fill="none" xmlns="http://www.w3.org/2000/svg">
<g filter="url(#filter0_d_827_259)">
<rect x="5" y="4.30005" width="98" height="104" rx="22" fill="#0268B2"/>
</g>
<path d="M42.4628 73.5928C42.4628 74.593 42.4628 75.5446 42.4628 76.4962C42.4575 77.8965 41.5673 78.7886 40.1785 78.794C39.2723 78.794 38.3661 78.8048 37.4545 78.794C36.1998 78.7778 35.3043 77.8857 35.2882 76.6259C35.2775 75.6149 35.2882 74.6038 35.2882 73.5711C34.2747 73.3657 33.4329 72.9061 32.9556 71.987C32.7197 71.5382 32.5427 71.003 32.532 70.5001C32.4838 68.5753 32.4838 66.6452 32.532 64.7204C32.5642 63.293 32.8698 61.9413 33.9423 60.887C34.0281 60.8005 34.1031 60.6545 34.1031 60.5356C34.1139 59.1569 34.1085 57.7782 34.1085 56.2967C33.449 56.2967 32.843 56.2967 32.2317 56.2967C30.3389 56.2967 30.237 56.2048 30.0386 54.2854C29.8455 54.2854 29.6364 54.2854 29.4327 54.2854C28.7946 54.2638 28.5104 54.0043 28.505 53.3555C28.4943 50.7657 28.4943 48.1759 28.505 45.586C28.505 44.9372 28.7946 44.6777 29.4327 44.6669C29.6203 44.6669 29.8134 44.6669 30.0815 44.6669C30.0815 44.4182 30.0815 44.2127 30.0815 44.0073C30.1029 43.1368 30.5534 42.6772 31.4059 42.6718C32.2907 42.6664 33.1701 42.6718 33.9584 42.6718C34.2318 41.4607 34.382 40.2929 34.7627 39.2061C35.8566 36.1081 38.2589 34.6158 41.3207 34.0806C42.377 33.8968 43.4656 33.8211 44.5434 33.8156C51.4553 33.794 58.3671 33.7994 65.2737 33.8102C67.2202 33.8102 69.0701 34.2103 70.6681 35.4214C72.5448 36.8434 73.376 38.8493 73.7352 41.1093C73.8157 41.6067 73.8586 42.1041 73.9283 42.6664C74.7433 42.6664 75.5477 42.6664 76.352 42.6664C77.521 42.6664 77.891 43.0395 77.9124 44.2344C77.9124 44.3479 77.9285 44.4669 77.9392 44.6669C78.1483 44.6669 78.3521 44.6669 78.5612 44.6669C79.1993 44.6777 79.4889 44.9372 79.4889 45.586C79.4996 48.1759 79.4996 50.7657 79.4889 53.3555C79.4889 53.9989 79.1993 54.2692 78.5612 54.2908C78.3736 54.2962 78.1805 54.2908 77.9392 54.2908C77.9285 54.5395 77.9178 54.745 77.9124 54.9559C77.8856 55.8155 77.4244 56.2913 76.5826 56.3021C75.8319 56.3129 75.0758 56.3129 74.3251 56.3021C74.0034 56.2967 73.8854 56.4103 73.8854 56.7401C73.9015 57.9296 73.8854 59.1136 73.9015 60.3031C73.9015 60.4599 73.9551 60.6653 74.0623 60.7735C75.0865 61.8062 75.4243 63.12 75.4672 64.4987C75.5316 66.5424 75.5101 68.5862 75.4833 70.6299C75.4672 72.0356 74.4216 73.1332 72.7164 73.5765C72.7164 74.5065 72.7164 75.4527 72.7164 76.3988C72.7164 77.9668 71.8799 78.7994 70.3142 78.7994C69.4455 78.7994 68.5768 78.7994 67.7081 78.7994C66.4748 78.7886 65.5579 77.8695 65.5418 76.6205C65.5311 75.6311 65.5418 74.6363 65.5418 73.6036H42.4628V73.5928ZM53.1873 43.4666C52.9674 43.4558 52.7958 43.4342 52.6242 43.4342C48.1682 43.4342 43.7122 43.4612 39.2562 43.418C37.1328 43.3963 35.6046 44.8453 35.6635 47.0567C35.7225 49.1761 35.6743 51.2955 35.6743 53.4204C35.6743 54.9396 36.2319 55.5073 37.728 55.5073C42.6666 55.5073 47.6052 55.5073 52.5438 55.5073C52.7476 55.5073 52.9513 55.4911 53.1873 55.4803V43.4666ZM54.812 55.4695C54.9729 55.4857 55.0694 55.5019 55.1659 55.5019C60.2761 55.5019 65.3916 55.5128 70.5018 55.5019C71.703 55.5019 72.3143 54.8639 72.3196 53.6528C72.3303 51.3766 72.3303 49.1004 72.3196 46.8242C72.3196 46.4619 72.2767 46.0781 72.1695 45.7374C71.6976 44.2344 70.5394 43.4396 68.8074 43.4342C64.3138 43.4234 59.8203 43.4288 55.3214 43.4288C55.1552 43.4288 54.989 43.4612 54.8174 43.4774V55.4695H54.812ZM53.9969 36.2324C51.525 36.2324 49.0584 36.2324 46.5864 36.2324C45.5032 36.2324 44.9026 36.8056 44.8329 37.8977C44.8061 38.3248 44.8168 38.752 44.8276 39.1845C44.8544 40.4064 45.4978 41.0444 46.7097 41.0498C48.1789 41.0498 49.6428 41.0498 51.1121 41.0498C54.5278 41.0498 57.9435 41.0498 61.3593 41.0498C62.4478 41.0498 63.102 40.4389 63.1663 39.3521C63.1985 38.8655 63.1985 38.3789 63.1663 37.8923C63.0966 36.8002 62.4907 36.2324 61.4129 36.2324C58.9409 36.2324 56.4743 36.2324 54.0023 36.2324H53.9969ZM54.0613 62.3198C52.0344 62.3198 50.0128 62.3198 47.9859 62.3198C47.3478 62.3198 46.7151 62.3144 46.077 62.3306C45.6158 62.3414 45.3102 62.5793 45.2619 63.0659C45.219 63.5201 45.5193 63.8607 46.0126 63.931C46.1628 63.9526 46.3183 63.9418 46.4738 63.9418C50.5812 63.9418 54.6887 63.9418 58.7961 63.9418C59.8203 63.9418 60.8391 63.9526 61.8633 63.931C62.4103 63.9202 62.7374 63.5958 62.7374 63.1254C62.7374 62.6496 62.421 62.3468 61.8687 62.3198C61.7346 62.3144 61.6006 62.3198 61.4611 62.3198C58.9945 62.3198 56.5226 62.3198 54.0559 62.3198H54.0613ZM53.9916 68.743C51.4821 68.743 48.9779 68.743 46.4684 68.743C46.2968 68.743 46.1199 68.7267 45.9483 68.7592C45.5461 68.8349 45.2834 69.0619 45.2565 69.4945C45.2297 69.9595 45.4818 70.2244 45.9054 70.3271C46.0877 70.3704 46.2861 70.3596 46.4791 70.3596C51.4928 70.3596 56.5065 70.3596 61.5201 70.3596C61.7507 70.3596 61.9866 70.3487 62.2011 70.2839C62.5818 70.1703 62.8178 69.8621 62.7105 69.4891C62.6301 69.2187 62.3674 68.97 62.1314 68.7916C62.0027 68.6943 61.7614 68.743 61.5684 68.743C59.0428 68.743 56.5172 68.743 53.9916 68.743ZM54.0023 67.1264C54.619 67.1264 55.2356 67.1264 55.8523 67.1264C57.7988 67.1264 59.7452 67.1264 61.6917 67.1264C62.4103 67.1264 62.7374 66.8668 62.732 66.3316C62.732 65.7963 62.4103 65.5638 61.6756 65.5476C61.6167 65.5476 61.5577 65.5476 61.504 65.5476C56.4904 65.5476 51.4767 65.5476 46.4684 65.5476C46.2968 65.5476 46.1199 65.5476 45.9483 65.5692C45.4925 65.6179 45.2565 65.8936 45.2565 66.3478C45.2565 66.7749 45.4818 67.0398 45.9054 67.1101C46.093 67.1426 46.2915 67.1318 46.4845 67.1318C48.9886 67.1318 51.4982 67.1318 54.0023 67.1318V67.1264ZM41.2295 67.5481C41.2349 66.0018 40.0391 64.7582 38.5216 64.742C36.9558 64.7258 35.7118 65.9369 35.6904 67.4994C35.6689 69.0511 36.9022 70.3325 38.4412 70.3542C39.9694 70.3758 41.2242 69.116 41.2349 67.5535L41.2295 67.5481ZM66.759 67.5481C66.7644 69.1106 68.0245 70.3758 69.5527 70.3487C71.0917 70.3271 72.325 69.0403 72.2982 67.494C72.2767 65.9531 71.0541 64.742 69.5259 64.7366C67.9709 64.7366 66.7536 65.9693 66.759 67.5481ZM34.0602 55.5019V43.4342C33.2988 43.4342 32.591 43.4342 31.8778 43.4342C30.8912 43.4342 30.7518 43.6234 30.9984 44.6615C31.2129 44.6615 31.4435 44.6561 31.6741 44.6615C32.1888 44.6831 32.5052 44.9751 32.5052 45.4995C32.5159 48.1434 32.5159 50.7927 32.5052 53.4366C32.5052 53.961 32.1996 54.2584 31.6687 54.2746C31.4274 54.2854 31.1807 54.2746 30.9502 54.2746C30.8536 55.2424 30.9233 55.4641 31.3791 55.4803C32.2585 55.5182 33.1433 55.4911 34.0656 55.4911L34.0602 55.5019ZM77.092 44.6182C77.0169 44.1695 77.3762 43.5423 76.6577 43.4666C75.7675 43.3747 74.856 43.445 73.9283 43.445V55.5073C74.6951 55.5073 75.419 55.5073 76.1482 55.5073C77.1027 55.5073 77.2153 55.356 77.0276 54.3179C76.9472 54.3071 76.8507 54.2908 76.7595 54.2854C75.6281 54.2368 75.4941 54.0962 75.4941 52.9338C75.4941 50.7332 75.4941 48.5381 75.4941 46.3376C75.4941 45.2887 76.0267 44.7156 77.092 44.6182ZM40.4359 40.6119C41.5405 40.6227 42.4414 39.7468 42.4575 38.6492C42.4682 37.5787 41.5513 36.6271 40.4842 36.6163C39.3956 36.6055 38.5002 37.4922 38.4841 38.6006C38.468 39.7198 39.3206 40.6011 40.4359 40.6119ZM67.5097 40.6119C68.6304 40.6227 69.4991 39.7738 69.5152 38.6492C69.5313 37.5463 68.6519 36.6271 67.558 36.6163C66.4909 36.6001 65.5579 37.5246 65.5364 38.6006C65.515 39.6927 66.4105 40.6011 67.5097 40.6119Z" fill="white"/>
<defs>
<filter id="filter0_d_827_259" x="0" y="0.300049" width="114" height="120" filterUnits="userSpaceOnUse" color-interpolation-filters="sRGB">
<feFlood flood-opacity="0" result="BackgroundImageFix"/>
<feColorMatrix in="SourceAlpha" type="matrix" values="0 0 0 0 0 0 0 0 0 0 0 0 0 0 0 0 0 0 127 0" result="hardAlpha"/>
<feMorphology radius="5" operator="erode" in="SourceAlpha" result="effect1_dropShadow_827_259"/>
<feOffset dx="3" dy="4"/>
<feGaussianBlur stdDeviation="6.5"/>
<feComposite in2="hardAlpha" operator="out"/>
<feColorMatrix type="matrix" values="0 0 0 0 0 0 0 0 0 0 0 0 0 0 0 0 0 0 0.14 0"/>
<feBlend mode="normal" in2="BackgroundImageFix" result="effect1_dropShadow_827_259"/>
<feBlend mode="normal" in="SourceGraphic" in2="effect1_dropShadow_827_259" result="shape"/>
</filter>
</defs>
</svg>
