<svg width="52" height="46" viewBox="0 0 52 46" fill="none" xmlns="http://www.w3.org/2000/svg">
<path d="M14.4632 40.0732C14.4632 41.0735 14.4632 42.0251 14.4632 42.9766C14.4578 44.377 13.5677 45.2691 12.1789 45.2745C11.2727 45.2745 10.3665 45.2853 9.45489 45.2745C8.20013 45.2583 7.30464 44.3662 7.28856 43.1064C7.27783 42.0953 7.28856 41.0843 7.28856 40.0516C6.2751 39.8462 5.43323 39.3866 4.95599 38.4674C4.72006 38.0187 4.5431 37.4834 4.53238 36.9806C4.48412 35.0558 4.48412 33.1256 4.53238 31.2008C4.56455 29.7735 4.8702 28.4218 5.94264 27.3675C6.02844 27.281 6.10351 27.135 6.10351 27.0161C6.11423 25.6373 6.10887 24.2586 6.10887 22.7772C5.44932 22.7772 4.84339 22.7772 4.2321 22.7772C2.33923 22.7772 2.23735 22.6853 2.03895 20.7659C1.84591 20.7659 1.63678 20.7659 1.43302 20.7659C0.794917 20.7443 0.51072 20.4848 0.505358 19.8359C0.494633 17.2461 0.494633 14.6563 0.505358 12.0665C0.505358 11.4177 0.794917 11.1582 1.43302 11.1474C1.6207 11.1474 1.81374 11.1474 2.08185 11.1474C2.08185 10.8987 2.08185 10.6932 2.08185 10.4878C2.1033 9.61728 2.55372 9.15771 3.40631 9.1523C4.29108 9.14689 5.17048 9.1523 5.95873 9.1523C6.2322 7.9412 6.38234 6.77335 6.76306 5.6866C7.85695 2.58856 10.2592 1.09631 13.321 0.561047C14.3774 0.377219 15.4659 0.301525 16.5437 0.296118C23.4556 0.274492 30.3675 0.279898 37.274 0.290712C39.2205 0.290712 41.0705 0.690808 42.6684 1.90191C44.5452 3.32387 45.3763 5.32976 45.7356 7.58976C45.816 8.08718 45.8589 8.58459 45.9287 9.14689C46.7437 9.14689 47.548 9.14689 48.3524 9.14689C49.5213 9.14689 49.8913 9.51995 49.9128 10.7148C49.9128 10.8284 49.9289 10.9473 49.9396 11.1474C50.1487 11.1474 50.3525 11.1474 50.5616 11.1474C51.1997 11.1582 51.4893 11.4177 51.4893 12.0665C51.5 14.6563 51.5 17.2461 51.4893 19.8359C51.4893 20.4793 51.1997 20.7497 50.5616 20.7713C50.3739 20.7767 50.1809 20.7713 49.9396 20.7713C49.9289 21.02 49.9181 21.2255 49.9128 21.4363C49.886 22.296 49.4248 22.7718 48.5829 22.7826C47.8322 22.7934 47.0762 22.7934 46.3255 22.7826C46.0037 22.7772 45.8858 22.8907 45.8858 23.2205C45.9018 24.41 45.8858 25.5941 45.9018 26.7836C45.9018 26.9404 45.9555 27.1458 46.0627 27.2539C47.0869 28.2866 47.4247 29.6005 47.4676 30.9792C47.532 33.0229 47.5105 35.0666 47.4837 37.1104C47.4676 38.5161 46.422 39.6137 44.7168 40.057C44.7168 40.987 44.7168 41.9331 44.7168 42.8793C44.7168 44.4473 43.8803 45.2799 42.3145 45.2799C41.4458 45.2799 40.5772 45.2799 39.7085 45.2799C38.4752 45.2691 37.5582 44.3499 37.5422 43.101C37.5314 42.1116 37.5422 41.1167 37.5422 40.0841H14.4632V40.0732ZM25.1876 9.94708C24.9678 9.93627 24.7962 9.91464 24.6246 9.91464C20.1686 9.91464 15.7126 9.94168 11.2566 9.89843C9.13316 9.8768 7.60493 11.3258 7.66391 13.5371C7.7229 15.6566 7.67464 17.776 7.67464 19.9008C7.67464 21.4201 8.2323 21.9878 9.72836 21.9878C14.667 21.9878 19.6056 21.9878 24.5442 21.9878C24.7479 21.9878 24.9517 21.9716 25.1876 21.9608V9.94708ZM26.8124 21.95C26.9732 21.9662 27.0698 21.9824 27.1663 21.9824C32.2765 21.9824 37.392 21.9932 42.5022 21.9824C43.7033 21.9824 44.3146 21.3444 44.32 20.1333C44.3307 17.8571 44.3307 15.5809 44.32 13.3046C44.32 12.9424 44.2771 12.5585 44.1698 12.2179C43.698 10.7148 42.5397 9.92005 40.8077 9.91464C36.3142 9.90383 31.8207 9.90924 27.3218 9.90924C27.1556 9.90924 26.9893 9.94168 26.8177 9.9579V21.95H26.8124ZM25.9973 2.71292C23.5253 2.71292 21.0587 2.71292 18.5867 2.71292C17.5036 2.71292 16.903 3.28603 16.8333 4.37818C16.8065 4.80531 16.8172 5.23244 16.8279 5.66498C16.8547 6.88689 17.4982 7.52488 18.7101 7.53029C20.1793 7.53029 21.6432 7.53029 23.1124 7.53029C26.5282 7.53029 29.9439 7.53029 33.3596 7.53029C34.4482 7.53029 35.1023 6.91933 35.1667 5.83258C35.1989 5.34598 35.1989 4.85938 35.1667 4.37277C35.097 3.28062 34.4911 2.71292 33.4133 2.71292C30.9413 2.71292 28.4747 2.71292 26.0027 2.71292H25.9973ZM26.0617 28.8003C24.0347 28.8003 22.0132 28.8003 19.9863 28.8003C19.3482 28.8003 18.7154 28.7949 18.0773 28.8111C17.6162 28.8219 17.3105 29.0598 17.2623 29.5464C17.2194 30.0006 17.5197 30.3412 18.013 30.4115C18.1631 30.4331 18.3186 30.4223 18.4741 30.4223C22.5816 30.4223 26.689 30.4223 30.7965 30.4223C31.8207 30.4223 32.8395 30.4331 33.8637 30.4115C34.4106 30.4006 34.7377 30.0762 34.7377 29.6059C34.7377 29.1301 34.4213 28.8273 33.869 28.8003C33.735 28.7949 33.6009 28.8003 33.4615 28.8003C30.9949 28.8003 28.5229 28.8003 26.0563 28.8003H26.0617ZM25.992 35.2234C23.4824 35.2234 20.9783 35.2234 18.4688 35.2234C18.2972 35.2234 18.1202 35.2072 17.9486 35.2396C17.5465 35.3153 17.2837 35.5424 17.2569 35.975C17.2301 36.4399 17.4821 36.7049 17.9057 36.8076C18.0881 36.8508 18.2865 36.84 18.4795 36.84C23.4932 36.84 28.5068 36.84 33.5205 36.84C33.7511 36.84 33.987 36.8292 34.2015 36.7643C34.5822 36.6508 34.8182 36.3426 34.7109 35.9696C34.6305 35.6992 34.3677 35.4505 34.1318 35.2721C34.0031 35.1748 33.7618 35.2234 33.5688 35.2234C31.0432 35.2234 28.5176 35.2234 25.992 35.2234ZM26.0027 33.6068C26.6193 33.6068 27.236 33.6068 27.8526 33.6068C29.7991 33.6068 31.7456 33.6068 33.6921 33.6068C34.4106 33.6068 34.7377 33.3473 34.7324 32.812C34.7324 32.2768 34.4106 32.0443 33.676 32.0281C33.617 32.0281 33.558 32.0281 33.5044 32.0281C28.4907 32.0281 23.4771 32.0281 18.4688 32.0281C18.2972 32.0281 18.1202 32.0281 17.9486 32.0497C17.4928 32.0984 17.2569 32.3741 17.2569 32.8283C17.2569 33.2554 17.4821 33.5203 17.9057 33.5906C18.0934 33.623 18.2918 33.6122 18.4849 33.6122C20.989 33.6122 23.4985 33.6122 26.0027 33.6122V33.6068ZM13.2299 34.0285C13.2352 32.4822 12.0395 31.2387 10.522 31.2225C8.9562 31.2062 7.71217 32.4173 7.69072 33.9799C7.66927 35.5316 8.90258 36.813 10.4415 36.8346C11.9698 36.8563 13.2245 35.5965 13.2352 34.034L13.2299 34.0285ZM38.7594 34.0285C38.7647 35.5911 40.0249 36.8562 41.5531 36.8292C43.092 36.8076 44.3254 35.5208 44.2985 33.9745C44.2771 32.4336 43.0545 31.2225 41.5263 31.2171C39.9712 31.2171 38.754 32.4498 38.7594 34.0285ZM6.06061 21.9824V9.91464C5.29918 9.91464 4.59136 9.91464 3.87819 9.91464C2.89154 9.91464 2.75212 10.1039 2.99879 11.142C3.21327 11.142 3.44385 11.1366 3.67443 11.142C4.1892 11.1636 4.50557 11.4556 4.50557 11.98C4.51629 14.6239 4.51629 17.2732 4.50557 19.917C4.50557 20.4415 4.19992 20.7389 3.66906 20.7551C3.42776 20.7659 3.1811 20.7551 2.95053 20.7551C2.85401 21.7229 2.92372 21.9446 3.3795 21.9608C4.25891 21.9986 5.14367 21.9716 6.06597 21.9716L6.06061 21.9824ZM49.0924 11.0987C49.0173 10.65 49.3766 10.0228 48.658 9.94708C47.7679 9.85517 46.8563 9.92546 45.9287 9.92546V21.9878C46.6954 21.9878 47.4193 21.9878 48.1486 21.9878C49.1031 21.9878 49.2157 21.8364 49.028 20.7983C48.9476 20.7875 48.8511 20.7713 48.7599 20.7659C47.6285 20.7172 47.4944 20.5767 47.4944 19.4142C47.4944 17.2137 47.4944 15.0186 47.4944 12.818C47.4944 11.7691 48.0271 11.196 49.0924 11.0987ZM12.4363 7.09235C13.5409 7.10316 14.4417 6.22727 14.4578 5.12971C14.4686 4.05918 13.5516 3.1076 12.4845 3.09679C11.396 3.08598 10.5005 3.97268 10.4844 5.08105C10.4683 6.20024 11.3209 7.08153 12.4363 7.09235ZM39.5101 7.09235C40.6308 7.10316 41.4995 6.25431 41.5156 5.12971C41.5316 4.02674 40.6522 3.1076 39.5583 3.09679C38.4913 3.08057 37.5582 4.00512 37.5368 5.08105C37.5153 6.17321 38.4108 7.08153 39.5101 7.09235Z" fill="white"/>
</svg>
